<?xml version="1.0" encoding="utf-8"?>
<!-- Generator: Adobe Illustrator 18.0.0, SVG Export Plug-In . SVG Version: 6.00 Build 0)  -->
<!DOCTYPE svg PUBLIC "-//W3C//DTD SVG 1.1//EN" "http://www.w3.org/Graphics/SVG/1.1/DTD/svg11.dtd">
<svg version="1.1" id="Layer_1" xmlns="http://www.w3.org/2000/svg" xmlns:xlink="http://www.w3.org/1999/xlink" x="0px" y="0px"
	 viewBox="0 0 20 260" enable-background="new 0 0 20 260" xml:space="preserve">
<g>
	<path fill="#231F20" d="M12.6,142.6c0.1-0.1,0.2-0.2,0.2-0.3c0-0.1,0.1-0.2,0.1-0.4s0-0.3-0.1-0.4c-0.1-0.1-0.1-0.2-0.2-0.3
		c-0.1-0.1-0.2-0.2-0.3-0.2c-0.1,0-0.3-0.1-0.4-0.1c-0.2,0-0.3,0-0.4,0.1c-0.1,0-0.2,0.1-0.3,0.2c-0.1,0.1-0.2,0.2-0.2,0.3
		c-0.1,0.1-0.1,0.2-0.1,0.4c0,0.2,0,0.3,0.1,0.4c0.1,0.1,0.2,0.2,0.3,0.3l-0.5,0.6c-0.2-0.1-0.3-0.3-0.4-0.5
		c-0.1-0.2-0.1-0.4-0.1-0.7c0-0.3,0-0.5,0.1-0.7c0.1-0.2,0.2-0.4,0.4-0.6c0.2-0.2,0.3-0.3,0.6-0.4c0.2-0.1,0.5-0.1,0.7-0.1
		c0.3,0,0.5,0,0.7,0.1c0.2,0.1,0.4,0.2,0.6,0.4c0.2,0.2,0.3,0.4,0.4,0.6c0.1,0.2,0.1,0.5,0.1,0.7c0,0.1,0,0.2,0,0.3
		c0,0.1,0,0.2-0.1,0.3c0,0.1-0.1,0.2-0.2,0.3c-0.1,0.1-0.1,0.2-0.2,0.2L12.6,142.6z"/>
	<path fill="#231F20" d="M13.5,144.4v1.3c0,0.2,0,0.3-0.1,0.5c0,0.2-0.1,0.3-0.2,0.4c-0.1,0.1-0.2,0.2-0.3,0.3
		c-0.1,0.1-0.3,0.1-0.5,0.1c-0.2,0-0.4-0.1-0.6-0.2c-0.2-0.1-0.3-0.3-0.3-0.5l-1.4,0.9v-0.9l1.4-0.7v-0.4h-1.4v-0.7H13.5z
		 M12.1,145.2v0.4c0,0.1,0,0.1,0,0.2c0,0.1,0,0.1,0,0.2c0,0.1,0.1,0.1,0.1,0.2c0.1,0,0.1,0.1,0.2,0.1c0.1,0,0.2,0,0.2-0.1
		c0.1,0,0.1-0.1,0.1-0.1c0-0.1,0-0.1,0.1-0.2c0-0.1,0-0.1,0-0.2v-0.5H12.1z"/>
	<path fill="#231F20" d="M13.5,148.3v0.7h-3.4v-0.7H13.5z"/>
	<path fill="#231F20" d="M12.8,151.1v-1h0.7v2.7h-0.7v-1h-2.7v-0.7H12.8z"/>
	<path fill="#231F20" d="M13.5,154v0.7h-3.4V154H13.5z"/>
	<path fill="#231F20" d="M12.6,158.4c0.1-0.1,0.2-0.2,0.2-0.3c0-0.1,0.1-0.2,0.1-0.4s0-0.3-0.1-0.4c-0.1-0.1-0.1-0.2-0.2-0.3
		c-0.1-0.1-0.2-0.2-0.3-0.2c-0.1,0-0.3-0.1-0.4-0.1c-0.2,0-0.3,0-0.4,0.1c-0.1,0-0.2,0.1-0.3,0.2c-0.1,0.1-0.2,0.2-0.2,0.3
		c-0.1,0.1-0.1,0.2-0.1,0.4c0,0.2,0,0.3,0.1,0.4c0.1,0.1,0.2,0.2,0.3,0.3l-0.5,0.6c-0.2-0.1-0.3-0.3-0.4-0.5
		c-0.1-0.2-0.1-0.4-0.1-0.7c0-0.3,0-0.5,0.1-0.7c0.1-0.2,0.2-0.4,0.4-0.6c0.2-0.2,0.3-0.3,0.6-0.4c0.2-0.1,0.5-0.1,0.7-0.1
		c0.3,0,0.5,0,0.7,0.1c0.2,0.1,0.4,0.2,0.6,0.4c0.2,0.2,0.3,0.4,0.4,0.6c0.1,0.2,0.1,0.5,0.1,0.7c0,0.1,0,0.2,0,0.3
		c0,0.1,0,0.2-0.1,0.3c0,0.1-0.1,0.2-0.2,0.3c-0.1,0.1-0.1,0.2-0.2,0.2L12.6,158.4z"/>
	<path fill="#231F20" d="M13.5,161.3v0.6l-3.4,1.5v-0.8l0.7-0.3V161l-0.7-0.3v-0.8L13.5,161.3z M12.5,161.6l-1.1-0.4v0.8L12.5,161.6
		z"/>
	<path fill="#231F20" d="M13.5,164.5v0.7h-2.7v1.4h-0.7v-2.1H13.5z"/>
	<path fill="#231F20" d="M13.5,169.7v0.8l-2.2,0.5v0l2.2,0.7v0.7l-2.2,0.7v0l2.2,0.6v0.8l-3.4-1v-0.7l2.3-0.7v0l-2.3-0.7v-0.6
		L13.5,169.7z"/>
	<path fill="#231F20" d="M13.5,175.6v1.3c0,0.2,0,0.3-0.1,0.5c0,0.2-0.1,0.3-0.2,0.4c-0.1,0.1-0.2,0.2-0.3,0.3
		c-0.1,0.1-0.3,0.1-0.5,0.1c-0.2,0-0.4-0.1-0.6-0.2c-0.2-0.1-0.3-0.3-0.3-0.5l-1.4,0.9v-0.9l1.4-0.7v-0.4h-1.4v-0.7H13.5z
		 M12.1,176.3v0.4c0,0.1,0,0.1,0,0.2c0,0.1,0,0.1,0,0.2c0,0.1,0.1,0.1,0.1,0.2c0.1,0,0.1,0.1,0.2,0.1c0.1,0,0.2,0,0.2-0.1
		c0.1,0,0.1-0.1,0.1-0.1c0-0.1,0-0.1,0.1-0.2c0-0.1,0-0.1,0-0.2v-0.5H12.1z"/>
	<path fill="#231F20" d="M13.5,179.4v0.7h-3.4v-0.7H13.5z"/>
	<path fill="#231F20" d="M12.8,182.3v-1h0.7v2.7h-0.7v-1h-2.7v-0.7H12.8z"/>
	<path fill="#231F20" d="M13.5,185.1v0.7h-3.4v-0.7H13.5z"/>
	<path fill="#231F20" d="M13.5,187.3v1l-2.4,1.4v0h2.4v0.7h-3.4v-1l2.4-1.5v0h-2.4v-0.7H13.5z"/>
	<path fill="#231F20" d="M10.3,195c-0.1-0.2-0.2-0.4-0.2-0.7c-0.1-0.2-0.1-0.5-0.1-0.7c0-0.3,0-0.5,0.1-0.7c0.1-0.2,0.2-0.4,0.4-0.6
		c0.2-0.2,0.3-0.3,0.6-0.4c0.2-0.1,0.5-0.1,0.7-0.1c0.3,0,0.5,0,0.7,0.1c0.2,0.1,0.4,0.2,0.6,0.4c0.2,0.2,0.3,0.4,0.4,0.6
		c0.1,0.2,0.1,0.5,0.1,0.7c0,0.3,0,0.5-0.1,0.7c-0.1,0.2-0.2,0.4-0.3,0.6l-0.6-0.5c0.1-0.1,0.2-0.2,0.2-0.3c0.1-0.1,0.1-0.3,0.1-0.5
		c0-0.2,0-0.3-0.1-0.4c-0.1-0.1-0.1-0.2-0.2-0.3c-0.1-0.1-0.2-0.2-0.3-0.2c-0.1,0-0.3-0.1-0.4-0.1c-0.2,0-0.3,0-0.4,0.1
		c-0.1,0-0.2,0.1-0.3,0.2c-0.1,0.1-0.2,0.2-0.2,0.3c-0.1,0.1-0.1,0.3-0.1,0.4c0,0.2,0,0.3,0.1,0.4c0,0.1,0.1,0.2,0.1,0.3h0.5v-0.6
		h0.7v1.3H10.3z"/>
	<path fill="#231F20" d="M12.6,198.1c0.1-0.1,0.1-0.1,0.2-0.2c0-0.1,0.1-0.2,0.1-0.3c0-0.1,0-0.1,0-0.2c0-0.1,0-0.1-0.1-0.2
		c0-0.1-0.1-0.1-0.1-0.1c0,0-0.1,0-0.2,0c-0.1,0-0.2,0-0.2,0.1c-0.1,0.1-0.1,0.2-0.1,0.3c0,0.1-0.1,0.2-0.1,0.4
		c0,0.1-0.1,0.3-0.2,0.4c-0.1,0.1-0.2,0.2-0.3,0.3c-0.1,0.1-0.3,0.1-0.5,0.1c-0.2,0-0.4,0-0.5-0.1c-0.1-0.1-0.3-0.2-0.3-0.3
		c-0.1-0.1-0.2-0.3-0.2-0.4c0-0.2-0.1-0.3-0.1-0.5c0-0.2,0-0.4,0.1-0.6c0.1-0.2,0.2-0.4,0.3-0.5l0.6,0.5c-0.1,0.1-0.2,0.2-0.2,0.3
		c-0.1,0.1-0.1,0.2-0.1,0.4c0,0.1,0,0.1,0,0.2c0,0.1,0,0.1,0.1,0.2c0,0,0.1,0.1,0.1,0.1c0,0,0.1,0,0.2,0c0.1,0,0.2,0,0.2-0.1
		c0.1-0.1,0.1-0.2,0.2-0.3c0-0.1,0.1-0.2,0.1-0.4c0-0.1,0.1-0.3,0.2-0.4c0.1-0.1,0.2-0.2,0.3-0.3c0.1-0.1,0.3-0.1,0.5-0.1
		c0.2,0,0.3,0,0.5,0.1c0.1,0.1,0.3,0.2,0.3,0.3c0.1,0.1,0.2,0.3,0.2,0.4c0,0.2,0.1,0.3,0.1,0.5c0,0.2,0,0.4-0.1,0.6
		c-0.1,0.2-0.1,0.3-0.3,0.5L12.6,198.1z"/>
	<path fill="#231F20" d="M11.8,202c0.3,0,0.5,0,0.7,0.1c0.2,0.1,0.4,0.2,0.6,0.4c0.2,0.2,0.3,0.4,0.4,0.6c0.1,0.2,0.1,0.5,0.1,0.7
		c0,0.3,0,0.5-0.1,0.7c-0.1,0.2-0.2,0.4-0.4,0.6c-0.2,0.2-0.3,0.3-0.6,0.4c-0.2,0.1-0.5,0.1-0.7,0.1c-0.3,0-0.5,0-0.7-0.1
		c-0.2-0.1-0.4-0.2-0.6-0.4c-0.2-0.2-0.3-0.4-0.4-0.6c-0.1-0.2-0.1-0.5-0.1-0.7c0-0.3,0-0.5,0.1-0.7c0.1-0.2,0.2-0.4,0.4-0.6
		c0.2-0.2,0.3-0.3,0.6-0.4C11.3,202,11.5,202,11.8,202z M11.8,202.7c-0.2,0-0.3,0-0.4,0.1c-0.1,0-0.2,0.1-0.3,0.2
		c-0.1,0.1-0.2,0.2-0.2,0.3c-0.1,0.1-0.1,0.3-0.1,0.4c0,0.2,0,0.3,0.1,0.4c0.1,0.1,0.1,0.2,0.2,0.3c0.1,0.1,0.2,0.2,0.3,0.2
		c0.1,0,0.3,0.1,0.4,0.1c0.2,0,0.3,0,0.4-0.1c0.1,0,0.2-0.1,0.3-0.2c0.1-0.1,0.2-0.2,0.2-0.3c0.1-0.1,0.1-0.3,0.1-0.4
		c0-0.2,0-0.3-0.1-0.4c-0.1-0.1-0.1-0.2-0.2-0.3c-0.1-0.1-0.2-0.2-0.3-0.2C12.1,202.8,11.9,202.7,11.8,202.7z"/>
	<path fill="#231F20" d="M13.5,206.9v1l-2.4,1.4v0h2.4v0.7h-3.4v-1l2.4-1.5v0h-2.4v-0.7H13.5z"/>
	<path fill="#231F20" d="M12.8,214.4v-1h0.7v2.7h-0.7v-1h-2.7v-0.7H12.8z"/>
	<path fill="#231F20" d="M11.5,218.1l1.9-1.3v0.9l-1.3,0.7l1.3,0.8v0.9l-1.9-1.3h-1.4v-0.7H11.5z"/>
	<path fill="#231F20" d="M13.5,221.1v1.3c0,0.2,0,0.3,0,0.5c0,0.2-0.1,0.3-0.2,0.4c-0.1,0.1-0.2,0.2-0.3,0.3
		c-0.1,0.1-0.3,0.1-0.5,0.1c-0.2,0-0.4,0-0.5-0.1c-0.1-0.1-0.2-0.2-0.3-0.3c-0.1-0.1-0.1-0.2-0.2-0.4c0-0.2-0.1-0.3-0.1-0.5v-0.5
		h-1.3v-0.7H13.5z M12,221.8v0.5c0,0.1,0,0.1,0,0.2c0,0.1,0,0.1,0.1,0.2c0,0,0.1,0.1,0.1,0.1c0.1,0,0.1,0,0.2,0c0.1,0,0.2,0,0.2-0.1
		c0.1,0,0.1-0.1,0.1-0.2c0-0.1,0-0.1,0.1-0.2c0-0.1,0-0.1,0-0.2v-0.4H12z"/>
	<path fill="#231F20" d="M11.8,224.7c0.3,0,0.5,0,0.7,0.1c0.2,0.1,0.4,0.2,0.6,0.4c0.2,0.2,0.3,0.4,0.4,0.6c0.1,0.2,0.1,0.5,0.1,0.7
		c0,0.3,0,0.5-0.1,0.7c-0.1,0.2-0.2,0.4-0.4,0.6c-0.2,0.2-0.3,0.3-0.6,0.4c-0.2,0.1-0.5,0.1-0.7,0.1c-0.3,0-0.5,0-0.7-0.1
		c-0.2-0.1-0.4-0.2-0.6-0.4c-0.2-0.2-0.3-0.4-0.4-0.6c-0.1-0.2-0.1-0.5-0.1-0.7c0-0.3,0-0.5,0.1-0.7c0.1-0.2,0.2-0.4,0.4-0.6
		c0.2-0.2,0.3-0.3,0.6-0.4C11.3,224.7,11.5,224.7,11.8,224.7z M11.8,225.5c-0.2,0-0.3,0-0.4,0.1c-0.1,0-0.2,0.1-0.3,0.2
		c-0.1,0.1-0.2,0.2-0.2,0.3c-0.1,0.1-0.1,0.3-0.1,0.4c0,0.2,0,0.3,0.1,0.4c0.1,0.1,0.1,0.2,0.2,0.3c0.1,0.1,0.2,0.2,0.3,0.2
		c0.1,0,0.3,0.1,0.4,0.1c0.2,0,0.3,0,0.4-0.1c0.1,0,0.2-0.1,0.3-0.2c0.1-0.1,0.2-0.2,0.2-0.3c0.1-0.1,0.1-0.3,0.1-0.4
		c0-0.2,0-0.3-0.1-0.4c-0.1-0.1-0.1-0.2-0.2-0.3c-0.1-0.1-0.2-0.2-0.3-0.2C12.1,225.5,11.9,225.5,11.8,225.5z"/>
	<path fill="#231F20" d="M10.3,232.7c-0.1-0.2-0.2-0.4-0.2-0.7c-0.1-0.2-0.1-0.5-0.1-0.7c0-0.3,0-0.5,0.1-0.7
		c0.1-0.2,0.2-0.4,0.4-0.6c0.2-0.2,0.3-0.3,0.6-0.4c0.2-0.1,0.5-0.1,0.7-0.1c0.3,0,0.5,0,0.7,0.1c0.2,0.1,0.4,0.2,0.6,0.4
		c0.2,0.2,0.3,0.4,0.4,0.6c0.1,0.2,0.1,0.5,0.1,0.7c0,0.3,0,0.5-0.1,0.7c-0.1,0.2-0.2,0.4-0.3,0.6l-0.6-0.5c0.1-0.1,0.2-0.2,0.2-0.3
		c0.1-0.1,0.1-0.3,0.1-0.5c0-0.2,0-0.3-0.1-0.4c-0.1-0.1-0.1-0.2-0.2-0.3c-0.1-0.1-0.2-0.2-0.3-0.2c-0.1,0-0.3-0.1-0.4-0.1
		c-0.2,0-0.3,0-0.4,0.1c-0.1,0-0.2,0.1-0.3,0.2c-0.1,0.1-0.2,0.2-0.2,0.3c-0.1,0.1-0.1,0.3-0.1,0.4c0,0.2,0,0.3,0.1,0.4
		c0,0.1,0.1,0.2,0.1,0.3h0.5v-0.6h0.7v1.3H10.3z"/>
	<path fill="#231F20" d="M13.5,234.1v1.3c0,0.2,0,0.3-0.1,0.5c0,0.2-0.1,0.3-0.2,0.4c-0.1,0.1-0.2,0.2-0.3,0.3
		c-0.1,0.1-0.3,0.1-0.5,0.1c-0.2,0-0.4-0.1-0.6-0.2s-0.3-0.3-0.3-0.5l-1.4,0.9v-0.9l1.4-0.7v-0.4h-1.4v-0.7H13.5z M12.1,234.8v0.4
		c0,0.1,0,0.1,0,0.2c0,0.1,0,0.1,0,0.2c0,0.1,0.1,0.1,0.1,0.2c0.1,0,0.1,0.1,0.2,0.1c0.1,0,0.2,0,0.2-0.1c0.1,0,0.1-0.1,0.1-0.1
		c0-0.1,0-0.1,0.1-0.2c0-0.1,0-0.1,0-0.2v-0.5H12.1z"/>
	<path fill="#231F20" d="M13.5,239.1v0.6l-3.4,1.5v-0.8l0.7-0.3v-1.3l-0.7-0.3v-0.8L13.5,239.1z M12.5,239.3l-1.1-0.4v0.8
		L12.5,239.3z"/>
	<path fill="#231F20" d="M13.5,242.2v1.3c0,0.2,0,0.3,0,0.5c0,0.2-0.1,0.3-0.2,0.4c-0.1,0.1-0.2,0.2-0.3,0.3
		c-0.1,0.1-0.3,0.1-0.5,0.1c-0.2,0-0.4,0-0.5-0.1c-0.1-0.1-0.2-0.2-0.3-0.3c-0.1-0.1-0.1-0.2-0.2-0.4c0-0.2-0.1-0.3-0.1-0.5V243
		h-1.3v-0.7H13.5z M12,243v0.5c0,0.1,0,0.1,0,0.2c0,0.1,0,0.1,0.1,0.2c0,0,0.1,0.1,0.1,0.1c0.1,0,0.1,0,0.2,0c0.1,0,0.2,0,0.2-0.1
		c0.1,0,0.1-0.1,0.1-0.2c0-0.1,0-0.1,0.1-0.2c0-0.1,0-0.1,0-0.2V243H12z"/>
	<path fill="#231F20" d="M13.5,246v0.7h-1.3v1.4h1.3v0.7h-3.4v-0.7h1.5v-1.4h-1.5V246H13.5z"/>
	<path fill="#231F20" d="M11.5,251.3l1.9-1.3v0.9l-1.3,0.7l1.3,0.8v0.9l-1.9-1.3h-1.4v-0.7H11.5z"/>
</g>
<g>
	<path fill="#231F20" d="M5.7,141.4v1.2H5.5v-1.5h2.3v1.4H7.6v-1.2H6.8v1.1H6.6v-1.1H5.7z"/>
	<path fill="#231F20" d="M7.8,143.9v0.8c0,0.1,0,0.3-0.1,0.4c0,0.1-0.1,0.3-0.2,0.4c-0.1,0.1-0.2,0.2-0.4,0.3
		c-0.1,0.1-0.3,0.1-0.5,0.1c-0.2,0-0.4,0-0.5-0.1c-0.1-0.1-0.3-0.2-0.4-0.3c-0.1-0.1-0.2-0.2-0.2-0.4c0-0.1-0.1-0.3-0.1-0.4v-0.8
		H7.8z M5.7,144.1v0.5c0,0.2,0,0.3,0.1,0.5c0.1,0.1,0.1,0.2,0.2,0.3c0.1,0.1,0.2,0.1,0.3,0.2c0.1,0,0.2,0.1,0.3,0.1
		c0.1,0,0.2,0,0.3-0.1c0.1,0,0.2-0.1,0.3-0.2c0.1-0.1,0.2-0.2,0.2-0.3c0.1-0.1,0.1-0.3,0.1-0.5v-0.5H5.7z"/>
	<path fill="#231F20" d="M5.5,147.4v-0.2h2.3v0.2H5.5z"/>
	<path fill="#231F20" d="M5.5,149.6v-0.2h2.1v-0.8h0.2v1.8H7.6v-0.8H5.5z"/>
	<path fill="#231F20" d="M5.7,151.8v1.2H5.5v-1.5h2.3v1.4H7.6v-1.2H6.8v1.1H6.6v-1.1H5.7z"/>
	<path fill="#231F20" d="M7.8,154.3v0.8c0,0.1,0,0.3-0.1,0.4c0,0.1-0.1,0.3-0.2,0.4c-0.1,0.1-0.2,0.2-0.4,0.3
		c-0.1,0.1-0.3,0.1-0.5,0.1c-0.2,0-0.4,0-0.5-0.1c-0.1-0.1-0.3-0.2-0.4-0.3c-0.1-0.1-0.2-0.2-0.2-0.4c0-0.1-0.1-0.3-0.1-0.4v-0.8
		H7.8z M5.7,154.6v0.5c0,0.2,0,0.3,0.1,0.5c0.1,0.1,0.1,0.2,0.2,0.3c0.1,0.1,0.2,0.1,0.3,0.2c0.1,0,0.2,0.1,0.3,0.1
		c0.1,0,0.2,0,0.3-0.1c0.1,0,0.2-0.1,0.3-0.2c0.1-0.1,0.2-0.2,0.2-0.3c0.1-0.1,0.1-0.3,0.1-0.5v-0.5H5.7z"/>
	<path fill="#231F20" d="M7.8,159.4v0.7c0,0.1,0,0.2,0,0.3c0,0.1-0.1,0.2-0.1,0.2c0,0.1-0.1,0.1-0.2,0.2c-0.1,0-0.2,0.1-0.3,0.1
		c-0.1,0-0.2,0-0.3-0.1c-0.1-0.1-0.2-0.2-0.2-0.3h0c0,0.2-0.1,0.3-0.2,0.4c-0.1,0.1-0.2,0.1-0.4,0.1c0,0-0.1,0-0.2,0
		c-0.1,0-0.1-0.1-0.2-0.1c-0.1-0.1-0.1-0.1-0.2-0.3c-0.1-0.1-0.1-0.3-0.1-0.4v-0.7H7.8z M6.8,159.6v0.5c0,0.1,0,0.1,0,0.2
		c0,0.1,0,0.1,0.1,0.2c0,0,0.1,0.1,0.1,0.1c0.1,0,0.1,0,0.2,0c0,0,0.1,0,0.1,0s0.1,0,0.1-0.1c0,0,0.1-0.1,0.1-0.1c0-0.1,0-0.2,0-0.3
		v-0.4H6.8z M5.7,159.6v0.4c0,0.1,0,0.2,0,0.2c0,0.1,0,0.1,0.1,0.2c0,0.1,0.1,0.1,0.1,0.1c0.1,0,0.1,0,0.2,0c0.2,0,0.3,0,0.3-0.1
		c0.1-0.1,0.1-0.2,0.1-0.4v-0.5H5.7z"/>
	<path fill="#231F20" d="M5.5,163v-0.2h1l1.3-0.9v0.3l-1.1,0.7l1.1,0.7v0.3L6.5,163H5.5z"/>
	<path fill="#231F20" d="M7.4,167.9c0.1-0.1,0.2-0.3,0.2-0.4c0-0.1,0-0.1,0-0.2c0-0.1,0-0.1-0.1-0.2S7.5,167,7.4,167
		c-0.1,0-0.1,0-0.2,0c-0.1,0-0.2,0-0.2,0.1s-0.1,0.1-0.1,0.2c0,0.1-0.1,0.2-0.1,0.3c0,0.1-0.1,0.2-0.1,0.3c0,0.1-0.1,0.2-0.2,0.2
		c-0.1,0.1-0.2,0.1-0.3,0.1c-0.1,0-0.2,0-0.3-0.1c-0.1,0-0.2-0.1-0.2-0.2c-0.1-0.1-0.1-0.2-0.1-0.2c0-0.1,0-0.2,0-0.3
		c0-0.1,0-0.3,0.1-0.4c0.1-0.1,0.1-0.2,0.3-0.3l0.2,0.2c-0.1,0-0.2,0.1-0.2,0.2c-0.1,0.1-0.1,0.2-0.1,0.3c0,0.1,0,0.1,0,0.2
		s0,0.1,0.1,0.2c0,0,0.1,0.1,0.1,0.1c0.1,0,0.1,0,0.2,0c0.1,0,0.1,0,0.2-0.1c0.1,0,0.1-0.1,0.1-0.1c0-0.1,0.1-0.1,0.1-0.2
		c0-0.1,0-0.1,0.1-0.2c0-0.1,0.1-0.1,0.1-0.2c0-0.1,0.1-0.1,0.1-0.2c0-0.1,0.1-0.1,0.2-0.1c0.1,0,0.2-0.1,0.3-0.1
		c0.1,0,0.2,0,0.3,0.1c0.1,0,0.2,0.1,0.2,0.2c0.1,0.1,0.1,0.2,0.1,0.2c0,0.1,0,0.2,0,0.3c0,0.1,0,0.2-0.1,0.4c0,0.1-0.1,0.2-0.2,0.3
		L7.4,167.9z"/>
	<path fill="#231F20" d="M5.5,170.2v-0.2h2.1v-0.8h0.2v1.8H7.6v-0.8H5.5z"/>
	<path fill="#231F20" d="M5.7,172.4v1.2H5.5v-1.5h2.3v1.4H7.6v-1.2H6.8v1.1H6.6v-1.1H5.7z"/>
	<path fill="#231F20" d="M5.8,175.6L5.8,175.6l2,0.8v0.3l-2.3-0.9v-0.2l2.3-0.9v0.3L5.8,175.6z"/>
	<path fill="#231F20" d="M5.7,178v1.2H5.5v-1.5h2.3v1.4H7.6V178H6.8v1.1H6.6V178H5.7z"/>
	<path fill="#231F20" d="M5.8,182.2L5.8,182.2l2,0v0.2H5.5v-0.3l2-1.4v0h-2v-0.2h2.3v0.3L5.8,182.2z"/>
	<path fill="#231F20" d="M7.8,185.7v0.2h-1v1.3h1v0.2H5.5v-0.2h1.1v-1.3H5.5v-0.2H7.8z"/>
	<path fill="#231F20" d="M5.7,189.1v1.2H5.5v-1.5h2.3v1.4H7.6v-1.2H6.8v1.1H6.6v-1.1H5.7z"/>
	<path fill="#231F20" d="M5.7,191.9v1.1H5.5v-1.3h2.3v0.2H5.7z"/>
	<path fill="#231F20" d="M5.7,194.4v1.1H5.5v-1.3h2.3v0.2H5.7z"/>
	<path fill="#231F20" d="M5.7,196.8v1.2H5.5v-1.5h2.3v1.4H7.6v-1.2H6.8v1.1H6.6v-1.1H5.7z"/>
	<path fill="#231F20" d="M5.5,199.6v-0.2h2.3v0.7c0,0.2-0.1,0.4-0.2,0.6c-0.1,0.1-0.3,0.2-0.5,0.2c-0.2,0-0.3-0.1-0.4-0.2
		c-0.1-0.1-0.2-0.2-0.2-0.4l-1.1,0.7v-0.3l1.1-0.6v-0.4H5.5z M6.8,199.6v0.4c0,0.1,0,0.2,0,0.3c0,0.1,0.1,0.1,0.1,0.2
		c0,0,0.1,0.1,0.1,0.1c0,0,0.1,0,0.2,0c0.1,0,0.1,0,0.2,0c0,0,0.1-0.1,0.1-0.1s0.1-0.1,0.1-0.2c0-0.1,0-0.2,0-0.3v-0.4H6.8z"/>
	<path fill="#231F20" d="M5.5,203.9v-0.3l2.3,1v0.2l-2.3,1v-0.3l0.6-0.3v-1.2L5.5,203.9z M6.3,204.2v1l1.2-0.5L6.3,204.2z"/>
	<path fill="#231F20" d="M5.8,208.7L5.8,208.7l2,0v0.2H5.5v-0.3l2-1.4v0h-2V207h2.3v0.3L5.8,208.7z"/>
	<path fill="#231F20" d="M7.8,210.4v0.8c0,0.1,0,0.3-0.1,0.4s-0.1,0.3-0.2,0.4c-0.1,0.1-0.2,0.2-0.4,0.3c-0.1,0.1-0.3,0.1-0.5,0.1
		c-0.2,0-0.4,0-0.5-0.1c-0.1-0.1-0.3-0.2-0.4-0.3c-0.1-0.1-0.2-0.2-0.2-0.4c0-0.1-0.1-0.3-0.1-0.4v-0.8H7.8z M5.7,210.6v0.5
		c0,0.2,0,0.3,0.1,0.5c0.1,0.1,0.1,0.2,0.2,0.3c0.1,0.1,0.2,0.1,0.3,0.2c0.1,0,0.2,0.1,0.3,0.1c0.1,0,0.2,0,0.3-0.1
		c0.1,0,0.2-0.1,0.3-0.2c0.1-0.1,0.2-0.2,0.2-0.3c0.1-0.1,0.1-0.3,0.1-0.5v-0.5H5.7z"/>
	<path fill="#231F20" d="M7.8,215.4v0.7c0,0.2-0.1,0.4-0.2,0.6c-0.1,0.1-0.3,0.2-0.5,0.2c-0.2,0-0.4-0.1-0.5-0.2
		c-0.1-0.1-0.2-0.3-0.2-0.6v-0.4H5.5v-0.2H7.8z M6.8,215.6v0.4c0,0.1,0,0.2,0,0.3c0,0.1,0.1,0.1,0.1,0.2c0,0,0.1,0.1,0.1,0.1
		c0,0,0.1,0,0.2,0c0.1,0,0.1,0,0.2,0c0,0,0.1-0.1,0.1-0.1c0,0,0.1-0.1,0.1-0.2s0-0.2,0-0.3v-0.4H6.8z"/>
	<path fill="#231F20" d="M7.8,218.1v0.2h-1v1.3h1v0.2H5.5v-0.2h1.1v-1.3H5.5v-0.2H7.8z"/>
	<path fill="#231F20" d="M5.5,221.6v-0.2h2.3v0.2H5.5z"/>
	<path fill="#231F20" d="M5.7,223.3v1.1H5.5V223h2.3v0.2H5.7z"/>
	<path fill="#231F20" d="M5.5,225.7v-0.2h2.3v0.2H5.5z"/>
	<path fill="#231F20" d="M7.8,227.2v0.7c0,0.2-0.1,0.4-0.2,0.6c-0.1,0.1-0.3,0.2-0.5,0.2c-0.2,0-0.4-0.1-0.5-0.2
		c-0.1-0.1-0.2-0.3-0.2-0.6v-0.4H5.5v-0.2H7.8z M6.8,227.5v0.4c0,0.1,0,0.2,0,0.3c0,0.1,0.1,0.1,0.1,0.2c0,0,0.1,0.1,0.1,0.1
		c0,0,0.1,0,0.2,0c0.1,0,0.1,0,0.2,0c0,0,0.1-0.1,0.1-0.1c0,0,0.1-0.1,0.1-0.2c0-0.1,0-0.2,0-0.3v-0.4H6.8z"/>
	<path fill="#231F20" d="M7.8,231.7v0.7c0,0.1,0,0.2,0,0.3c0,0.1-0.1,0.2-0.1,0.2c0,0.1-0.1,0.1-0.2,0.2c-0.1,0-0.2,0.1-0.3,0.1
		c-0.1,0-0.2,0-0.3-0.1c-0.1-0.1-0.2-0.2-0.2-0.3h0c0,0.2-0.1,0.3-0.2,0.4c-0.1,0.1-0.2,0.1-0.4,0.1c0,0-0.1,0-0.2,0
		c-0.1,0-0.1-0.1-0.2-0.1c-0.1-0.1-0.1-0.1-0.2-0.3c-0.1-0.1-0.1-0.3-0.1-0.4v-0.7H7.8z M6.8,231.9v0.5c0,0.1,0,0.1,0,0.2
		c0,0.1,0,0.1,0.1,0.2c0,0,0.1,0.1,0.1,0.1c0.1,0,0.1,0,0.2,0c0,0,0.1,0,0.1,0c0,0,0.1,0,0.1-0.1c0,0,0.1-0.1,0.1-0.1
		c0-0.1,0-0.2,0-0.3v-0.4H6.8z M5.7,231.9v0.4c0,0.1,0,0.2,0,0.2c0,0.1,0,0.1,0.1,0.2c0,0.1,0.1,0.1,0.1,0.1c0.1,0,0.1,0,0.2,0
		c0.2,0,0.3,0,0.3-0.1c0.1-0.1,0.1-0.2,0.1-0.4v-0.5H5.7z"/>
	<path fill="#231F20" d="M5.6,234.9c0,0-0.1,0-0.1,0c0,0-0.1-0.1-0.1-0.1c0-0.1,0-0.1,0.1-0.1c0,0,0.1,0,0.1,0s0.1,0,0.1,0
		c0,0,0.1,0.1,0.1,0.1c0,0.1,0,0.1-0.1,0.1C5.7,234.9,5.7,234.9,5.6,234.9z"/>
	<path fill="#231F20" d="M5.9,239.2l1.9,0.8v0.4H5.5v-0.2h2v0l-2-0.8v-0.1l2-0.8v0h-2v-0.2h2.3v0.4L5.9,239.2z"/>
	<path fill="#231F20" d="M5.7,242.1v1.2H5.5v-1.5h2.3v1.4H7.6v-1.2H6.8v1.1H6.6v-1.1H5.7z"/>
	<path fill="#231F20" d="M7.4,246.3c0.1-0.1,0.1-0.2,0.2-0.3c0-0.1,0.1-0.2,0.1-0.4c0-0.1,0-0.3-0.1-0.4c-0.1-0.1-0.1-0.2-0.2-0.3
		c-0.1-0.1-0.2-0.1-0.3-0.2c-0.1,0-0.2-0.1-0.4-0.1c-0.1,0-0.3,0-0.4,0.1c-0.1,0-0.2,0.1-0.3,0.2s-0.2,0.2-0.2,0.3
		c-0.1,0.1-0.1,0.2-0.1,0.4c0,0.1,0,0.2,0,0.3c0,0.1,0.1,0.2,0.1,0.3h0.8v-0.6h0.2v0.8H5.7c-0.1-0.1-0.1-0.3-0.2-0.4
		c0-0.2-0.1-0.3-0.1-0.4c0-0.2,0-0.3,0.1-0.5c0.1-0.1,0.1-0.3,0.3-0.4c0.1-0.1,0.2-0.2,0.4-0.3c0.1-0.1,0.3-0.1,0.5-0.1
		c0.2,0,0.3,0,0.5,0.1c0.1,0.1,0.3,0.1,0.4,0.3c0.1,0.1,0.2,0.2,0.3,0.4c0.1,0.1,0.1,0.3,0.1,0.5c0,0.2,0,0.3-0.1,0.5
		c-0.1,0.1-0.1,0.3-0.2,0.4L7.4,246.3z"/>
	<path fill="#231F20" d="M7.4,249.7c0.1-0.1,0.1-0.2,0.2-0.3c0-0.1,0.1-0.2,0.1-0.4c0-0.1,0-0.3-0.1-0.4c-0.1-0.1-0.1-0.2-0.2-0.3
		c-0.1-0.1-0.2-0.1-0.3-0.2c-0.1,0-0.2-0.1-0.4-0.1c-0.1,0-0.3,0-0.4,0.1c-0.1,0-0.2,0.1-0.3,0.2s-0.2,0.2-0.2,0.3
		c-0.1,0.1-0.1,0.3-0.1,0.4c0,0.1,0,0.2,0,0.3c0,0.1,0.1,0.2,0.1,0.3h0.8v-0.6h0.2v0.8H5.7c-0.1-0.1-0.1-0.3-0.2-0.4
		c0-0.2-0.1-0.3-0.1-0.4c0-0.2,0-0.3,0.1-0.5c0.1-0.1,0.1-0.3,0.3-0.4c0.1-0.1,0.2-0.2,0.4-0.3c0.1-0.1,0.3-0.1,0.5-0.1
		c0.2,0,0.3,0,0.5,0.1c0.1,0.1,0.3,0.1,0.4,0.3c0.1,0.1,0.2,0.2,0.3,0.4c0.1,0.1,0.1,0.3,0.1,0.5c0,0.2,0,0.3-0.1,0.5
		c-0.1,0.1-0.1,0.3-0.2,0.4L7.4,249.7z"/>
	<path fill="#231F20" d="M7.4,252.5c0.1-0.1,0.2-0.3,0.2-0.4c0-0.1,0-0.1,0-0.2c0-0.1,0-0.1-0.1-0.2s-0.1-0.1-0.1-0.1
		c-0.1,0-0.1,0-0.2,0c-0.1,0-0.2,0-0.2,0.1c-0.1,0.1-0.1,0.1-0.1,0.2c0,0.1-0.1,0.2-0.1,0.3c0,0.1-0.1,0.2-0.1,0.3
		c0,0.1-0.1,0.2-0.2,0.2c-0.1,0.1-0.2,0.1-0.3,0.1c-0.1,0-0.2,0-0.3-0.1c-0.1,0-0.2-0.1-0.2-0.2c-0.1-0.1-0.1-0.2-0.1-0.2
		c0-0.1,0-0.2,0-0.3c0-0.1,0-0.3,0.1-0.4c0.1-0.1,0.1-0.2,0.3-0.3l0.2,0.2c-0.1,0-0.2,0.1-0.2,0.2c-0.1,0.1-0.1,0.2-0.1,0.3
		c0,0.1,0,0.1,0,0.2s0,0.1,0.1,0.2c0,0,0.1,0.1,0.1,0.1c0.1,0,0.1,0,0.2,0c0.1,0,0.1,0,0.2-0.1c0.1,0,0.1-0.1,0.1-0.1
		c0-0.1,0.1-0.1,0.1-0.2c0-0.1,0-0.1,0.1-0.2c0-0.1,0.1-0.1,0.1-0.2c0-0.1,0.1-0.1,0.1-0.2c0-0.1,0.1-0.1,0.2-0.1
		c0.1,0,0.2-0.1,0.3-0.1c0.1,0,0.2,0,0.3,0.1s0.2,0.1,0.2,0.2c0.1,0.1,0.1,0.2,0.1,0.2c0,0.1,0,0.2,0,0.3c0,0.1,0,0.2-0.1,0.4
		c0,0.1-0.1,0.2-0.2,0.3L7.4,252.5z"/>
</g>
<g>
	<path fill="#FFFFFF" d="M13.6,54.7c0-0.1-0.1-0.2-0.2-0.2c-0.1,0-0.3,0-0.3,0c-0.1-0.2-0.2-0.1-0.3-0.1c-0.3,0-0.5,0-0.8,0.1
		c0.1-0.2-0.1-0.2-0.2-0.3c-0.1-0.1-0.2-0.3-0.4-0.2c-0.2,0-0.3,0-0.3-0.2c0,0,0-0.1-0.1-0.1c-0.1-0.1-0.2-0.2-0.3-0.3
		c-0.2-0.1-0.3-0.1-0.5-0.2c0,0,0,0,0,0c-0.1,0.2-0.3,0.1-0.5,0.2c-0.1,0-0.1,0-0.2,0.1c-0.1,0-0.2,0.1-0.3,0.1
		c-0.2,0.1-0.5-0.1-0.6,0.2C8.3,54,8.1,54,7.9,54c0,0-0.1,0-0.1,0.1c-0.1,0-0.1,0.1-0.2,0.1c-0.1,0-0.1,0.1-0.2,0.1
		c-0.2,0.1-0.3,0.3-0.5,0.3c-0.1,0-0.3,0-0.4,0c0,0-0.1,0-0.1,0c0,0.2-0.1,0.1-0.2,0.1c-0.1,0-0.3,0-0.4,0.1c-0.1,0-0.2,0.2-0.3,0.2
		c0,0-0.1,0.1-0.1,0.1c-0.3,0.1-0.1,0.3-0.1,0.4c0,0.2,0.2,0.1,0.3,0.1c0.1,0,0.2,0,0.3,0.1c0.1,0.1,0.2,0.2,0.3,0.3
		C6.1,56.5,6,56.7,6,57c0,0.2,0.2,0.4,0.4,0.4c0.2,0,0.4,0,0.6-0.1c0,0,0.1,0,0.1,0.1c0,0,0,0.1-0.1,0.1c-0.1,0.1-0.2,0.2-0.3,0.2
		c0,0,0,0.1,0.1,0.2C6.9,58,7,58,7,58c0,0.2,0.2,0.5-0.1,0.6c0,0,0,0.1,0,0.1c0,0.2,0,0.3,0,0.5c0.1,0.2,0.2,0.3,0.3,0.5
		c0,0,0,0,0.1,0c0.2,0,0.3,0.1,0.3,0.2c0,0,0,0.1,0,0.1c0.2,0,0.2,0.2,0.2,0.4c0,0,0.1,0,0.1,0c0.4-0.1,0.7,0,1.1,0.1c0,0,0,0,0.1,0
		c0,0.2,0.2,0.1,0.3,0.1c0.1,0,0.2,0,0.3,0c0.1,0,0.2,0.1,0.3,0.1c0.3,0,0.5,0,0.7,0.3c0,0.1,0.2,0.2,0.2,0.2c0.2,0,0.4,0,0.6-0.1
		c0.1,0,0-0.3,0-0.4c0,0,0,0,0-0.1c0.1-0.1,0.3-0.1,0.5-0.2c0,0,0,0,0,0c0.1-0.2,0.3-0.4,0.5-0.4c0-0.1,0-0.2,0-0.3
		c0.1,0,0.3,0,0.3-0.1c0.1-0.2,0.3-0.4,0.5-0.4c0-0.1,0-0.2,0-0.2c0-0.1,0.1-0.1,0.1-0.2c0,0,0-0.1,0-0.1c0-0.4-0.1-0.7,0-1.1
		c0-0.2-0.2-0.3-0.3-0.4c-0.1-0.1-0.3-0.2-0.3-0.5c0-0.1,0-0.1,0-0.2c-0.1,0-0.2,0-0.4,0c-0.2,0-0.4,0.1-0.5,0
		c-0.1-0.1-0.3-0.1-0.4-0.1c-0.1,0-0.2,0-0.2-0.2c0-0.1,0-0.1-0.1-0.2c-0.2-0.1-0.3-0.2-0.3-0.5c0-0.1,0-0.2,0-0.3
		c0-0.3-0.1-0.5,0.1-0.7c0.1-0.1,0.2-0.3,0.3-0.3c0.2,0,0.4-0.2,0.6,0.1c0,0,0.1,0,0.2,0c0,0.2-0.1,0.3,0.2,0.4c0,0,0,0.1,0,0.1
		c0.1,0.4,0.4,0.6,0.8,0.5c0.1,0,0.2-0.1,0.2-0.2c0-0.2,0-0.4,0-0.6C13.3,54.7,13.5,54.7,13.6,54.7c0,0.1,0,0.2,0.1,0.3
		c0.1,0,0.1,0,0.1,0c0.2,0,0.2-0.1,0.2-0.2c0-0.2-0.1-0.1-0.2-0.1C13.7,54.7,13.7,54.7,13.6,54.7z M11.6,44.1c0-0.1,0.2-0.4,0.3-0.4
		c0.1,0,0.2,0,0.3,0c0,0,0.1-0.1,0.1-0.1c-0.1-0.1-0.2-0.2-0.3-0.2c-0.1,0-0.2,0.1-0.4,0.2c0,0,0,0.1,0,0.2c0,0,0,0.1-0.1,0.1
		c0,0.1-0.1,0.1-0.1,0.2c-0.2,0-0.5,0.1-0.7,0c0-0.1,0.3-0.2,0-0.3c-0.2,0-0.3-0.1-0.2-0.3c0.1-0.3-0.3-0.5-0.3-0.8c0,0-0.1,0-0.2,0
		c-0.1,0-0.1,0-0.2-0.1c-0.1,0-0.1-0.1-0.2-0.1c0,0,0,0,0,0.1c0,0.1-0.1,0.3,0.2,0.4c0,0,0,0.1,0,0.1c0,0.4,0.1,0.7,0.1,1.1
		c-0.1,0-0.2,0.1-0.3,0.1c0,0.2,0,0.5,0,0.7c-0.1,0-0.1,0-0.1,0c0,0-0.1,0-0.1,0c0,0.3,0,0.3-0.3,0.4c0,0-0.1,0-0.1,0
		c0,0.1-0.1,0.1-0.2,0.1c-0.1,0-0.2,0-0.3,0.1c0,0.1,0,0.2,0,0.3c-0.1,0-0.3,0.1-0.3,0.1c0,0.1-0.1,0.1-0.2,0.2c0,0-0.1,0-0.1,0.1
		c-0.1,0-0.1,0.1-0.2,0.1c-0.2,0-0.3-0.1-0.5-0.1c-0.3-0.1-0.6-0.1-1-0.2c-0.1,0-0.1,0-0.2,0c0-0.1,0-0.2-0.1-0.3c0,0-0.1,0-0.1,0
		c-0.1,0-0.2,0-0.2-0.1c0-0.1-0.1-0.3,0-0.4c0.2-0.2,0.1-0.5,0.3-0.6c0.1-0.1,0.2-0.2,0.4-0.2c0.2-0.1,0.4-0.1,0.7-0.1
		c0.2,0,0.4,0,0.6,0c-0.1-0.3,0.1-0.6-0.2-0.8c0-0.1,0-0.2,0-0.2c0-0.1,0-0.2-0.1-0.2C7,43.1,6.9,43,6.8,42.9
		c-0.1-0.2-0.3-0.1-0.4,0c-0.1,0.1-0.2,0.2-0.2,0.3c-0.1,0.1-0.2,0.2-0.3,0.3c-0.1,0.2-0.3,0.3-0.5,0.3c-0.2,0-0.4,0-0.6,0
		c0,0-0.1,0-0.1,0.1c0,0,0,0.1,0.1,0.1c0.1,0.1,0.2,0.5,0.1,0.5c-0.2,0.1-0.1,0.4-0.3,0.6c0,0-0.1,0.1-0.1,0.1c0,0.2-0.1,0.4,0,0.6
		c0.1,0.1,0.2,0.3,0.2,0.4c0,0,0,0,0,0c0.1,0.1,0.1,0.1,0.2,0.2c0,0,0,0.1,0.1,0.1c0.2,0.1,0.3,0.2,0.3,0.4c0,0.2,0.1,0.4,0.3,0.4
		c0.2,0.1,0.1,0.1,0,0.2c0,0,0,0.1-0.1,0.1c0,0,0.1,0,0.1,0c0.1,0,0.2-0.1,0.2-0.1c0,0,0.1,0,0.1-0.1c0-0.2,0.2-0.2,0.3-0.2
		c0.1,0,0.2,0,0.2-0.1c0.2-0.2,0.4-0.2,0.6,0c0,0,0.1,0,0.1,0c0.2,0,0.3,0.2,0.6,0.2c0,0,0,0,0,0c0.2,0.3,0.4,0.3,0.7,0.3
		c0.1,0.1,0.2,0.1,0.2,0.1c0-0.1,0.1-0.1,0.1-0.2c0-0.1,0-0.2,0-0.3c0-0.3,0.1-0.5,0.4-0.6c0,0,0.1,0,0.1,0c0-0.2,0.1-0.1,0.2-0.1
		c0.1,0,0.2,0,0.3,0c0-0.2,0-0.5,0-0.7c0-0.1,0-0.2,0.1-0.2c0.1,0,0.2-0.2,0.2-0.3c0-0.3,0-0.6,0.2-0.8c0.1,0,0.3,0,0.5,0
		c0,0.1,0,0.2,0,0.2c0,0.1,0,0.2,0.1,0.2c0.1,0.1,0.2,0.2,0.2,0.3c0,0,0,0,0,0c0.1,0.1,0.2,0.1,0.3,0.2c0,0,0-0.1,0.1-0.1
		c0.1,0,0.1,0,0.2,0c0.1,0,0.1,0.1,0.2,0.2c0,0.1,0,0.2,0,0.2c-0.2,0.1-0.1,0.3-0.1,0.5c0,0.1,0,0.2,0,0.2c-0.2,0.1-0.1,0.3-0.1,0.4
		c0.2,0.1,0.4,0,0.6,0.1c0.2,0.2,0.5,0.1,0.7-0.2c0.1-0.1,0.1-0.2,0.1-0.3c0-0.2,0-0.3,0-0.5c0.1-0.1,0.2-0.2,0.3-0.3
		c0.1-0.1,0.2-0.3,0.4-0.4c0,0,0-0.1,0-0.1c0-0.1-0.1-0.1-0.1-0.1c-0.2-0.1-0.2-0.3-0.5-0.2c-0.2,0.1-0.5,0.1-0.5,0
		c-0.1-0.2-0.3-0.1-0.5-0.1c0-0.2,0-0.5,0-0.7C11.7,44.1,11.7,44.1,11.6,44.1z M12,83c0-0.2,0-0.4,0-0.5c0.2-0.1,0.1-0.3,0.2-0.4
		c0.2,0,0.4,0,0.6-0.1c0.2,0,0.3,0.1,0.4,0.2c0.1,0.2,0.2,0.4,0.3,0.7c0.1,0,0.3,0,0.3-0.1c0.1-0.2,0.2-0.1,0.3-0.1
		c0.2,0,0.4,0,0.5,0c0,0,0.1,0,0.1,0c0,0,0.1,0.1,0.1,0.1c0-0.1,0.1-0.1,0.1-0.2c0-0.4,0-0.7-0.1-1.1c0-0.1,0.1-0.1,0.1-0.2
		c0,0,0.1-0.1,0.1-0.1c0,0-0.1-0.1-0.1-0.1c0,0,0,0,0,0c-0.1-0.1-0.2-0.2-0.3-0.3c0,0-0.1-0.1-0.1-0.1c0,0-0.1,0.1-0.1,0.1
		c0,0.1,0,0.2,0,0.2c-0.3,0.2-0.6,0.3-1,0.3c-0.4,0-0.8,0.1-1.1,0.1c-0.1,0.2-0.2,0.4-0.3,0.5c-0.1,0.1-0.2,0.3-0.4,0.4
		c-0.3,0-0.6,0-0.9,0.1c-0.1,0-0.2,0.1-0.3,0.1c0,0,0,0,0,0.1c-0.1,0-0.2,0-0.3,0c-0.2,0-0.4,0-0.4,0.3c0,0,0,0,0,0.1
		c-0.1,0.1-0.1,0.1-0.2,0.2c-0.3,0-0.3,0-0.3,0.4c0,0.2,0,0.4,0,0.5c-0.1,0-0.1,0-0.2,0c-0.1,0-0.1,0-0.2,0.1
		c-0.1,0.1-0.5,0.2-0.5,0.1c-0.1-0.2-0.2-0.1-0.3-0.2c0,0-0.1,0-0.1-0.1c-0.1-0.1-0.3-0.3-0.5-0.2c-0.1,0-0.1,0-0.2,0
		c-0.1-0.1-0.2-0.3-0.3-0.5c-0.3,0-0.3-0.1-0.5-0.3c-0.2-0.2-0.1-0.4-0.2-0.5c0.3-0.1,0.2-0.3,0.2-0.4c0-0.1-0.1-0.2-0.1-0.2
		c-0.1,0-0.1-0.1-0.1-0.2c0,0-0.1,0-0.2-0.1c0,0.2-0.2,0.1-0.3,0.1c-0.1,0-0.2,0-0.3,0.1c0,0.2-0.1,0.1-0.2,0.1
		c-0.1,0-0.2,0-0.3,0.1c0,0.2,0,0.4,0,0.7c-0.1,0-0.2,0-0.4,0c-0.1,0-0.1,0-0.2,0.1c-0.1,0-0.1,0.1-0.2,0.1c-0.2,0-0.4,0-0.6,0.1
		c0,0-0.1,0.1-0.1,0.1c0.2,0,0.2,0.3,0.4,0.2c0.1,0,0.1,0.1,0.2,0.1c0,0,0.1,0.1,0.2,0.1c0.3,0,0.4,0.2,0.4,0.5c0,0.1,0,0.1,0,0.2
		c0.2,0,0.3,0,0.4,0c0.1,0,0.2,0,0.2,0c0.2,0.2,0.4,0.3,0.7,0.3c0,0,0.1,0,0.1,0c0,0.2,0.1,0.1,0.2,0.1c0.2,0,0.4,0,0.6,0
		c0,0,0.1,0,0.1,0c0,0.2,0.2,0.1,0.3,0.1c0.3,0,0.4,0.1,0.5,0.4c0,0.1,0,0.2,0,0.2c0,0.1,0.1,0.2,0.2,0.2c0.1,0,0.2,0.1,0.2,0.1
		c0,0.2,0.1,0.2,0.3,0.2c0.1,0,0.2,0,0.3,0.1c0.1,0,0.1,0.1,0.2,0.1c0.1,0,0.1,0.1,0.2,0.1c0.1,0.1,0.2,0.2,0.5,0.2
		c0.4-0.1,0.7-0.1,1.1-0.1c0,0,0.1-0.1,0.1-0.1c0.1,0,0.2-0.1,0.2,0c0.1,0.1,0.1,0.2,0.2,0.3c0.1,0.1,0.2,0.3,0.4,0.2
		c0.1,0,0.2,0,0.3,0c0.1,0.2,0.3,0.3,0.5,0.3c0,0,0.1,0,0.1,0c0.1,0,0.1,0.1,0.2,0.1c0.2,0.1,0.4-0.1,0.6,0.1
		c0.1,0.1,0.4,0.1,0.6,0.2c0,0,0,0.1,0,0.1c0,0.2,0.1,0.2,0.3,0.2c0.1,0,0.3-0.1,0.3,0.1c0,0,0.1,0,0.1,0c0.1,0,0.3,0,0.5,0
		c0-0.2,0-0.4,0-0.6c0,0,0-0.1-0.1-0.1c0-0.1-0.1-0.1-0.1-0.2c0-0.1,0-0.3,0-0.4c0,0,0-0.1-0.1-0.1c-0.2,0-0.1-0.1-0.1-0.2
		c0-0.1,0-0.2,0-0.3c-0.2,0-0.3,0-0.4,0c0,0-0.1,0-0.1,0c-0.1,0-0.1-0.1-0.2-0.1c0,0-0.1,0-0.1,0c0-0.2-0.1-0.1-0.3-0.1
		c0,0-0.1,0-0.1,0c-0.1-0.2-0.3-0.3-0.5-0.2c-0.2,0-0.3,0-0.5,0c-0.1,0-0.1,0-0.1,0c0-0.2-0.1-0.1-0.2-0.1c-0.1,0-0.1,0-0.2,0
		c-0.1-0.2-0.2-0.1-0.3-0.1c-0.1,0-0.2,0-0.3,0c-0.3,0-0.3,0-0.3-0.3c0-0.2,0.1-0.4,0-0.6c-0.1-0.1,0-0.3-0.2-0.4c0,0,0-0.1,0-0.1
		c0-0.2,0-0.5-0.1-0.8C11.2,83,11.6,83,12,83c0,0.1,0,0.2,0.1,0.3c0,0,0,0.1,0.1,0.1c0,0,0.1,0,0.1,0C12.2,83.1,12.1,83,12,83z
		 M11.5,102.2C11.5,102.2,11.5,102.2,11.5,102.2c0.1-0.1,0.2-0.1,0.3-0.2c0,0,0,0,0-0.1c0-0.1,0-0.2,0.1-0.3c0.1,0,0.1,0.1,0.2,0.1
		c0,0,0.1,0,0.1-0.1c0-0.1,0-0.2,0-0.3c0.1,0,0.2,0,0.3-0.1c0.1,0,0-0.2,0.2-0.1c0,0.3,0,0.6,0.1,0.8c0,0.2,0,0.2-0.2,0.2
		c0,0-0.1,0-0.1,0c-0.1,0.2-0.3,0.3-0.2,0.5c0,0.1,0,0.3,0,0.4c0,0.1,0,0.1-0.1,0.2c-0.2,0.1-0.1,0.3-0.1,0.4c0,0,0.1,0.1,0.2,0.1
		c0.5,0,0.9-0.1,1.4-0.1c0.1-0.1,0.1-0.2,0.2-0.2c0.1,0,0.4-0.1,0.4,0.2c0.1-0.1,0.2-0.1,0.3-0.2c0,0.1,0.1,0.2,0.1,0.3
		c-0.1,0.1-0.2,0.2-0.2,0.3c-0.2,0-0.4,0-0.7,0.1c-0.1,0-0.1,0.1-0.2,0.1c-0.2,0.1-0.1,0.3-0.1,0.5c0,0,0,0.1,0,0.1
		c-0.1,0.1-0.3,0.3-0.4,0.4c0,0,0,0.1,0,0.2c0.1,0,0.2,0,0.2,0c0-0.2,0.2-0.1,0.3-0.2c0.1,0,0.3,0,0.2-0.2c0.2,0,0.3,0,0.4,0
		c0.1-0.1,0.2-0.2,0.3-0.3c0,0,0.1,0,0.1,0c0.1,0,0.1,0.1,0.2,0.1c0.1,0,0.3,0,0.4,0c0,0.1,0,0.2,0.1,0.3c0.1,0,0.2,0.1,0.3,0.1
		c0.1,0,0.1,0.1,0.2,0.1c0.1,0,0.3,0,0.4,0c0.2,0,0.4,0,0.6-0.1c0.1-0.3,0-0.4-0.2-0.5c-0.1-0.1-0.3,0-0.5,0c0,0,0,0,0-0.1
		c0-0.2,0-0.4,0-0.6c0-0.2,0-0.2,0.2-0.2c0.3,0,0.4-0.2,0.5-0.4c0-0.1,0.1-0.1,0.1-0.2c0.1-0.1,0.1-0.4,0-0.4
		c-0.1,0-0.1-0.1-0.1-0.2c0-0.1,0-0.2,0-0.3c-0.1,0-0.2,0-0.4,0c0-0.2-0.1-0.4,0.1-0.5c0,0,0,0,0-0.1c0-0.4,0-0.7-0.1-1.1
		c0-0.2-0.2-0.4-0.3-0.6c-0.1-0.1-0.2-0.3-0.4-0.4c-0.2-0.2-0.3-0.5-0.7-0.5c0,0-0.1,0-0.1-0.1c-0.1-0.2-0.3-0.3-0.5-0.3
		c-0.1,0-0.3,0-0.4,0c-0.1,0-0.1,0-0.2-0.1c0,0,0.1-0.1,0.1-0.1c0,0,0-0.1,0.1-0.1c-0.2,0-0.4,0-0.5,0c-0.1-0.2-0.1-0.2-0.4-0.2
		c-0.1,0-0.2,0.1-0.2,0.1c-0.2,0.1-0.4,0.1-0.6,0.1c-0.1,0-0.2,0.1-0.2,0.1c-0.1,0.1-0.3,0.1-0.4,0c0,0-0.1,0-0.1,0
		c-0.1,0.2-0.3,0.4-0.5,0.4c0,0-0.1,0-0.1,0c-0.1,0.2-0.5,0.3-0.4,0.7c-0.4-0.1-0.7,0.1-1,0.2c-0.1,0.1-0.2,0.3-0.2,0.3
		c0.1,0.1,0.3,0.3,0.4,0.4c0,0,0.1,0.1,0.1,0.1c0,0.1,0,0.2,0,0.4c-0.1,0-0.2,0-0.3,0.1c0,0.1,0,0.3,0,0.3c-0.2,0.1-0.1,0.3-0.1,0.4
		c-0.1,0-0.2,0.1-0.1,0.2c0.2,0.2,0.4,0.2,0.6,0.2c0.3-0.1,0.6,0,1-0.1c-0.1,0.3-0.1,0.6-0.2,0.8c0,0,0,0,0,0
		c-0.2,0-0.1,0.1-0.1,0.2c0,0.1,0,0.3,0.1,0.4c0,0-0.1,0-0.1,0c-0.3-0.1-0.3,0.1-0.4,0.3c0,0,0,0.1,0,0.1c0,0,0.1,0.1,0.1,0.1
		c0,0,0.1,0.1,0.1,0.1c0-0.1,0.1-0.1,0.1-0.2c0-0.1,0-0.2,0.1-0.2c0,0,0-0.1,0-0.2c0.1-0.1,0.2-0.2,0.4-0.2c0.2,0,0.3,0,0.5-0.1
		c0-0.1,0-0.2,0-0.3c0-0.1,0-0.2,0-0.2c0.2-0.1,0.1-0.2,0.1-0.4c-0.1,0-0.3-0.1-0.2-0.1C11.6,102.5,11.5,102.4,11.5,102.2z
		 M6.2,89.7c-0.3,0-0.4-0.1-0.6-0.3c-0.1,0-0.3,0-0.5,0c-0.1,0-0.2,0.2-0.3,0.3c0,0,0,0.1,0,0.1C5,89.8,5,90,5,90.1
		c0,0,0,0.1,0.1,0.1c0,0.1,0.1,0.1,0.1,0.2c0,0.1,0,0.2,0,0.3c0,0.1,0.1,0.2,0.1,0.2c0.1,0,0.2,0,0.3-0.1c0.1,0,0.2-0.1,0.3-0.1
		c0.3-0.1,0.5,0.2,0.8,0.1c0,0.2,0,0.3,0,0.5c0.1,0,0.2,0,0.3,0c0,0.1,0,0.2,0,0.3c0.1,0,0.2,0,0.3,0c0.1,0.1,0.2,0.1,0.2,0.2
		C7.8,92,7.9,91.9,8,91.9c0.1,0,0.1,0,0.2,0c0.1,0,0.2,0.1,0.3,0.1c0.1,0,0.2-0.1,0.3-0.2c0.1,0,0.1-0.1,0.2-0.1c0.1,0,0.1,0,0.2,0
		c0.1,0,0.1,0.1,0.1,0.1c0,0.2,0.1,0.4,0,0.5c-0.1,0.2-0.3,0.3-0.2,0.5c0,0.1,0,0.2,0,0.2c0,0.2,0,0.3-0.1,0.5
		c-0.1,0.1-0.2,0.4,0.1,0.5c0.2,0.1,0.3,0.2,0.4,0.4c0,0.1-0.1,0.3,0.2,0.3c0,0.3,0,0.6,0.1,0.9c-0.1,0-0.2,0-0.4,0
		c0.1,0.2,0.2,0.3,0.3,0.5c0.2,0.1,0.5,0.1,0.7,0.2c0,0,0,0.1-0.1,0.1c0.1,0.1,0.2,0.2,0.2,0.4c0.1,0.2,0,0.3,0.2,0.5
		c0.1,0.1,0.2,0.2,0.4,0.3c0.1,0,0.1,0,0.2,0.1c0.1,0.1,0.5,0,0.5,0c0.2-0.2,0.2-0.5,0.6-0.5c0,0,0-0.1,0.1-0.1c0,0,0.1-0.1,0.1-0.1
		c0.1,0,0.3,0,0.4,0c0,0.2,0.1,0.3,0.1,0.5c0.3,0,0.6,0,0.8,0c0-0.1,0-0.2,0.1-0.2c0.2-0.1,0.3-0.4,0.6-0.4c0,0,0.1,0,0.1-0.1
		c0.1-0.1,0.2-0.2,0.2-0.4c0,0,0.1-0.1,0.1-0.1c0.2,0,0.3-0.3,0.5-0.2c0,0,0,0,0,0c0-0.2,0.1-0.1,0.2-0.2c0.1,0,0.2-0.1,0.1-0.2
		c-0.2-0.1-0.1-0.2-0.1-0.3c0-0.1,0-0.3-0.2-0.3c0-0.2,0-0.4-0.1-0.7c0,0,0-0.1,0-0.1c0.2-0.1,0.1-0.2,0.1-0.3c0,0,0.1-0.1,0.1-0.1
		c0,0,0.1-0.1,0.1-0.1c0-0.2-0.1-0.4-0.4-0.5c0.1-0.2-0.1-0.4,0.1-0.5c0.1,0,0-0.3-0.1-0.3c-0.1-0.1-0.1-0.4-0.1-0.5
		c0.1,0,0.1-0.1,0.2-0.2c0.1-0.1,0.2-0.1,0.3-0.2c0.2-0.1,0.2-0.2,0.2-0.3c0,0,0-0.1,0.1-0.1c0.1-0.1,0.1-0.4,0-0.4
		c-0.2,0-0.1-0.3-0.2-0.4c-0.2,0-0.4,0-0.7,0c-0.1,0-0.2-0.1-0.2-0.1c0-0.1,0-0.3,0-0.4c0,0,0.1-0.1,0.1-0.1c0,0-0.1,0-0.1-0.1
		c-0.2-0.1-0.5-0.1-0.7-0.2c0,0-0.1-0.1-0.1-0.1c0-0.1,0-0.1,0-0.2c-0.1,0-0.1,0-0.2,0c-0.1,0-0.3-0.1-0.4,0.2
		c0,0.1-0.1,0.2-0.2,0.2c0,0-0.2,0-0.3,0c-0.1,0.2,0.1,0.2,0.1,0.2c0,0.1-0.1,0.2-0.1,0.2c0,0,0,0,0,0c-0.1,0-0.1,0.1-0.2,0.1
		c-0.1,0-0.2,0-0.2-0.1c-0.1-0.2-0.2-0.4-0.3-0.6c-0.2,0-0.4-0.1-0.5,0.2c0,0-0.1,0-0.1,0c-0.1,0-0.3,0-0.4,0c0,0-0.1,0-0.1,0
		c0-0.2-0.2-0.1-0.3-0.1c-0.5,0-1.1,0.1-1.6,0.1c0,0-0.1,0-0.1,0.1c-0.1,0-0.1,0.1-0.1,0.1c-0.1,0.1-0.4,0-0.4,0.2c0,0-0.1,0-0.1,0
		c-0.3,0-0.6,0-0.8,0.1c-0.1,0-0.2,0.1-0.3,0.1c0,0,0,0.1,0,0.1c-0.2-0.1-0.4,0.1-0.5-0.1c0,0-0.1,0-0.1,0c-0.2,0-0.4,0.1-0.5,0
		C6.3,90.1,6.3,89.9,6.2,89.7z M7.1,67.9c-0.1,0.2,0.1,0.4-0.1,0.6c-0.1,0.1-0.2,0.2-0.2,0.3c-0.1,0.1-0.2,0.2-0.3,0.3
		c0,0,0,0.1,0.1,0.2c0.1,0.1,0.2,0.2,0.3,0.2c0.1,0.1,0.5,0.1,0.6,0c0-0.2,0.2-0.1,0.2-0.2c0,0,0.1-0.1,0.1-0.1c0,0,0.1-0.1,0.1-0.1
		c0.2,0,0.5,0,0.7,0c0.1,0,0.1,0,0.2,0c0.1,0,0.2,0.1,0.3,0.1c0.5,0,1,0,1.5-0.1c0.3,0,0.5-0.3,0.8-0.3c0.1,0,0.1-0.1,0.1-0.1
		c0.2,0,0.5,0,0.7-0.1c0.1,0.3,0.3,0.4,0.8,0.3c0-0.1,0-0.1,0-0.2c0.2-0.1,0.1-0.2,0.1-0.3c0-0.1,0-0.2,0-0.2
		c0.2-0.1,0.4-0.4,0.6-0.2c0.1,0.1,0.1,0.3,0.1,0.3c0.2,0,0.4,0,0.6,0c0.2-0.1,0.3-0.2,0.2-0.4c0.2-0.1,0.3-0.2,0.5-0.3
		c0-0.2,0-0.5-0.1-0.7c-0.2,0-0.4,0-0.4-0.2c0,0-0.1-0.1-0.1-0.1c-0.1,0-0.2,0-0.3,0.1c-0.1,0.1-0.2,0.3-0.3,0.3
		c-0.2,0.1-0.4,0-0.6,0c0-0.1,0-0.2,0-0.3c0-0.1,0-0.1,0-0.2c-0.1-0.1-0.3-0.2-0.4-0.3c0,0-0.1-0.1-0.1-0.1c0-0.1,0-0.2,0-0.3
		c0.1-0.1,0.1-0.2,0.2-0.2c-0.1,0-0.1,0-0.2-0.1c-0.1,0-0.2-0.1-0.2-0.1c0-0.3,0-0.5-0.1-0.8c0.1,0,0.3,0,0.3,0
		c0.1,0.1,0.2,0.1,0.3,0.1c0.2,0,0.4,0,0.7,0c0.1,0,0.1,0,0.2-0.1c0.1,0,0.1-0.1,0.2-0.1c0.2,0,0.5,0,0.7-0.1c0-0.6-0.1-1.1-0.1-1.6
		c-0.3,0-0.4,0-0.6,0.3C14.2,63,14,62.9,14,63.1c0,0.1,0,0.3,0,0.3c-0.1,0.1-0.1,0.2-0.2,0.2c-0.2,0-0.4,0.1-0.5,0
		c-0.1-0.1-0.3-0.2-0.2-0.4c0,0-0.1,0-0.1-0.1c-0.1-0.1-0.1-0.4,0-0.5c0,0,0.1-0.1,0.1-0.1c-0.1,0-0.1-0.1-0.2-0.1
		c-0.5,0-0.9,0.1-1.4,0.1c-0.1,0-0.1,0.1-0.2,0.1c-0.1,0-0.2-0.1-0.3-0.1c-0.5,0-1,0.1-1.5,0.1c-0.1,0-0.1,0-0.1,0.1
		c-0.1,0-0.1,0.1-0.2,0.1c-0.4,0-0.7,0.1-1.1,0.1c-0.1,0-0.1,0-0.2,0.1c-0.1,0-0.1,0.1-0.2,0.1c-0.2,0-0.2,0.1-0.2,0.2
		c0,0,0,0.1,0,0.2c-0.1,0-0.3,0-0.4,0c-0.1,0-0.1,0.2-0.2,0.4c0,0-0.1,0.1-0.1,0.1c0,0.3,0,0.5,0.1,0.8c0.7,0,1.4-0.1,2.1-0.1
		c0.1,0,0.1,0,0.2,0c0.1,0,0.2,0.1,0.2,0.1c0.3-0.1,0.5,0,0.8-0.2c0.2-0.1,0.5-0.1,0.7-0.1c0,0,0.1,0,0.1,0c0.1,0.2,0.3,0.3,0.5,0.3
		c0.1,0.2,0.3,0.3,0.3,0.4c0.1,0.3,0.1,0.7,0.1,1c-0.3,0-0.5,0.1-0.7,0.3c-0.1,0.2-0.4,0.3-0.3,0.7c-0.1,0-0.2,0.1-0.3,0.1
		c-0.6,0-1.2,0.1-1.8,0.1c-0.2,0-0.4,0.1-0.5-0.1c0,0,0,0-0.1,0c-0.5,0-1,0.1-1.5,0.1C6.9,67.7,6.8,67.9,7.1,67.9z M9.9,37.5
		c-0.4,0-0.7,0.1-1,0c-0.2,0-0.3-0.2-0.5-0.2c0,0,0,0,0-0.1C8.3,37.3,8.2,37,8,37.1c0,0-0.1,0-0.1,0C7.8,36.8,7.6,37,7.4,37
		c-0.1,0-0.2,0.1-0.1,0.2c0,0.2,0,0.5,0,0.7c0,0-0.1,0-0.1,0.1c0,0.2-0.2,0.2-0.3,0.2c-0.1,0-0.2,0-0.3,0c-0.1,0-0.3,0.1-0.3-0.1
		c0,0-0.1,0-0.1,0c0,0-0.1,0.1-0.1,0.1c0,0.1,0,0.1,0,0.2c0,0.2,0.1,0.5-0.1,0.7c-0.2,0.2-0.3,0.5-0.6,0.6c-0.1,0-0.2,0.2-0.4,0.2
		c0,0,0,0,0,0c-0.1,0.1-0.2,0.2-0.3,0.4c0,0,0,0.1,0,0.2c-0.3,0.3-0.6,0.5-0.5,1c-0.1,0-0.2,0-0.4,0.1c0,0.2,0,0.5,0.1,0.7
		c0,0.3,0.2,0.4,0.5,0.4c0.1,0,0.1,0,0.2,0c0.2,0.3,0.4,0.1,0.5,0.1c0-0.1,0.1-0.1,0.1-0.2c0.1-0.1,0.1-0.1,0.2-0.2
		C5.6,42,5.3,42.1,5.3,42c0,0,0-0.1,0-0.2c0.2,0,0.4,0,0.6,0c0.1,0,0.1,0.1,0.2,0.1c0,0,0.1,0,0.1,0c0-0.2,0.2-0.1,0.3-0.2
		c0-0.3-0.1-0.4-0.3-0.5c0-0.2,0-0.4-0.1-0.5c0-0.2,0-0.3,0.2-0.3c0,0,0.1,0,0.1-0.1c0-0.2,0.1-0.1,0.2-0.2c0,0,0.1,0,0.1,0
		c0.1-0.2,0.3-0.1,0.4-0.2c0.1,0.3,0.3,0.4,0.5,0.4c0.1,0.1,0.2,0.1,0.2,0.1c0.1-0.1,0.2-0.2,0.2-0.3c0.1-0.2-0.1-0.3-0.3-0.4
		c-0.1-0.1-0.1-0.1-0.1-0.2c0-0.1,0-0.2,0-0.3c0.1-0.1,0.2-0.3,0.5-0.3c0.1,0,0.1-0.1,0.2-0.1c0.1-0.1,0.4-0.1,0.4,0
		c0,0.2,0.1,0.1,0.2,0.1c0.1,0,0.3,0,0.4,0C9.5,39,9.6,39.1,9.6,39c0-0.2,0.1-0.1,0.2-0.1c0.3,0,0.6-0.1,0.9,0.2
		c0,0.3,0,0.6,0.1,0.9c0,0.1,0.1,0.3-0.1,0.3c0,0,0,0.1,0,0.1c0,0.1,0,0.1,0,0.2c-0.1,0-0.2,0-0.3,0c0,0.2,0,0.3-0.1,0.4
		c-0.1,0.2,0,0.4,0,0.7c0,0,0,0,0,0c0.2,0.1,0.6-0.1,0.6-0.3c0-0.1,0.1-0.1,0.1-0.2c0,0.1,0.1,0.1,0.1,0.2c0.2,0,0.1-0.2,0.1-0.3
		c0-0.4,0.1-0.5,0.5-0.5c0.1,0,0.2,0,0.3,0c0.1,0.1,0.1,0.1,0.2,0.2c0-0.1,0.1-0.1,0.1-0.2c0-0.3,0-0.6,0-0.9c0-0.1,0.1-0.2,0.1-0.2
		c0.1,0,0.3-0.2,0.4,0.1c0,0,0.1,0,0.1,0c0.1,0,0.3,0,0.4,0c0-0.1,0-0.2,0-0.3c0,0,0.1,0,0.1-0.1c0-0.2,0-0.3,0-0.6
		c0.1,0.1,0.2,0.1,0.3,0.2c0-0.2,0-0.4,0-0.5c0.1-0.1,0.3,0,0.4-0.2c0,0,0.1,0,0.1,0c0.3,0,0.3-0.1,0.2-0.3c0-0.2-0.1-0.4,0.1-0.5
		c0,0,0,0,0-0.1c-0.1,0-0.1,0-0.2,0c0,0-0.1,0-0.1-0.1c0,0,0.1-0.1,0.1-0.1c0.1,0,0.1,0,0.2-0.1c0.1,0,0.1-0.1,0.1-0.1
		c-0.1,0-0.1-0.1-0.2-0.1c-0.2,0-0.3,0-0.5,0c0,0.1,0,0.2,0,0.2c-0.2,0-0.3,0.2-0.5,0.2c-0.4,0.1-0.8,0.1-1.2,0.1c0,0-0.1,0-0.1,0
		C12.1,37.2,12,37,12,36.7c0,0,0-0.1,0-0.1c-0.2,0-0.1-0.2-0.2-0.3c-0.1-0.1-0.2-0.2-0.3-0.2c-0.3,0-0.5,0.1-0.8,0.2c0,0,0,0,0,0.1
		c-0.1,0.2-0.2,0.3-0.4,0.3c-0.1,0-0.1,0-0.2,0c0,0.3-0.3,0.1-0.3,0.2C9.5,37.3,9.8,37.3,9.9,37.5z M5.7,23.5c0.1,0,0.2,0,0.3,0
		c0,0,0,0.1,0.1,0.1c-0.3,0.1-0.1,0.3-0.1,0.4c0,0,0.1,0.1,0.1,0.1c0,0,0.1-0.1,0.1-0.1c0.2-0.3,0.2,0.1,0.3,0.1c0,0,0,0.1,0.1,0.1
		c0,0-0.1,0-0.1,0c-0.1,0-0.1,0-0.2,0c0,0.4,0.1,0.8,0.1,1.3c0.1,0,0.2-0.1,0.2-0.1c0-0.2,0.1-0.3,0.2-0.4C6.6,25,6.7,24.8,7,24.8
		c0-0.2,0-0.5,0-0.7c0,0,0-0.1-0.1-0.1c-0.1,0-0.3,0-0.4-0.2c-0.1-0.1-0.2-0.1-0.3-0.2c-0.1-0.1-0.2-0.3-0.4-0.4c0-0.1,0-0.4,0-0.6
		c0.2,0,0.3-0.1,0.5-0.1c0.1-0.2-0.1-0.6,0.3-0.6c0-0.1,0-0.2,0-0.3c0.1-0.1,0.2-0.3,0.3-0.4c0,0,0.1,0,0.1,0
		c0.1,0.1,0.3,0.2,0.4,0.3c0,0,0,0.1,0,0.2c0,0.1-0.1,0.1-0.1,0.2c0,0.1,0,0.2,0,0.2c-0.2,0-0.1,0.2-0.1,0.3c0,0,0,0.1-0.1,0.1
		c0,0-0.1,0-0.1-0.1c0,0-0.1-0.1-0.2-0.1c0,0.2,0,0.4,0,0.6c0,0.2,0.1,0.2,0.2,0.2c0.3,0,0.6,0,0.9-0.1c0,0.3,0,0.6,0.1,0.8
		c0,0,0,0-0.1,0c0,0.1-0.1,0.2-0.1,0.3c0,0.3,0,0.7,0.1,1c-0.3,0-0.1,0.3-0.2,0.4c-0.2,0-0.3,0-0.5,0c-0.2,0-0.2,0.1-0.1,0.2
		c0.1,0,0.3,0,0.3,0c0.1,0.2,0.2,0.1,0.3,0.1c0.1,0,0.3,0,0.4,0c0,0.1,0,0.3,0.2,0.4c0,0,0,0.1,0,0.1c0,0.1,0,0.2,0.2,0.2
		c0.1,0,0.2,0.1,0.2,0.2c0.1,0,0.1,0.1,0.2,0.1c0-0.1,0-0.1,0-0.2c0,0,0-0.1,0-0.1c0,0,0.1,0,0.1-0.1c0-0.2,0.2-0.2,0.4-0.2
		c0.1,0,0.3,0,0.3-0.1c0.1-0.2,0.2-0.1,0.3-0.1c0.1,0,0.3,0,0.3-0.2c0-0.1,0.1-0.1,0.2-0.2c0.1-0.1,0.2-0.2,0.3-0.3
		c0.1-0.1,0.2-0.2,0.3-0.3c0.1-0.1,0.2-0.2,0.2-0.3c0,0,0,0,0-0.1c-0.2,0-0.3,0-0.5-0.1c-0.1-0.1-0.2-0.3,0-0.4
		c0.1-0.1,0.2-0.2,0.3-0.3c0,0,0.1-0.1,0.2-0.2c0,0.2,0,0.3,0.1,0.5c0.1,0,0.3,0,0.3-0.1c0.1-0.2,0.3-0.3,0.5-0.4
		c0-0.2,0-0.2-0.1-0.4c0,0,0-0.1,0-0.1c0-0.1,0-0.1,0-0.2c-0.2-0.1-0.4,0.1-0.6-0.2c-0.1-0.2-0.4-0.2-0.3-0.5c-0.1,0-0.3,0-0.4,0
		c-0.4,0-0.5-0.1-0.6-0.5c0-0.3,0-0.3-0.3-0.3c0,0,0,0,0,0c0-0.1-0.1-0.3,0-0.4c0.1-0.1,0.1-0.2,0.1-0.3c0,0,0.1-0.1,0.1-0.1
		c0.1-0.2,0.3-0.3,0.2-0.5c0-0.1,0-0.1,0-0.2c0,0,0,0,0.1,0c0-0.1,0.1-0.2,0.1-0.3c0-0.1-0.1-0.3,0.1-0.4c0,0,0-0.1,0-0.2
		c-0.2,0-0.4,0-0.4,0.2c-0.2,0-0.3,0-0.3,0.2c-0.2-0.1-0.3,0.1-0.4,0.2c-0.1,0.1-0.1,0.3-0.1,0.5c-0.1,0-0.1,0-0.2,0.1
		c0,0-0.1,0-0.1,0.1c0,0,0,0.1,0.1,0.1C9,20.6,9.1,21,9,21c-0.2,0.1-0.1,0.3-0.1,0.4c0,0.2-0.2,0.3-0.3,0.4
		c-0.3,0.1-0.4-0.2-0.7-0.2c0,0,0,0,0-0.1c0-0.3-0.3-0.4-0.5-0.6c-0.2-0.2-0.4-0.3-0.4-0.5c0,0-0.1,0-0.1,0
		c-0.2,0.1-0.5-0.1-0.7,0.2c0,0-0.1,0-0.1,0c-0.1,0-0.2,0-0.3,0.2c-0.1,0.2-0.3,0.3-0.6,0.3c-0.1,0-0.2,0-0.3,0c0,0,0,0,0.1,0
		c-0.1,0.2-0.2,0.3-0.3,0.5c-0.1,0.2-0.3,0.3-0.2,0.5c0,0.1,0,0.2-0.2,0.2c-0.1,0-0.2,0.2-0.3,0.3c0,0,0,0.1,0,0.1
		C4.2,23,4.3,23,4.5,23.1c0,0.1,0,0.2,0.1,0.3c0.1,0.1,0.3,0.2,0.5,0.1c0.1,0,0.2,0,0.3,0c0,0.1,0,0.2,0,0.2c0,0,0,0.1-0.1,0.1
		c0,0-0.1-0.1-0.1-0.1c0,0-0.1-0.1-0.1-0.1c0,0.1,0,0.2,0,0.3c-0.1,0.1-0.3,0.1-0.3,0.2c-0.1,0.2-0.3,0.3-0.5,0.3
		c-0.1,0-0.1,0-0.2,0c0,0.1,0,0.3,0.1,0.4c0.1,0.1,0.3,0.2,0.3,0.5c0,0.1,0,0.2,0,0.3c0,0.1,0,0.2,0.1,0.2c0.2,0,0.1,0.2,0.1,0.3
		c0,0.1,0,0.3,0,0.5C5,26.6,4.9,26.9,5,27c0,0,0.1,0,0.1,0c0.1-0.1,0.2-0.2,0.3-0.4c0.1-0.2,0.3-0.3,0.1-0.5c-0.2,0-0.3,0-0.3-0.3
		c0-0.1-0.1-0.1-0.2-0.1c0-0.1,0-0.2,0-0.3c0.1,0,0.2,0,0.3,0c0,0,0,0,0-0.1c-0.1-0.1-0.1-0.1-0.2-0.2c0-0.1,0-0.2,0-0.3
		c0.2-0.1,0.4-0.3,0.3-0.5C5.8,24.1,5.6,23.8,5.7,23.5z M12.9,76.1c-0.1,0-0.3,0.1-0.3,0.1c-0.1,0.2-0.2,0.1-0.3,0.2
		c-0.3,0-0.5,0-0.8,0c-0.1,0-0.1,0-0.2,0c-0.1-0.1-0.3-0.3-0.5-0.3c0,0-0.1,0-0.1,0c0-0.1-0.1-0.1-0.2-0.1c-0.1,0-0.1,0-0.2-0.1
		c-0.1-0.1-0.5-0.1-0.6,0C9.8,76,9.7,76,9.6,76c-0.1,0-0.2,0-0.4,0c-0.2,0-0.3,0.1-0.3,0.3c0,0.1,0,0.2,0,0.2
		c-0.1,0.1-0.2,0.2-0.3,0.3c-0.1,0.1-0.1,0.1-0.2,0c0-0.1-0.2-0.1-0.2-0.1c0,0-0.1,0-0.1,0.1c0,0,0.1,0.1,0.1,0.1c0,0,0,0,0,0
		c0,0.2,0,0.4,0,0.6c0,0-0.1,0.1-0.2,0.1c0,0-0.1,0.1-0.1,0.1c0,0,0.1,0.1,0.1,0.1c0.1,0,0.2,0,0.3,0c0.1,0,0.1,0,0.2,0.1
		c-0.1,0.1-0.1,0.2-0.2,0.3c0,0-0.1,0-0.2,0c0,0,0,0,0,0c0,0-0.1-0.1-0.1-0.1c0,0,0,0.1-0.1,0.1c0,0.1,0,0.2,0,0.2
		c-0.2,0-0.1,0.2-0.1,0.3c0,0.1,0,0.2,0,0.2c-0.1,0-0.1,0.1-0.1,0.2c0,0.1,0,0.3,0,0.4c0,0.3,0.1,0.3,0.3,0.3c0.2,0,0.3,0,0.5,0.1
		c0.2,0.1,0.1,0.3,0.2,0.4c0.1,0,0.4,0,0.4,0c0.1-0.2,0.3-0.2,0.4-0.2c0-0.2,0-0.3,0-0.5c0.1,0,0.2,0,0.3-0.1c0-0.3-0.1-0.7-0.1-1
		c0,0,0-0.1,0-0.1c-0.2,0-0.1-0.2-0.2-0.3c0.2-0.1,0.4,0,0.4-0.2c0,0,0.1,0,0.1,0c0.2,0,0.5-0.1,0.7,0c0.2,0,0.3,0.2,0.5,0.2
		c0,0,0,0,0,0c0.1,0,0.1,0.1,0.2,0.1c0.2,0,0.4,0.1,0.5-0.2c0,0,0,0,0.1,0c0.2,0,0.4,0,0.6,0c-0.1,0.3,0,0.6,0.3,0.7
		c0.2,0.1,0.3,0.4,0.6,0.4c0,0,0.1,0.1,0.1,0.1c0,0.1,0,0.2,0.1,0.2c0,0,0,0.1,0.1,0.1c0.1,0.3,0.2,0.4,0.6,0.4
		c0.2,0,0.3-0.2,0.4-0.3c0.1-0.1,0.1-0.2,0.2-0.3c0-0.1,0-0.3,0-0.4c-0.2-0.1-0.4-0.2-0.5-0.4c-0.1-0.2,0-0.4-0.1-0.6
		c0,0,0,0,0.1-0.1c0.1,0,0.3,0,0.3-0.2c0,0,0.1,0,0.1,0c0.1,0,0.2,0,0.4,0c0,0,0,0,0,0.1c0.1,0,0.2,0.1,0.3,0.1c0,0,0.1,0,0.1,0.1
		c0.1,0.2,0.3,0.3,0.5,0.3c0.1,0.1,0.1,0.2,0.2,0.2c0.4,0,0.8,0,1.2-0.1c0,0,0,0,0-0.1c-0.1-0.1-0.2-0.2-0.3-0.3
		c-0.1-0.1-0.2-0.1-0.3-0.2c-0.2,0-0.4,0.1-0.5-0.1c0,0,0,0,0,0c-0.2,0.1-0.3-0.2-0.4-0.2c-0.1,0-0.2-0.1-0.2-0.2
		c0-0.2,0-0.5-0.1-0.7c0.3-0.1,0.3-0.1,0.3-0.4c-0.2,0-0.5,0-0.7,0c-0.3,0-0.6,0.2-0.8-0.1c-0.1-0.1-0.3-0.2-0.3-0.5
		c0-0.1-0.1-0.2-0.1-0.2c0-0.1-0.1-0.1-0.1-0.2c0-0.1,0-0.2-0.1-0.4c-0.1,0-0.2,0-0.2,0c-0.2,0-0.4,0-0.6,0c-0.1,0-0.1-0.1-0.1-0.1
		c0,0.1-0.1,0.1-0.1,0.2c0,0.1,0,0.2,0,0.3C12.9,75.4,12.9,75.8,12.9,76.1z M6.6,34.6c0-0.3,0.2-0.5,0.5-0.5c0,0,0.1,0,0.1-0.1
		c0,0,0.1-0.1,0.1-0.1c0.1,0,0.2,0,0.2-0.2c0,0,0.1,0,0.1,0c0.2,0,0.2-0.1,0.2-0.2c0,0,0-0.1,0-0.1c0.1,0,0.2,0,0.2-0.1
		c0.1-0.2,0.2-0.3,0.4-0.4c0.1,0,0.2-0.2,0.2-0.3c0.1-0.1,0.1-0.2,0.2-0.2c0.4,0,0.9-0.3,1.3,0.1c0.1,0.1,0.2,0.1,0.3,0.2
		c0.1,0.3,0.5,0.3,0.4,0.6c0,0,0.1,0.1,0.1,0.1c0.2,0,0.3,0.1,0.3,0.3c0,0,0,0.1,0.1,0.1c0,0,0.1,0,0.1-0.1c0,0,0-0.1,0.1-0.1
		c0.2-0.2,0.3-0.4,0.2-0.6c0-0.1-0.1-0.2-0.2-0.1c-0.1,0-0.1,0-0.2,0c0-0.1-0.1-0.1-0.1-0.2c-0.2-0.1-0.4-0.1-0.7-0.1
		c-0.1,0-0.1-0.1-0.2-0.1c-0.1-0.1-0.2-0.2-0.3-0.2c-0.2,0-0.4-0.1-0.4-0.3c0,0,0,0,0,0c-0.1,0-0.2,0-0.1-0.2
		c0.1-0.1,0.1-0.2,0.2-0.2c0.2,0,0.3-0.1,0.4-0.2c0.1-0.1,0.1-0.1,0.1-0.2c0.1-0.2,0.3-0.3,0.4-0.5c0.1-0.2,0.2-0.4,0.5-0.4
		c0.1,0,0.1,0,0.2-0.1c0-0.3,0-0.6-0.1-0.9c0,0,0-0.1,0-0.1c-0.2-0.1-0.3-0.3-0.4-0.2c-0.1-0.1-0.1-0.2-0.2-0.2
		c-0.1,0-0.3,0.1-0.4,0.1c-0.1,0-0.1,0.1-0.2,0.1c-0.1,0.1-0.1,0.1-0.2,0.2c-0.1,0.1-0.2,0.2-0.2,0.2c-0.3,0-0.3,0.2-0.3,0.3
		C9.3,29.8,9.2,29.9,9,30c-0.2,0-0.4,0-0.5,0c0-0.3-0.2-0.5-0.4-0.4c0,0.4,0.1,0.8,0.1,1.2c-0.2,0-0.4,0.1-0.5,0
		c-0.1-0.1-0.3-0.1-0.4-0.1c0,0.3,0,0.3,0.2,0.4c0.1,0,0.1,0.1,0.1,0.1c0.1,0.3,0,0.4-0.3,0.4C7.2,32,6.9,32,6.6,32
		c0,0.1,0,0.2,0,0.3c0,0.1,0,0.2,0,0.2c-0.1,0.1-0.4,0-0.4,0.2c-0.3,0-0.1,0.3-0.2,0.4c-0.1,0-0.2,0-0.3,0.1
		c-0.1,0.3-0.1,0.3-0.4,0.4c-0.1,0-0.1,0-0.2,0c0,0-0.1,0.1-0.1,0.1c0,0,0.1,0.1,0.1,0.1c0,0.3,0.1,0.6,0.1,0.9
		c-0.2,0-0.1,0.2-0.1,0.3c0,0.1,0,0.2,0,0.3c-0.2,0-0.5,0-0.7,0.1c0,0.1,0.1,0.2,0.1,0.2c0.2,0,0.1,0.1,0.1,0.2c0,0.1,0,0.2,0,0.4
		c0,0,0.1,0.1,0.1,0.1c0,0,0.1,0,0.1-0.1c0.2-0.1,0.3-0.3,0.5-0.4c0.1,0,0-0.1,0.1-0.1c0.1-0.1,0.2-0.3,0.3-0.3
		C5.8,35,6,35,6.2,34.9c0,0,0,0,0,0C6.2,34.6,6.4,34.7,6.6,34.6z M9.5,18.5c0.1,0,0.2,0,0.3,0c0.1-0.2,0.3-0.2,0.4-0.2
		c0-0.2,0-0.3,0-0.5c0-0.1,0-0.2,0-0.2c0.2-0.1,0.1-0.2,0.1-0.4c0.3,0,0.1-0.3,0.2-0.4c0.1,0,0.3,0,0.3-0.1c0-0.1,0.1-0.2,0.2-0.1
		c0.1,0,0.3,0,0.3,0c0.1,0.2,0.3,0.1,0.4,0.1c0,0.1,0,0.2,0.1,0.3c0.1,0,0.2,0,0.3,0c0-0.2,0-0.2-0.1-0.3c0,0-0.1-0.1,0-0.1
		c0,0,0.1-0.1,0.1-0.1c0.1,0,0.2,0,0.2,0c0.1-0.1-0.1-0.4,0.1-0.4c0,0,0-0.1,0-0.1c0,0-0.1-0.1-0.1-0.1c0,0-0.1,0-0.1,0
		c-0.1,0.3-0.2,0.1-0.3-0.1c-0.1,0-0.3,0-0.3,0.1c-0.1,0.3-0.4,0.4-0.6,0.5c-0.2,0.1-0.5,0.1-0.8,0.1c0.1-0.3-0.3-0.4-0.2-0.6
		c0,0-0.1,0-0.1,0c-0.1,0-0.1,0-0.2,0c0-0.5-0.1-1-0.1-1.4c-0.4-0.1-0.6,0.1-0.8,0.4c-0.1-0.1-0.1-0.1-0.2-0.2c0,0-0.1,0.1-0.1,0.1
		c0,0.1,0,0.2,0,0.2c0.3,0.1,0.2,0.3,0.1,0.4c0,0.1-0.1,0.3-0.3,0.3c-0.2,0-0.3,0-0.4,0c-0.1,0.2-0.2,0.4-0.3,0.5
		c-0.1,0-0.2,0-0.4,0c-0.1,0-0.1,0.1-0.1,0.1c0,0,0.1,0.1,0.1,0.1c0,0,0.1,0,0.1,0.1c0.1,0.1,0.2,0.3,0.5,0.3c0.1,0,0.1,0,0.2,0
		c0,0,0,0,0,0.1C7.9,16.9,8,17,8.1,17c0.2,0,0.2,0.1,0.2,0.2c0,0,0,0.1,0,0.2c0.2-0.1,0.4,0,0.4,0.3c0,0,0,0.1,0,0.1
		C9,17.7,8.8,18,8.9,18.1c-0.1,0-0.2,0.1-0.3,0.1c0,0,0,0,0,0c0,0,0,0.1,0,0.1c0.2,0,0.1,0.3,0.2,0.4C9,18.6,9.4,18.9,9.5,18.5z
		 M4.4,16.5c0,0.2,0,0.3,0,0.5c0,0.1-0.1,0.1-0.1,0.2c-0.1,0.2-0.3,0.3-0.2,0.5c0,0.1,0,0.2-0.1,0.2c-0.1,0.1-0.1,0.1,0,0.2
		c0.1,0.1,0.2,0.1,0.3,0.2c0.1,0.1,0.1,0.1,0.2,0.1c0.1,0,0.1,0,0.2,0c0.1,0,0.3-0.1,0.3,0.1c0,0.1,0.2,0.2,0.3,0.2
		c0.2,0,0.4-0.2,0.4-0.4c0-0.4-0.1-0.8-0.1-1.2c0-0.2,0.2-0.3,0.2-0.4c0,0,0.1-0.1,0.1-0.1c0,0,0-0.1-0.1-0.1c0,0-0.1-0.1-0.1-0.1
		c-0.1-0.3,0-0.6,0.2-0.8c0.1-0.1,0.3-0.3,0.1-0.6c-0.3,0-0.6,0.1-0.9,0.1c0,0-0.1,0-0.1,0c-0.1,0.2-0.2,0.1-0.4,0.2
		c-0.2,0-0.5,0-0.6,0.2c-0.1,0.2-0.5,0.3-0.4,0.7c0,0,0,0.1-0.1,0.1c0,0-0.1,0.1-0.1,0.1c0,0,0.1,0.1,0.1,0.1
		C4,16.5,4.2,16.5,4.4,16.5z M5.4,30.1c0.1,0,0.2,0,0.3,0c0.1,0,0.2,0,0.2,0c0.1-0.2,0.3-0.1,0.4-0.2c0.1,0,0.1-0.1,0.2-0.1
		c-0.1,0-0.1-0.1-0.2-0.1c-0.3,0-0.5,0-0.8,0c-0.2,0-0.3,0-0.3,0.2c-0.1,0-0.2,0-0.3,0c0,0,0,0,0,0c-0.1,0.2-0.2,0.3-0.2,0.5
		c-0.3,0-0.6,0-0.8,0.1c0-0.2,0-0.3-0.1-0.4c0,0-0.1-0.1-0.1-0.1c0,0-0.1,0.1-0.1,0.1c0,0.1,0,0.2-0.1,0.2c0,0.1,0,0.1,0.1,0.2
		c0,0,0.1,0,0.1,0c0.1,0.3,0.3,0.3,0.6,0.3c0.2,0,0.3,0,0.5,0c0.1,0,0.1,0,0.2-0.1C5,30.6,5.2,30.5,5,30.3c0.1,0,0.2,0,0.4-0.1
		C5.4,30.2,5.4,30.1,5.4,30.1z M11.4,11.8c-0.1,0-0.2,0-0.2,0c-0.1-0.2-0.3-0.1-0.4-0.1c-0.1,0-0.2,0.1-0.2,0.2
		c0,0.2-0.1,0.3-0.3,0.4c-0.2,0.1-0.4,0-0.5,0.2c0,0.1-0.3,0.1-0.4,0.2c0,0-0.1,0.1-0.1,0.1c0,0,0.1,0.1,0.1,0.1
		c0.2,0,0.3,0.1,0.3,0.3c0,0,0,0.1,0,0.1c0,0,0.1,0.1,0.1,0.1c0,0,0.1-0.1,0.1-0.1c0-0.1,0-0.3,0-0.3c0.2-0.1,0.3-0.2,0.5-0.3
		c0.1,0,0.1-0.1,0.2-0.1c0.2-0.1,0.3-0.3,0.5-0.3c0,0,0.1,0,0.2,0C11.4,12.1,11.4,12,11.4,11.8z M3.4,29.1c0.1-0.2,0.1-0.4,0.2-0.6
		c-0.3,0-0.6,0-0.9,0.1c0,0.4,0,0.4,0.3,0.4C3.1,29.2,3.3,29.1,3.4,29.1z M13.7,55.6c-0.3,0-0.4,0-0.3,0.3c0,0.3,0.3,0.4,0.4,0.6
		c0,0,0.1,0,0.1,0c0.1-0.1,0-0.5-0.2-0.6C13.7,55.9,13.7,55.8,13.7,55.6C13.7,55.7,13.7,55.7,13.7,55.6z M13.5,43.5
		c-0.1-0.1-0.2-0.2-0.3-0.2c-0.1,0-0.2,0.2-0.3,0.2c0.1,0.1,0.2,0.3,0.3,0.3C13.2,43.8,13.3,43.7,13.5,43.5z M17,105.1
		C17,105.1,17,105.1,17,105.1c0.2,0,0.3,0.1,0.4-0.1c0.1-0.1,0.1-0.2,0.1-0.3c0,0,0-0.1-0.1-0.1c0,0-0.1,0-0.1,0
		c-0.1,0-0.1,0.1-0.1,0.1C17.1,104.8,17,105,17,105.1z M7.9,76.5c-0.1-0.1,0.1-0.4-0.2-0.3c-0.1,0-0.2,0-0.2,0.2
		C7.5,76.6,7.5,76.6,7.9,76.5z M8.2,28.9c0.3,0,0.3,0,0.3-0.2c-0.1,0-0.2,0-0.3,0C8.2,28.8,8.2,28.9,8.2,28.9z M12.7,98
		c-0.1-0.1-0.1-0.2-0.2-0.3c0,0.1-0.1,0.1-0.1,0.2C12.4,98,12.5,98,12.7,98z M15.1,81.1c0.1,0,0.2,0,0.2-0.1c0-0.1,0-0.2,0-0.3
		c0,0-0.1,0-0.2,0c0,0.1,0,0.1,0,0.1C15.1,80.9,15.1,81,15.1,81.1z M4.8,27.3c0,0.1,0.1,0.1,0.1,0.2c0,0,0.1-0.1,0.1-0.1
		c0-0.1-0.1-0.1-0.1-0.2C4.9,27.2,4.8,27.3,4.8,27.3z"/>
	<path d="M6.2,89.7c0.1,0.2,0,0.4,0.2,0.5c0.1,0.1,0.3,0,0.5,0c0,0,0.1,0,0.1,0c0.1,0.2,0.4,0.1,0.5,0.1c0,0,0-0.1,0-0.1
		c0.1,0,0.2-0.1,0.3-0.1c0.3,0,0.5,0,0.8-0.1c0,0,0.1,0,0.1,0c0.1-0.2,0.3-0.1,0.4-0.2c0.1,0,0.1-0.1,0.1-0.1c0,0,0.1-0.1,0.1-0.1
		c0.5,0,1.1-0.1,1.6-0.1c0.1,0,0.2,0,0.3,0.1c0,0,0.1,0,0.1,0c0.1,0,0.3,0,0.4,0c0,0,0.1,0,0.1,0c0.1-0.3,0.4-0.1,0.5-0.2
		c0.1,0.2,0.2,0.4,0.3,0.6c0,0.1,0.1,0.1,0.2,0.1c0.1,0,0.1-0.1,0.2-0.1c0,0,0,0,0,0c0.1-0.1,0.1-0.2,0.1-0.2c0-0.1-0.2,0-0.1-0.2
		c0.1,0,0.2,0,0.3,0c0.1-0.1,0.2-0.2,0.2-0.2c0.1-0.2,0.2-0.2,0.4-0.2c0.1,0,0.1,0,0.2,0c0,0.1,0,0.1,0,0.2c0,0,0,0.1,0.1,0.1
		c0.2,0.1,0.5,0.1,0.7,0.2c0.1,0,0.1,0,0.1,0.1c0,0-0.1,0.1-0.1,0.1c0,0.1,0,0.3,0,0.4c0,0,0.1,0.1,0.2,0.1c0.2,0,0.4,0,0.7,0
		c0.1,0.1,0,0.3,0.2,0.4c0.1,0,0,0.3,0,0.4c0,0-0.1,0.1-0.1,0.1c0,0.1,0,0.3-0.2,0.3c-0.1,0-0.2,0.1-0.3,0.2
		c-0.1,0.1-0.1,0.1-0.2,0.2c-0.1,0.1-0.1,0.4,0.1,0.5c0.1,0,0.2,0.3,0.1,0.3c-0.2,0.1-0.1,0.3-0.1,0.5c0.3,0.1,0.4,0.3,0.4,0.5
		c0,0,0,0.1-0.1,0.1c0,0-0.1,0.1-0.1,0.1c0,0.1,0,0.3-0.1,0.3c0,0,0,0.1,0,0.1c0,0.2,0,0.4,0.1,0.7c0.2,0,0.2,0.1,0.2,0.3
		c0,0.1,0,0.2,0.1,0.3c0.1,0,0,0.1-0.1,0.2c-0.1,0-0.2,0-0.2,0.2c0,0,0,0,0,0c-0.2,0-0.3,0.2-0.5,0.2c0,0-0.1,0.1-0.1,0.1
		c0.1,0.2-0.1,0.3-0.2,0.4c0,0,0,0.1-0.1,0.1c-0.3,0-0.4,0.3-0.6,0.4c0,0,0,0.1-0.1,0.2c-0.3,0-0.5,0-0.8,0c0-0.1-0.1-0.3-0.1-0.5
		c-0.1,0-0.3,0-0.4,0c0,0-0.1,0-0.1,0.1c0,0,0,0.1-0.1,0.1c-0.4,0-0.4,0.4-0.6,0.5c-0.1,0.1-0.4,0.1-0.5,0c-0.1,0-0.1-0.1-0.2-0.1
		c-0.2,0-0.3-0.2-0.4-0.3c-0.2-0.1-0.2-0.3-0.2-0.5c-0.1-0.1-0.2-0.2-0.2-0.4c0,0,0-0.1,0.1-0.1c-0.2-0.1-0.5-0.1-0.7-0.2
		c-0.1-0.1-0.2-0.3-0.3-0.5c0.2,0,0.3,0,0.4,0c0-0.3,0-0.6-0.1-0.9c-0.3,0-0.2-0.2-0.2-0.3c-0.2-0.2-0.3-0.3-0.4-0.4
		C8.8,94,8.9,93.7,9,93.6c0.1-0.2,0.1-0.3,0.1-0.5c0-0.1,0-0.2,0-0.2c-0.1-0.3,0.1-0.4,0.2-0.5c0.1-0.1,0-0.3,0-0.5
		c0-0.1-0.1-0.1-0.1-0.1c-0.1,0-0.1,0-0.2,0c-0.1,0-0.1,0.1-0.2,0.1c-0.1,0.1-0.2,0.2-0.3,0.2c-0.1,0-0.2-0.1-0.3-0.1
		c-0.1,0-0.1,0-0.2,0c-0.1,0-0.3,0.1-0.3-0.1c0-0.1-0.2-0.1-0.2-0.2c-0.1,0-0.2,0-0.3,0c0-0.1,0-0.2,0-0.3c-0.1,0-0.2,0-0.3,0
		c0-0.2,0-0.3,0-0.5c-0.3,0.1-0.5-0.3-0.8-0.1c-0.1,0-0.2,0.1-0.3,0.1c-0.1,0-0.2,0.1-0.3,0.1c0,0-0.1-0.1-0.1-0.2
		c0-0.1,0-0.2,0-0.3c0-0.1-0.1-0.1-0.1-0.2c0,0-0.1-0.1-0.1-0.1c0-0.1,0-0.3-0.2-0.3c0,0-0.1-0.1,0-0.1c0.1-0.1,0.2-0.2,0.3-0.3
		c0.2-0.1,0.4,0,0.5,0C5.8,89.6,6,89.8,6.2,89.7z M10.5,93c0.1,0.1,0.3,0.2,0.4,0.3c0,0.1,0,0.2,0,0.2c-0.1,0.1-0.2,0.2-0.3,0.3
		c0,0.2,0,0.5,0.3,0.6c0.1,0.1,0.2,0.1,0.3,0.2c0,0,0.1,0,0.2-0.1c0,0,0-0.1,0-0.1c0.2,0,0.2-0.2,0.3-0.3c0,0,0.1-0.1,0.1-0.1
		c0,0,0.1,0.1,0.1,0.1c0,0,0.1,0.1,0.1,0.1c0,0,0.1,0,0.1,0c0.1-0.2,0.2-0.3,0.3-0.6c0.1-0.1,0.4-0.3,0.6-0.4c0-0.1-0.1-0.3,0.2-0.3
		c0-0.1,0-0.2,0-0.3c0.1,0,0.2,0,0.3,0c0-0.1,0.1-0.1,0.1-0.2c0-0.1,0.1-0.2,0.1-0.3c-0.1-0.1-0.2-0.2-0.3-0.2c-0.2,0-0.5,0-0.7,0
		c-0.1-0.3-0.4-0.1-0.6-0.2c-0.1-0.2-0.3-0.3-0.5-0.1c-0.1-0.3-0.3-0.1-0.4-0.1c0,0.1,0,0.1-0.1,0.2c-0.2,0-0.4,0-0.6,0.1
		c0,0.1,0,0.1-0.1,0.2c-0.2,0.2-0.2,0.2,0,0.3c0,0.1,0,0.1,0,0.2c0,0.1,0,0.4,0.1,0.4C10.5,92.7,10.5,92.9,10.5,93z M9.7,91.8
		c0.1,0,0.2-0.1,0.3-0.1c-0.1-0.1-0.1-0.2-0.2-0.2c0,0-0.1,0-0.1,0C9.7,91.6,9.7,91.7,9.7,91.8z M15.2,95.4c0-0.1,0-0.1,0-0.2
		c0,0-0.1-0.1-0.1-0.1c0,0-0.1,0-0.1,0.1c0,0.1,0,0.3,0,0.4c0,0,0.1,0.1,0.1,0.1c0,0,0.1,0,0.1-0.1C15.2,95.5,15.2,95.4,15.2,95.4z
		 M12.9,90.2c-0.1,0.1-0.2,0.1-0.2,0.2c0,0,0.1,0.1,0.1,0.1c0.1,0,0.2-0.1,0.3-0.1C13,90.4,13,90.3,12.9,90.2z"/>
	<path d="M7.1,67.9c-0.3,0-0.2-0.2-0.2-0.4c0.5,0,1-0.1,1.5-0.1c0,0,0.1,0,0.1,0c0.1,0.2,0.3,0.1,0.5,0.1c0.6,0,1.2-0.1,1.8-0.1
		c0.1,0,0.2,0,0.3-0.1c-0.1-0.3,0.2-0.5,0.3-0.7c0.2-0.2,0.4-0.3,0.7-0.3c0-0.4,0-0.7-0.1-1c0-0.1-0.2-0.2-0.3-0.4
		c-0.2,0-0.4-0.1-0.5-0.3c0,0,0,0-0.1,0c-0.2,0-0.6-0.1-0.7,0.1c-0.3,0.2-0.5,0.1-0.8,0.2c-0.1,0-0.2-0.1-0.2-0.1
		c-0.1,0-0.1,0-0.2,0c-0.7,0-1.4,0.1-2.1,0.1c0-0.3-0.1-0.5-0.1-0.8c0,0,0.1-0.1,0.1-0.1c0.1-0.1,0.1-0.3,0.2-0.4
		c0.1-0.1,0.3,0,0.4,0c0-0.1,0-0.1,0-0.2c0-0.2,0-0.2,0.2-0.2c0.1,0,0.1-0.1,0.2-0.1c0.1,0,0.1-0.1,0.2-0.1C8.6,63,8.9,63,9.3,63
		c0.1,0,0.1-0.1,0.2-0.1c0,0,0.1-0.1,0.1-0.1c0.5,0,1-0.1,1.5-0.1c0.1,0,0.2,0.1,0.3,0.1c0.1,0,0.1-0.1,0.2-0.1
		c0.5,0,0.9-0.1,1.4-0.1c0.1,0,0.1,0,0.2,0.1c0,0-0.1,0.1-0.1,0.1c-0.1,0.1-0.1,0.4,0,0.5c0,0,0.1,0,0.1,0.1
		c-0.1,0.2,0.1,0.3,0.2,0.4c0.1,0.1,0.3,0,0.5,0c0.1,0,0.1-0.1,0.2-0.2c0-0.1,0-0.2,0-0.3c0-0.2,0.2-0.1,0.3-0.2
		c0.2-0.3,0.3-0.4,0.6-0.3c0,0.5,0.1,1,0.1,1.6c-0.2,0-0.5,0-0.7,0.1c-0.1,0-0.1,0.1-0.2,0.1c0,0-0.1,0.1-0.2,0.1
		c-0.2,0-0.4,0-0.7,0c-0.1,0-0.2,0.1-0.3-0.1c0,0-0.2,0-0.3,0c0,0.3,0,0.5,0.1,0.8c0,0,0.1,0.1,0.2,0.1c0.1,0,0.1,0.1,0.2,0.1
		c0,0.1-0.1,0.1-0.2,0.2c0,0.1,0,0.2,0,0.3c0,0.1,0.1,0.1,0.1,0.1c0.1,0.1,0.3,0.2,0.4,0.3c0,0,0,0.1,0,0.2c0,0.1,0,0.2,0,0.3
		c0.2,0,0.4,0,0.6,0c0.1,0,0.2-0.2,0.3-0.3c0.1-0.1,0.2-0.1,0.3-0.1c0,0,0.1,0.1,0.1,0.1c0,0.3,0.2,0.3,0.4,0.2c0,0.3,0,0.5,0.1,0.7
		c-0.2,0.1-0.3,0.2-0.5,0.3c0.1,0.2-0.1,0.4-0.2,0.4c-0.2,0.1-0.4,0.1-0.6,0c-0.1,0-0.1-0.2-0.1-0.3c-0.3-0.1-0.4,0.1-0.6,0.2
		c0,0,0,0.1,0,0.2c0,0.1,0.1,0.3-0.1,0.3c0,0,0,0.1,0,0.2c-0.5,0.1-0.7,0-0.8-0.3c-0.2,0-0.5,0-0.7,0.1c-0.1,0-0.1,0.1-0.1,0.1
		c-0.3,0-0.5,0.3-0.8,0.3c-0.5,0-1,0.1-1.5,0.1c-0.1,0-0.2-0.1-0.3-0.1c-0.1,0-0.1,0-0.2,0c-0.2,0-0.5,0-0.7,0c0,0-0.1,0-0.1,0.1
		c0,0-0.1,0.1-0.1,0.1c-0.1,0-0.2,0-0.2,0.2c0,0.1-0.5,0.1-0.6,0c-0.1-0.1-0.2-0.2-0.3-0.2c0,0-0.1-0.1-0.1-0.2
		c0.1-0.1,0.2-0.2,0.3-0.3c0.1-0.1,0.1-0.3,0.2-0.3C7.2,68.3,7.1,68.1,7.1,67.9z"/>
	<path d="M12,54.4c-0.1,0-0.1,0-0.2,0c-0.1-0.3-0.4-0.1-0.6-0.1c-0.1,0-0.2,0.2-0.3,0.3c-0.2,0.2-0.1,0.5-0.1,0.7c0,0.1,0,0.2,0,0.3
		c0,0.3,0.1,0.3,0.3,0.5c0,0,0.1,0.1,0.1,0.2c0,0.1,0.1,0.2,0.2,0.2c0.1,0,0.3,0,0.4,0.1c0.1,0.1,0.3,0,0.5,0c0.1,0,0.2,0,0.4,0
		c0,0.1,0,0.2,0,0.2c0,0.3,0.2,0.3,0.3,0.5c0.1,0.1,0.3,0.2,0.3,0.4c0,0.4,0,0.7,0,1.1c0,0,0,0.1,0,0.1c0,0.1-0.1,0.1-0.1,0.2
		c0,0.1,0,0.1,0,0.2c-0.2,0-0.4,0.2-0.5,0.4c0,0.1-0.2,0.1-0.3,0.1c0,0.1,0,0.2,0,0.3c-0.3,0-0.4,0.2-0.5,0.4c0,0,0,0,0,0
		c-0.2,0.1-0.3,0.2-0.5,0.2c0,0.1,0,0.1,0,0.1c0,0.1,0,0.4,0,0.4c-0.2,0.1-0.4,0.1-0.6,0.1c-0.1,0-0.2-0.1-0.2-0.2
		c-0.2-0.3-0.4-0.3-0.7-0.3c-0.1,0-0.2-0.1-0.3-0.1c-0.1,0-0.2,0-0.3,0c-0.1,0-0.3,0.1-0.3-0.1c0,0,0,0-0.1,0
		c-0.3-0.1-0.7-0.2-1.1-0.1c0,0-0.1,0-0.1,0c-0.1-0.1,0-0.3-0.2-0.4c0,0,0-0.1,0-0.1c0-0.2-0.1-0.3-0.3-0.2c0,0-0.1,0-0.1,0
		c0-0.2-0.2-0.3-0.3-0.5c0-0.1,0-0.3,0-0.5c0,0,0-0.1,0-0.1C7.1,58.5,6.9,58.2,7,58c0,0-0.1-0.1-0.1-0.1c0,0-0.1-0.1-0.1-0.2
		c0.1-0.1,0.2-0.2,0.3-0.2c0,0,0-0.1,0.1-0.1c0,0-0.1-0.1-0.1-0.1c-0.2,0-0.4,0-0.6,0.1C6.2,57.4,6,57.2,6,57c0-0.3,0.1-0.6,0.1-0.8
		c-0.1-0.1-0.3-0.2-0.3-0.3c-0.1-0.1-0.2-0.1-0.3-0.1c-0.1,0-0.3,0-0.3-0.1c0-0.1-0.2-0.3,0.1-0.4c0,0,0.1-0.1,0.1-0.1
		c0.1-0.1,0.2-0.2,0.3-0.2c0.1-0.1,0.3-0.1,0.4-0.1c0.1,0,0.2,0,0.2-0.1c0,0,0.1,0,0.1,0c0.1,0,0.3-0.1,0.4,0
		c0.3,0.1,0.4-0.2,0.5-0.3c0.1,0,0.1-0.1,0.2-0.1c0.1,0,0.1-0.1,0.2-0.1c0,0,0.1-0.1,0.1-0.1c0.2,0,0.4-0.1,0.6-0.2
		c0.2-0.3,0.4-0.2,0.6-0.2c0.1,0,0.2-0.1,0.3-0.1c0.1,0,0.1,0,0.2-0.1c0.2-0.1,0.4,0,0.5-0.2c0,0,0,0,0,0c0.2,0.1,0.4,0.1,0.5,0.2
		c0.1,0.1,0.2,0.2,0.3,0.3c0,0,0.1,0.1,0.1,0.1c0,0.2,0.1,0.3,0.3,0.2c0.2-0.1,0.3,0.1,0.4,0.2C11.8,54.2,12.1,54.2,12,54.4
		C12,54.4,12,54.4,12,54.4z M12.6,58.6c0-0.1,0-0.2,0.1-0.2c0.2,0,0.1-0.1,0.1-0.2c0-0.1,0.1-0.1,0.1-0.2c0-0.1,0-0.2,0-0.2
		c-0.2-0.1-0.2-0.2-0.2-0.4c0,0,0-0.1-0.1-0.1c-0.1-0.1-0.1-0.1-0.2-0.2c-0.3,0-0.7,0.1-1.2,0.1c0-0.2,0-0.3,0-0.5
		c-0.1,0-0.1,0-0.1,0c-0.1-0.3-0.3-0.1-0.4-0.1c-0.1,0-0.1,0-0.1,0c0-0.2-0.1-0.1-0.2-0.1c-0.1,0-0.2,0-0.3,0c0.1-0.1,0.3-0.2,0-0.3
		c-0.1,0-0.2-0.2-0.3-0.3c0,0-0.1,0-0.2,0c-0.1,0-0.1-0.1-0.2-0.1c-0.1,0-0.1,0.1-0.2,0.2c-0.2,0-0.3,0.1-0.2,0.3c0,0.1,0,0.2,0,0.3
		c0,0.1,0.1,0.3-0.1,0.4c-0.1,0.1-0.2,0.2-0.3,0.3c-0.3,0-0.3,0-0.3,0.3c-0.1,0.1-0.2,0.2-0.3,0.3c0,0.1,0,0.2,0,0.3
		c0,0.1-0.1,0.2-0.2,0.3c0,0,0,0,0,0c-0.1,0-0.1,0-0.1,0c0,0.1,0,0.2,0,0.3c0.1,0,0.2,0,0.3,0.1C8.1,59,8.2,59,8.4,58.7
		c0.1,0.1,0.2,0.3,0.2,0.1c0.1-0.2,0.2-0.1,0.3-0.2c0.1,0.2,0.2,0.3,0.3,0.5c0.1-0.1,0.4,0.1,0.5-0.2c0-0.1,0.2-0.1,0.3-0.2
		c0.1,0,0.2-0.1,0.2-0.1c0.3-0.1,0.6,0,0.8-0.3c0,0,0.1,0,0.1,0c0.1,0,0.3,0,0.4,0c0.1,0.3,0.4,0,0.6,0.1
		C12.3,58.7,12.5,58.6,12.6,58.6z"/>
	<path d="M11.5,102.2c0,0.2,0.1,0.3-0.1,0.4c-0.1,0.1,0,0.2,0.2,0.1c0,0.1,0.1,0.3-0.1,0.4c0,0,0,0.1,0,0.2c0,0.1,0,0.2,0,0.3
		c-0.2,0-0.3,0-0.5,0.1c-0.1,0-0.3,0.1-0.4,0.2l0,0c0-0.1,0-0.3-0.1-0.4c0-0.1,0-0.2,0.1-0.2c0,0,0,0,0,0c0.1-0.3,0.1-0.5,0.2-0.8
		c-0.4,0-0.7,0-1,0.1c-0.3,0.1-0.5,0-0.6-0.2c-0.1-0.1,0-0.2,0.1-0.2c0-0.1-0.1-0.3,0.1-0.4c0,0,0-0.2,0-0.3c0.1,0,0.2,0,0.3-0.1
		c0-0.1,0-0.2,0-0.4c0-0.1-0.1-0.1-0.1-0.1c-0.1-0.1-0.3-0.2-0.4-0.4c0,0,0.1-0.3,0.2-0.3c0.3-0.2,0.6-0.4,1-0.2
		c-0.1-0.4,0.3-0.5,0.4-0.7c0,0,0.1,0,0.1,0c0.3,0,0.4-0.1,0.5-0.4c0,0,0.1,0,0.1,0c0.1,0.1,0.3,0.1,0.4,0c0.1-0.1,0.1-0.1,0.2-0.1
		c0.2,0,0.4,0,0.6-0.1c0.1,0,0.2-0.1,0.2-0.1c0.3,0,0.3,0,0.4,0.2c0.2,0,0.3,0,0.5,0c0,0.1-0.1,0.1-0.1,0.1c0,0-0.1,0.1-0.1,0.1
		c0.1,0,0.1,0.1,0.2,0.1c0.1,0,0.3,0,0.4,0c0.2,0,0.4,0.1,0.5,0.3c0,0,0.1,0.1,0.1,0.1c0.3,0,0.5,0.2,0.7,0.5
		c0.1,0.1,0.3,0.3,0.4,0.4c0.1,0.2,0.2,0.4,0.3,0.6c0.1,0.4,0.1,0.7,0.1,1.1c0,0,0,0.1,0,0.1c-0.3,0.1-0.1,0.3-0.1,0.5
		c0.1,0,0.2,0,0.4,0c0,0.1,0,0.2,0,0.3c0,0.1,0,0.2,0.1,0.2c0.1,0,0.1,0.3,0,0.4c0,0-0.1,0.1-0.1,0.2c-0.1,0.3-0.2,0.4-0.5,0.4
		c-0.1,0-0.2,0-0.2,0.2c0,0.2,0,0.4,0,0.6c0,0,0,0,0,0.1c0.2,0,0.4-0.1,0.5,0c0.1,0.1,0.3,0.2,0.2,0.5c-0.2,0-0.4,0-0.6,0.1
		c-0.1,0-0.3,0-0.4,0c-0.1,0-0.1-0.1-0.2-0.1c-0.1,0-0.2-0.1-0.3-0.1c0-0.1,0-0.2-0.1-0.3c-0.1,0-0.2,0-0.4,0
		c-0.1,0-0.1-0.1-0.2-0.1c0,0-0.1,0-0.1,0c-0.1,0.1-0.2,0.2-0.3,0.3c-0.1,0-0.3,0-0.4,0c0,0.2-0.1,0.2-0.2,0.2
		c-0.1,0-0.3-0.1-0.3,0.2c0,0-0.1,0-0.2,0c0-0.1,0-0.1,0-0.2c0.1-0.1,0.3-0.3,0.4-0.4c0,0,0-0.1,0-0.1c0-0.2,0-0.4,0.1-0.5
		c0.1,0,0.1-0.1,0.2-0.1c0.2,0,0.5,0,0.7-0.1c0.1-0.1,0.2-0.2,0.2-0.3c0,0,0-0.1-0.1-0.3c-0.1,0.1-0.2,0.1-0.3,0.2
		c-0.1-0.3-0.3-0.2-0.4-0.2c-0.1,0-0.1,0.1-0.2,0.2c-0.5,0-0.9,0.1-1.4,0.1c-0.1,0-0.2-0.1-0.2-0.1c0-0.1-0.1-0.3,0.1-0.4
		c0,0,0.1-0.1,0.1-0.2c0-0.1,0-0.3,0-0.4c-0.1-0.2,0.1-0.4,0.2-0.5c0,0,0.1,0,0.1,0c0.2,0,0.2-0.1,0.2-0.2c0-0.3-0.1-0.6-0.1-0.8
		c-0.2-0.1-0.1,0.1-0.2,0.1c-0.1,0-0.2,0-0.3,0.1c0,0.1,0,0.2,0,0.3c0,0-0.1,0.1-0.1,0.1c-0.1,0-0.1-0.1-0.2-0.1
		c0,0.1,0,0.2-0.1,0.3c0,0,0,0,0,0.1C11.7,102.1,11.6,102.1,11.5,102.2c0-0.1,0-0.2,0-0.4c-0.1,0.1-0.3,0.1-0.3,0.1
		c0,0.1,0,0.3,0,0.4c0,0,0.1,0,0.1,0c0,0,0.1-0.1,0.1-0.1C11.3,102.2,11.4,102.2,11.5,102.2z M15.9,102.9c0-0.1,0-0.3,0-0.5
		c-0.1,0-0.1,0-0.1,0c-0.2,0.1-0.3,0-0.2-0.2c0-0.1,0-0.2,0-0.3c-0.1,0-0.2,0-0.4,0c0-0.1,0-0.2,0-0.3c-0.1,0-0.2,0-0.3,0
		c0-0.1,0-0.2,0-0.3c0,0,0,0-0.1,0c0-0.1-0.1-0.1-0.1-0.2c0-0.1,0-0.2-0.1-0.3c-0.1-0.1-0.2-0.2-0.2-0.4c0,0,0,0,0,0
		c-0.1,0-0.2,0-0.3,0c-0.1,0.1-0.1,0.2-0.2,0.3c0,0.1,0,0.3,0,0.4c-0.1,0.1-0.2,0.2-0.3,0.3c0,0,0,0.1,0,0.1c0,0,0.1,0.1,0.1,0.1
		c-0.1,0-0.1,0.1-0.2,0.1c0,0.2,0,0.3,0,0.5c0.1,0,0.2,0,0.3,0c0,0.1,0,0.1,0.1,0.2c0.1,0,0.2,0,0.4,0c-0.1,0.1-0.2,0.3-0.3,0.4
		c0,0-0.1,0.1-0.1,0.1c0,0,0.1,0.1,0.1,0.1c0.2,0,0.5,0,0.7-0.1c0.1,0,0.2,0,0.2,0.2c0.2,0.1,0.5-0.2,0.6,0.1
		C15.7,103.1,15.8,103,15.9,102.9z M11.4,100.8c0,0.1,0,0.3,0,0.3c0.1,0.1,0.3,0.2,0.4,0.4c0,0,0.1,0,0.1,0c0-0.1,0.1-0.1,0.1-0.2
		c0.1-0.1,0.1-0.2,0.2-0.4c-0.2,0-0.3,0-0.4,0c0,0-0.1,0-0.1,0C11.7,100.7,11.6,100.8,11.4,100.8z"/>
	<path d="M9.9,37.5c-0.1-0.2-0.4-0.3-0.2-0.5c0.1-0.1,0.4,0.1,0.3-0.2c0.1,0,0.2,0,0.2,0c0.2,0,0.3-0.2,0.4-0.3c0,0,0,0,0-0.1
		c0.3-0.1,0.5-0.2,0.8-0.2c0.1,0,0.2,0.1,0.3,0.2c0,0.1-0.1,0.3,0.2,0.3c0,0,0,0.1,0,0.1c0,0.2,0.1,0.4,0.2,0.6c0,0,0.1,0,0.1,0
		c0.4,0,0.8,0,1.2-0.1c0.1,0,0.3-0.2,0.5-0.2c0,0,0-0.1,0-0.2c0.2,0,0.4,0,0.5,0c0.1,0,0.1,0,0.2,0.1c0,0-0.1,0.1-0.1,0.1
		c-0.1,0-0.1,0-0.2,0.1c0,0-0.1,0.1-0.1,0.1c0,0,0.1,0.1,0.1,0.1c0.1,0,0.1,0,0.2,0c0,0,0,0.1,0,0.1c-0.2,0.1-0.2,0.3-0.1,0.5
		c0,0.2,0,0.4-0.2,0.3c0,0-0.1,0-0.1,0c0,0.2-0.2,0.2-0.4,0.2c0,0.2,0,0.3,0,0.5c-0.1-0.1-0.2-0.1-0.3-0.2c0,0.2,0,0.4,0,0.6
		c0,0-0.1,0-0.1,0.1c0,0.1,0,0.2,0,0.3c-0.1,0-0.3,0-0.4,0c0,0-0.1,0-0.1,0c-0.1-0.3-0.3-0.1-0.4-0.1c0,0-0.1,0.1-0.1,0.2
		c0,0.3,0,0.6,0,0.9c0,0.1,0,0.1-0.1,0.2c0,0-0.1-0.1-0.2-0.2c-0.1,0-0.2,0-0.3,0c-0.4,0-0.5,0.1-0.5,0.5c0,0.1,0.1,0.3-0.1,0.3
		c-0.1-0.1-0.1-0.1-0.1-0.2c0,0.1-0.1,0.1-0.1,0.2c-0.1,0.2-0.5,0.3-0.6,0.3c0,0,0,0,0,0c0-0.2-0.1-0.5,0-0.7
		c0.1-0.1,0.1-0.3,0.1-0.4c0.1,0,0.2,0,0.3,0c0-0.1,0-0.1,0-0.2c0,0,0-0.1,0-0.1c0.2,0,0.1-0.2,0.1-0.3c0-0.3,0-0.6-0.1-0.9
		c-0.2-0.3-0.6-0.2-0.9-0.2c-0.1,0-0.2,0-0.2,0.1c0,0.1-0.2,0.1-0.2-0.1c-0.1,0-0.3,0-0.4,0c-0.1,0-0.2,0-0.2-0.1
		c0-0.1-0.3-0.1-0.4,0c0,0.1-0.1,0.1-0.2,0.1c-0.2,0-0.3,0.1-0.5,0.3c-0.1,0.1,0,0.2,0,0.3c0,0.1,0,0.1,0.1,0.2
		c0.1,0.1,0.4,0.2,0.3,0.4c0,0.1-0.1,0.2-0.2,0.3c0,0-0.1-0.1-0.2-0.1c-0.3,0-0.4-0.1-0.5-0.4c-0.1,0-0.3-0.1-0.4,0.2
		c0,0-0.1,0-0.1,0c-0.1,0-0.2,0-0.2,0.2c0,0-0.1,0.1-0.1,0.1c-0.2,0-0.2,0.2-0.2,0.3c0,0.2,0,0.4,0.1,0.5c0.2,0.1,0.4,0.3,0.3,0.5
		c-0.1,0.1-0.3,0-0.3,0.2c0,0-0.1,0-0.1,0c-0.1,0-0.1-0.1-0.2-0.1c-0.2,0-0.4,0-0.6,0c0,0.1,0,0.1,0,0.2c0,0.1,0.3,0,0.1,0.2
		c-0.1,0.1-0.1,0.1-0.2,0.2c0,0-0.1,0.1-0.1,0.2c-0.2,0-0.4,0.2-0.5-0.1c-0.1,0-0.1,0-0.2,0c-0.3,0-0.4-0.1-0.5-0.4
		c0-0.2-0.1-0.5-0.1-0.7c0.1,0,0.2,0,0.4-0.1c-0.2-0.5,0.2-0.7,0.5-1c0-0.1,0-0.2,0-0.2c0.1-0.2,0.2-0.3,0.3-0.4c0,0,0,0,0,0
		c0.1,0,0.3-0.2,0.4-0.2c0.3-0.1,0.4-0.4,0.6-0.6c0.3-0.2,0.1-0.5,0.1-0.7c0-0.1,0-0.1,0-0.2c0,0,0-0.1,0.1-0.1c0,0,0.1,0,0.1,0
		c0.1,0.2,0.2,0.1,0.3,0.1c0.1,0,0.2,0,0.3,0c0.1,0,0.3,0,0.3-0.2c0,0,0.1-0.1,0.1-0.1c0-0.2,0-0.5,0-0.7c0-0.1,0-0.2,0.1-0.2
		c0.2,0,0.4-0.1,0.5,0.1c0,0,0.1,0,0.1,0c0.2,0,0.3,0.2,0.4,0.3c0,0,0,0.1,0,0.1c0.2,0,0.3,0.1,0.5,0.2C9.2,37.6,9.6,37.5,9.9,37.5z
		 M12.2,39c0.2,0,0.4,0,0.5,0c0.1,0.1,0.2,0.1,0.2,0.2c0,0,0,0,0.1,0c0-0.2,0-0.3,0-0.5c0-0.1-0.1-0.2-0.1-0.3c0,0,0,0-0.1,0
		c0-0.1,0-0.3,0-0.4c0,0-0.1-0.1-0.1-0.1c0,0-0.1,0.1-0.1,0.1c0,0-0.1,0.1-0.1,0.1c0,0-0.1,0-0.1-0.1c0,0-0.1-0.1-0.1-0.1
		c0,0-0.1,0.1-0.1,0.1c0,0,0,0.1-0.1,0.1c-0.1,0.1-0.2,0.2-0.3,0.2c0,0,0,0.1,0,0.1c0.1,0.1,0.2,0.2,0.4,0.2
		C12.1,38.8,12.2,38.9,12.2,39z"/>
	<path d="M12,83c-0.4,0-0.8,0-1.3,0.1c0,0.3,0,0.5,0.1,0.8c0,0,0,0.1,0,0.1c0.2,0.1,0.1,0.3,0.2,0.4c0.1,0.2,0,0.4,0,0.6
		c0,0.3,0,0.3,0.3,0.3c0.1,0,0.2,0,0.3,0c0.1,0,0.3-0.1,0.3,0.1c0,0,0.1,0,0.2,0c0.1,0,0.2,0,0.2,0.1c0,0,0.1,0,0.1,0
		c0.2,0,0.3,0,0.5,0c0.2,0,0.4,0.1,0.5,0.2c0,0,0.1,0,0.1,0c0.1,0,0.2,0,0.3,0.1c0,0,0.1,0,0.1,0c0.1,0,0.1,0.1,0.2,0.1
		c0,0,0.1,0,0.1,0c0.1,0,0.3,0,0.4,0c0,0.1,0,0.2,0,0.3c0,0.1,0,0.2,0.1,0.2c0,0,0.1,0.1,0.1,0.1c0,0.1,0,0.3,0,0.4
		c0,0.1,0.1,0.1,0.1,0.2c0,0,0.1,0.1,0.1,0.1c0,0.2,0,0.4,0,0.6c-0.2,0-0.3,0-0.5,0c0,0-0.1,0-0.1,0c-0.1-0.2-0.2-0.1-0.3-0.1
		c-0.2,0-0.3,0-0.3-0.2c0,0,0-0.1,0-0.1c-0.2-0.1-0.5-0.1-0.6-0.2c-0.2-0.2-0.4,0-0.6-0.1c-0.1,0-0.1-0.1-0.2-0.1c0,0-0.1,0-0.1,0
		c-0.2,0-0.4-0.1-0.5-0.3c0-0.1-0.2-0.1-0.3,0c-0.2,0.1-0.3-0.1-0.4-0.2c-0.1-0.1-0.1-0.2-0.2-0.3c0,0-0.1,0-0.2,0
		c0,0-0.1,0.1-0.1,0.1c-0.4,0-0.7,0-1.1,0.1c-0.2,0-0.3-0.1-0.5-0.2c-0.1,0-0.1-0.1-0.2-0.1c-0.1,0-0.1-0.1-0.2-0.1
		c-0.1,0-0.2-0.1-0.3-0.1c-0.2,0-0.3,0-0.3-0.2c0,0-0.1-0.1-0.2-0.1c-0.1,0-0.2,0-0.2-0.2c0-0.1,0-0.2,0-0.2
		c-0.1-0.3-0.2-0.4-0.5-0.4c-0.1,0-0.2,0-0.3-0.1c0,0-0.1,0-0.1,0c-0.2,0-0.4,0-0.6,0c-0.1,0-0.2,0.1-0.2-0.1c0,0-0.1,0-0.1,0
		c-0.3,0-0.5,0-0.7-0.3c0,0-0.2,0-0.2,0c-0.1,0-0.3,0-0.4,0c0-0.1,0-0.1,0-0.2c0-0.3-0.1-0.4-0.4-0.5c-0.1,0-0.1,0-0.2-0.1
		c-0.1,0-0.1-0.1-0.2-0.1c-0.2,0-0.2-0.2-0.4-0.2c0,0,0.1-0.1,0.1-0.1c0.2,0,0.4,0,0.6-0.1c0.1,0,0.1-0.1,0.2-0.1
		c0.1,0,0.1-0.1,0.2-0.1c0.1,0,0.2,0,0.4,0c0-0.2,0-0.5,0-0.7c0.1,0,0.2,0,0.3-0.1c0.1,0,0.2,0,0.2-0.1c0,0,0.2-0.1,0.3-0.1
		c0.1,0,0.3,0,0.3-0.1c0.1,0,0.1,0,0.2,0.1c0,0.1,0,0.1,0.1,0.2c0.1,0.1,0.1,0.2,0.1,0.2c0,0.2,0.1,0.4-0.2,0.4
		c0.1,0.2,0,0.4,0.2,0.5c0.3,0.2,0.2,0.3,0.5,0.3c0.1,0.2,0.2,0.3,0.3,0.5c0.1,0,0.1,0,0.2,0c0.2-0.1,0.4,0.1,0.5,0.2
		c0,0,0.1,0.1,0.1,0.1c0.1,0,0.3,0,0.3,0.2c0,0.1,0.4-0.1,0.5-0.1c0,0,0.1-0.1,0.2-0.1c0.1,0,0.1,0,0.2,0c0-0.2,0-0.4,0-0.5
		c0-0.3,0-0.3,0.3-0.4c0.1-0.1,0.1-0.1,0.2-0.2c0,0,0,0,0-0.1c0-0.3,0.2-0.3,0.4-0.3c0.1,0,0.2,0,0.3,0c0,0,0,0,0-0.1
		c0.1,0,0.2-0.1,0.3-0.1c0.3,0,0.7,0,0.9-0.1c0.2-0.2,0.3-0.3,0.4-0.4c0.1-0.1,0.2-0.3,0.3-0.5c0.3,0,0.7-0.1,1.1-0.1
		c0.4,0,0.7-0.1,1-0.3c0,0,0-0.1,0-0.2c0,0,0-0.1,0.1-0.1c0,0,0.1,0,0.1,0.1c0.1,0.1,0.2,0.2,0.3,0.3c0,0,0,0,0,0
		c0,0,0.1,0.1,0.1,0.1c0,0,0,0.1-0.1,0.1c0,0.1-0.1,0.1-0.1,0.2c0,0.4,0,0.7,0.1,1.1c0,0.1,0,0.1-0.1,0.2c0,0-0.1-0.1-0.1-0.1
		c0,0-0.1,0-0.1,0c-0.2,0-0.4,0-0.5,0c-0.1,0-0.2,0-0.3,0.1c0,0.1-0.2,0.1-0.3,0.1c-0.1-0.2-0.1-0.5-0.3-0.7
		C13.1,82.1,13,82,12.8,82c-0.2,0-0.4,0-0.6,0.1c-0.1,0.1,0.1,0.3-0.2,0.4C11.9,82.5,12,82.8,12,83L12,83z"/>
	<path d="M5.7,23.5c-0.1,0.3,0.2,0.6-0.1,0.8c0.1,0.3-0.1,0.4-0.3,0.5c0,0.1,0,0.2,0,0.3c0.1,0.1,0.1,0.1,0.2,0.2c0,0,0,0,0,0.1
		c-0.1,0-0.2,0-0.3,0c0,0.1,0,0.2,0,0.3c0.1,0.1,0.2,0.1,0.2,0.1c0,0.2,0.2,0.3,0.3,0.3c0.2,0.2,0,0.4-0.1,0.5
		c-0.1,0.1-0.2,0.2-0.3,0.4c0,0-0.1,0-0.1,0c-0.1-0.1,0-0.4-0.3-0.4c0-0.2,0-0.3,0-0.5c0-0.1,0-0.2-0.1-0.3c0,0-0.1-0.2-0.1-0.2
		c0-0.1,0-0.2,0-0.3c0-0.2-0.2-0.4-0.3-0.5c-0.2-0.1-0.1-0.2-0.1-0.4c0.1,0,0.1,0,0.2,0c0.3,0,0.4-0.1,0.5-0.3
		c0-0.1,0.2-0.1,0.3-0.2c0-0.1,0-0.2,0-0.3c0.1,0,0.1,0.1,0.1,0.1c0,0,0.1,0.1,0.1,0.1c0,0,0.1-0.1,0.1-0.1c0-0.1,0-0.1,0-0.2
		c-0.1,0-0.2,0-0.3,0c-0.2,0.1-0.4,0-0.5-0.1c-0.1-0.1-0.1-0.2-0.1-0.3C4.3,23,4.2,23,4,22.9c0,0-0.1-0.1,0-0.1
		c0.1-0.1,0.2-0.2,0.3-0.3c0.1,0,0.2-0.1,0.2-0.2c-0.1-0.3,0.1-0.4,0.2-0.5c0.1-0.2,0.2-0.3,0.3-0.5c0,0,0,0-0.1,0
		c0.1,0,0.2,0,0.3,0c0.3,0,0.4-0.1,0.6-0.3c0.1-0.1,0.2-0.1,0.3-0.2c0,0,0.1,0,0.1,0c0.2-0.3,0.5-0.2,0.7-0.2c0,0,0.1,0,0.1,0
		c0,0.3,0.2,0.4,0.4,0.5c0.2,0.2,0.5,0.2,0.5,0.6c0,0,0,0.1,0,0.1c0.3-0.1,0.4,0.3,0.7,0.2c0.1-0.1,0.3-0.2,0.3-0.4
		c0-0.1-0.1-0.3,0.1-0.4c0.1,0,0-0.4-0.1-0.5c0,0-0.1-0.1-0.1-0.1c0,0,0.1-0.1,0.1-0.1c0.1,0,0.1,0,0.2-0.1c0-0.2,0-0.4,0.1-0.5
		c0.1-0.1,0.2-0.3,0.4-0.2c0-0.3,0.2-0.2,0.3-0.2c0-0.2,0.2-0.2,0.4-0.2c0,0.1,0,0.2,0,0.2c-0.2,0.1-0.1,0.2-0.1,0.4
		c0,0.1-0.1,0.2-0.1,0.3c0,0,0,0-0.1,0c0,0.1,0,0.1,0,0.2c0.1,0.3-0.1,0.4-0.2,0.5c0,0-0.1,0.1-0.1,0.1c0,0.1,0,0.2-0.1,0.3
		c-0.1,0.1,0,0.3,0,0.4c0,0,0,0,0,0c0.3,0,0.3,0,0.3,0.3c0,0.4,0.1,0.5,0.6,0.5c0.1,0,0.2,0,0.4,0c0,0.3,0.2,0.4,0.3,0.5
		c0.2,0.2,0.4,0.1,0.6,0.2c0,0,0,0.1,0,0.2c0,0,0,0.1,0,0.1c0.2,0.1,0.2,0.1,0.1,0.4c-0.2,0-0.4,0.2-0.5,0.4c0,0.1-0.2,0.1-0.3,0.1
		c0-0.2,0-0.3-0.1-0.5c-0.1,0.1-0.1,0.1-0.2,0.2c-0.1,0.1-0.2,0.2-0.3,0.3c-0.1,0.1-0.1,0.3,0,0.4c0.1,0.2,0.3,0.2,0.5,0.1
		c0,0,0,0,0,0.1c-0.1,0.1-0.2,0.2-0.2,0.3c-0.1,0.1-0.2,0.2-0.3,0.3c-0.1,0.1-0.2,0.2-0.3,0.3c-0.1,0.1-0.2,0.1-0.2,0.2
		c0,0.2-0.2,0.2-0.3,0.2c-0.1,0-0.2,0-0.3,0.1c0,0.1-0.2,0.1-0.3,0.1c-0.1,0-0.3-0.1-0.4,0.2c0,0-0.1,0-0.1,0.1c0,0,0,0.1,0,0.1
		c0,0.1,0,0.1,0,0.2c-0.1,0-0.1-0.1-0.2-0.1c-0.1-0.1-0.1-0.2-0.2-0.2c-0.2,0-0.1-0.1-0.2-0.2c0,0,0-0.1,0-0.1
		c-0.2,0-0.2-0.2-0.2-0.4c-0.1,0-0.3,0-0.4,0c-0.1,0-0.3,0.1-0.3-0.1c0,0-0.2,0-0.3,0c-0.1-0.1,0-0.2,0.1-0.2c0.2,0,0.3,0,0.5,0
		c0.1-0.1-0.1-0.4,0.2-0.4c0-0.3-0.1-0.7-0.1-1c0-0.1,0.1-0.2,0.1-0.3c0,0,0,0,0.1,0c0-0.3,0-0.5-0.1-0.8c-0.3,0-0.6,0-0.9,0.1
		c-0.2,0-0.2,0-0.2-0.2c0-0.2,0-0.3,0-0.6C6.9,22.4,7,22.4,7,22.4c0,0,0.1,0.1,0.1,0.1c0,0,0.1-0.1,0.1-0.1c0-0.1-0.1-0.3,0.1-0.3
		c0,0,0-0.1,0-0.2c0-0.1,0.1-0.1,0.1-0.2c0-0.1,0.1-0.2,0-0.2c-0.1-0.1-0.3-0.2-0.4-0.3c0,0-0.1,0-0.1,0c-0.1,0.1-0.3,0.2-0.3,0.4
		c0,0.1,0,0.2,0,0.3c-0.5,0-0.2,0.4-0.3,0.6c-0.1,0-0.3,0-0.5,0.1c0,0.2,0,0.4,0,0.6c0.2,0.2,0.3,0.3,0.4,0.4
		c0.1,0.1,0.2,0.1,0.3,0.2C6.6,24,6.8,23.9,6.9,24c0,0,0.1,0.1,0.1,0.1c0,0.2,0,0.5,0,0.7c-0.3,0-0.4,0.2-0.5,0.4
		c-0.1,0.1-0.2,0.2-0.2,0.4c0,0-0.1,0.1-0.2,0.1c0-0.5-0.1-0.9-0.1-1.3c0.1,0,0.2,0,0.2,0c0,0,0.1,0,0.1,0c0,0,0-0.1-0.1-0.1
		c-0.1,0.1-0.1-0.3-0.3-0.1c0,0-0.1,0.1-0.1,0.1c0,0-0.1-0.1-0.1-0.1c0-0.1-0.1-0.4,0.1-0.4c0,0,0-0.1-0.1-0.1
		C5.8,23.5,5.7,23.5,5.7,23.5z M10.1,23.4c-0.1,0-0.3,0-0.4,0c0,0-0.1,0-0.1,0.1c0,0,0,0.1,0,0.1c0.1,0,0.2,0.1,0.3,0.1
		C10,23.6,10.1,23.5,10.1,23.4c0.2,0,0.4-0.3,0.3-0.5c0-0.1-0.1-0.1-0.1-0.2c-0.1,0.1-0.1,0.1-0.2,0.2c-0.1,0-0.3,0-0.5,0
		c0,0.1,0,0.2,0,0.3c0.1,0,0.1,0,0.2,0C10.1,23.2,10.2,23.2,10.1,23.4z M8.4,23.4C8.3,23.4,8.3,23.4,8.4,23.4
		c-0.1,0.1-0.2,0.2-0.2,0.3c0,0.4,0.1,0.8,0.1,1.2c0.2,0.1,0.3,0.2,0.5,0.4c0.1,0,0.2-0.1,0.2-0.1c0.1-0.1,0.2-0.3,0.2-0.5
		c0,0,0-0.1-0.1-0.1c0,0-0.1,0-0.1,0.1c0,0-0.1,0.1-0.1,0.1c-0.1-0.2,0-0.5-0.3-0.6c0-0.3,0-0.7-0.1-1c0.4,0.1,0.4-0.1,0.3-0.4
		c0.1,0,0.3,0,0.3-0.1c0-0.2,0.2-0.2,0.4-0.2c0,0,0,0,0-0.1c0.1-0.1,0.1-0.1,0.2-0.2c0,0-0.1-0.1-0.2-0.2c0,0,0-0.1,0-0.1
		c0-0.1,0-0.1,0-0.2C9.3,22.1,9,21.9,8.7,22c0.1,0.1,0.1,0.1,0.2,0.1c0,0,0.1,0.1,0.1,0.1c0,0,0,0.1-0.1,0.1
		c-0.1,0.1-0.2,0.2-0.3,0.3c-0.1,0.1-0.1,0.3-0.2,0.3c-0.2,0-0.1,0.2-0.1,0.3C8.3,23.3,8.3,23.3,8.4,23.4z"/>
	<path d="M12.9,76.1c0-0.3,0-0.7-0.1-1c0-0.1,0-0.2,0-0.3c0-0.1,0-0.1,0.1-0.2c0,0,0.1,0.1,0.1,0.1c0.2,0,0.4,0,0.6,0
		c0.1,0,0.2,0,0.2,0c0,0.1,0,0.2,0.1,0.4c0,0.1,0.1,0.1,0.1,0.2c0,0.1,0.1,0.2,0.1,0.2c0,0.3,0.2,0.3,0.3,0.5
		c0.2,0.3,0.5,0.1,0.8,0.1c0.2,0,0.5,0,0.7,0c0.1,0.3,0.1,0.3-0.3,0.4c0,0.2,0,0.5,0.1,0.7c0,0.1,0.1,0.2,0.2,0.2
		c0.2,0.1,0.2,0.3,0.4,0.2c0,0,0,0,0,0c0.1,0.2,0.3,0.1,0.5,0.1c0.1,0,0.2,0.1,0.3,0.2c0.1,0.1,0.2,0.2,0.3,0.3c0,0,0,0,0,0.1
		c-0.4,0-0.8,0.1-1.2,0.1c-0.1,0-0.1-0.1-0.2-0.2c-0.2,0.1-0.4-0.1-0.5-0.3c0,0-0.1,0-0.1-0.1c-0.1,0-0.2-0.1-0.3-0.1c0,0,0,0,0-0.1
		c-0.1,0-0.2,0-0.4,0c0,0-0.1,0-0.1,0c0,0.2-0.2,0.2-0.3,0.2c0,0-0.1,0-0.1,0.1c0,0.2,0,0.4,0.1,0.6c0.1,0.2,0.3,0.3,0.5,0.4
		c0,0.1,0,0.2,0,0.4c0,0.1-0.1,0.2-0.2,0.3c-0.1,0.1-0.2,0.2-0.4,0.3c-0.3,0-0.5-0.1-0.6-0.4c0,0,0-0.1-0.1-0.1
		c-0.2,0-0.1-0.1-0.1-0.2c0-0.1-0.1-0.1-0.1-0.1c-0.3,0.1-0.4-0.2-0.6-0.4c-0.3-0.1-0.3-0.4-0.3-0.7c-0.2,0-0.4,0-0.6,0
		c0,0-0.1,0-0.1,0c-0.1,0.3-0.3,0.2-0.5,0.2c0,0-0.1-0.1-0.2-0.1c0,0,0,0,0,0c-0.2,0-0.4-0.2-0.5-0.2c-0.2,0-0.5,0-0.7,0
		c0,0-0.1,0-0.1,0c-0.1,0.2-0.3,0.1-0.4,0.2c0,0.1,0,0.3,0.2,0.3c0,0,0,0,0,0.1c0,0.3,0.1,0.7,0.1,1c-0.1,0-0.2,0-0.3,0.1
		c0,0.2,0,0.3,0,0.5c-0.2,0.1-0.3,0-0.4,0.2c-0.1,0.1-0.3,0-0.4,0c-0.1-0.1,0-0.3-0.2-0.4C8.4,80,8.3,79.9,8.1,80
		c-0.2,0-0.4,0-0.3-0.3c0-0.1,0-0.3,0-0.4c0-0.1,0-0.2,0.1-0.2c0,0,0-0.1,0-0.2c0-0.1-0.1-0.3,0.1-0.3c0,0,0-0.1,0-0.2
		c0,0,0-0.1,0.1-0.1c0,0,0.1,0.1,0.1,0.1c0,0,0,0,0,0c0.1,0,0.1,0,0.2,0c0.1-0.1,0.1-0.2,0.2-0.3c-0.1,0-0.1-0.1-0.2-0.1
		c-0.1,0-0.2,0-0.3,0c0,0-0.1,0-0.1-0.1c0,0,0.1-0.1,0.1-0.1c0.1,0,0.2-0.1,0.2-0.1c0-0.2,0-0.4,0-0.6c0,0,0,0,0,0
		c0,0-0.1-0.1-0.1-0.1c0,0,0.1-0.1,0.1-0.1c0.1,0,0.2,0,0.2,0.1c0.1,0.1,0.2,0.1,0.2,0c0.1-0.1,0.2-0.2,0.3-0.3c0-0.1,0-0.2,0-0.2
		c0-0.2,0.1-0.3,0.3-0.3c0.1,0,0.2,0,0.4,0c0.1,0,0.1-0.1,0.2-0.1c0.1-0.1,0.5-0.1,0.6,0c0,0,0.1,0.1,0.2,0.1c0.1,0,0.2,0,0.2,0.1
		c0,0,0,0,0.1,0c0.2-0.1,0.4,0.1,0.5,0.3c0,0,0.1,0,0.2,0c0.3,0,0.5,0,0.8,0c0.1,0,0.2,0,0.3-0.2C12.6,76.2,12.8,76.2,12.9,76.1z
		 M9.4,79c-0.3,0-0.2,0.2-0.2,0.3c0,0,0.1,0.1,0.1,0.1C9.3,79.2,9.3,79.1,9.4,79z"/>
	<path d="M11.6,44.1c0,0,0.1,0,0.2,0c0,0.2,0,0.5,0,0.7c0.2,0.1,0.3,0,0.5,0.1c0.1,0.1,0.4,0,0.5,0c0.2-0.1,0.3,0.1,0.5,0.2
		c0.1,0,0.1,0.1,0.1,0.1c0,0,0,0.1,0,0.1c-0.1,0.1-0.2,0.3-0.4,0.4c-0.1,0.1-0.2,0.2-0.3,0.3c0,0.1,0,0.3,0,0.5c0,0.1,0,0.2-0.1,0.3
		c-0.2,0.3-0.5,0.4-0.7,0.2c-0.2-0.2-0.4,0-0.6-0.1c0-0.1-0.1-0.3,0.1-0.4c0,0,0-0.2,0-0.2c0-0.2-0.1-0.4,0.1-0.5c0,0,0-0.2,0-0.2
		c-0.1-0.1-0.1-0.2-0.2-0.2c-0.1,0-0.1,0-0.2,0c0,0,0,0.1-0.1,0.1c-0.1-0.1-0.2-0.1-0.3-0.2c0,0,0,0,0,0c-0.1-0.1-0.2-0.2-0.2-0.3
		c0-0.1,0-0.2-0.1-0.2c0-0.1,0-0.2,0-0.2c-0.2,0-0.3,0-0.5,0c-0.2,0.2-0.2,0.5-0.2,0.8c0,0.1-0.1,0.2-0.2,0.3
		c-0.1,0.1-0.1,0.1-0.1,0.2c0,0.2,0,0.4,0,0.7c-0.1,0-0.2,0-0.3,0c-0.1,0-0.2,0-0.2,0.1c0,0-0.1,0-0.1,0c-0.3,0.1-0.4,0.2-0.4,0.6
		c0,0.1,0,0.2,0,0.3c0,0.1,0,0.1-0.1,0.2c-0.1,0-0.1-0.1-0.2-0.1c-0.3,0.1-0.5,0-0.7-0.3c0,0,0,0,0,0c-0.2,0.1-0.4-0.2-0.6-0.2
		c0,0-0.1,0-0.1,0c-0.2-0.2-0.4-0.2-0.6,0c0,0-0.1,0-0.2,0.1c-0.1,0-0.3,0-0.3,0.2c0,0-0.1,0-0.1,0.1c-0.1,0-0.2,0.1-0.2,0.1
		c0,0-0.1,0-0.1,0c0,0,0-0.1,0.1-0.1c0.1-0.1,0.1-0.1,0-0.2c-0.2-0.1-0.3-0.2-0.3-0.4c0-0.2-0.1-0.3-0.3-0.4c0,0,0-0.1-0.1-0.1
		c-0.1-0.1-0.1-0.1-0.2-0.2c0,0,0,0,0,0c0-0.2-0.2-0.3-0.2-0.4c-0.1-0.2,0-0.4,0-0.6c0,0,0.1-0.1,0.1-0.1c0.2-0.1,0.1-0.4,0.3-0.6
		c0.1-0.1-0.1-0.4-0.1-0.5c0,0-0.1-0.1-0.1-0.1c0,0,0.1-0.1,0.1-0.1c0.2,0,0.4,0,0.6,0c0.3,0,0.4-0.1,0.5-0.3
		c0.1-0.1,0.2-0.2,0.3-0.3c0.1-0.1,0.2-0.2,0.2-0.3c0.1-0.2,0.3-0.2,0.4,0C6.9,43,7,43.1,7.1,43.2c0.1,0.1,0.1,0.2,0.1,0.2
		c0,0.1,0,0.2,0,0.2c0.3,0.2,0.2,0.5,0.2,0.8c-0.2,0-0.4,0-0.6,0c-0.2,0-0.4,0-0.7,0.1c-0.1,0-0.2,0.1-0.4,0.2
		c-0.2,0.1-0.1,0.4-0.3,0.6c-0.1,0.1,0,0.3,0,0.4c0,0,0.1,0,0.2,0.1c0,0,0.1,0,0.1,0c0,0.1,0,0.2,0.1,0.3c0.1,0,0.1,0,0.2,0
		c0.3,0,0.7,0.1,1,0.2c0.2,0.1,0.3,0.1,0.5,0.1c0.1,0,0.1-0.1,0.2-0.1c0,0,0.1-0.1,0.1-0.1c0.1,0,0.2,0,0.2-0.2
		c0-0.1,0.2-0.1,0.3-0.1c0-0.1,0-0.2,0-0.3c0.1,0,0.2-0.1,0.3-0.1c0.1,0,0.2,0,0.2-0.1c0,0,0,0,0.1,0c0.3-0.1,0.3-0.1,0.3-0.4
		c0,0,0.1,0,0.1,0c0,0,0.1,0,0.1,0c0-0.2,0-0.5,0-0.7c0.1,0,0.2-0.1,0.3-0.1c0-0.4-0.1-0.7-0.1-1.1c0,0,0-0.1,0-0.1
		c-0.2-0.1-0.1-0.2-0.2-0.4c0,0,0,0,0-0.1c0.1,0,0.1,0.1,0.2,0.1c0.1,0,0.1,0.1,0.2,0.1c0.1,0,0.2,0,0.2,0c0,0.3,0.3,0.4,0.3,0.8
		c0,0.2,0,0.3,0.2,0.3c0.3,0,0,0.2,0,0.3c0.2,0.1,0.5,0,0.7,0C11.5,44.1,11.6,44.1,11.6,44.1z"/>
	<path d="M6.6,34.6c-0.1,0.1-0.3,0-0.3,0.2c0,0,0,0,0,0C6,35,5.8,35,5.7,35.1c-0.1,0.1-0.2,0.2-0.3,0.3c0,0,0,0.1-0.1,0.1
		C5.2,35.7,5,35.9,4.9,36c0,0-0.1,0.1-0.1,0.1c0,0-0.1-0.1-0.1-0.1c0-0.1,0-0.2,0-0.4c0-0.1,0-0.2-0.1-0.2c0,0,0-0.1-0.1-0.2
		c0.3,0,0.5,0,0.7-0.1c0-0.1,0-0.2,0-0.3c0-0.1-0.1-0.3,0.1-0.3c0-0.3-0.1-0.6-0.1-0.9c0,0-0.1-0.1-0.1-0.1c0,0,0.1-0.1,0.1-0.1
		c0.1,0,0.1,0,0.2,0c0.3,0,0.3,0,0.4-0.4c0.1,0,0.2,0,0.3-0.1c0.1-0.1-0.1-0.3,0.2-0.4c0-0.2,0.2-0.1,0.4-0.2c0-0.1,0-0.1,0-0.2
		c0-0.1,0-0.2,0-0.3c0.3,0,0.6,0,0.7-0.4c0.3-0.1,0.4-0.1,0.3-0.4c0-0.1-0.1-0.1-0.1-0.1c-0.3-0.1-0.3-0.1-0.2-0.4
		c0.1,0,0.3,0,0.4,0.1c0.1,0.1,0.3,0,0.5,0c0-0.4-0.1-0.8-0.1-1.2c0.2-0.1,0.4,0.1,0.4,0.4c0.2,0,0.4,0,0.5,0c0.2,0,0.3-0.2,0.5-0.3
		c0-0.2,0-0.3,0.3-0.3c0.1,0,0.2-0.1,0.2-0.2c0.1-0.1,0.1-0.1,0.2-0.2c0.1,0,0.1-0.1,0.2-0.1c0.1,0,0.3-0.1,0.4-0.1
		c0.1,0,0.1,0.1,0.2,0.2c0.2-0.1,0.3,0.1,0.4,0.2c0,0,0,0.1,0,0.1c0,0.3,0,0.6,0.1,0.9c-0.1,0-0.2,0.1-0.2,0.1
		c-0.3,0-0.4,0.2-0.5,0.4c-0.1,0.2-0.3,0.3-0.4,0.5c-0.1,0.1-0.1,0.1-0.1,0.2c-0.1,0.1-0.2,0.2-0.4,0.2c-0.1,0-0.1,0.1-0.2,0.2
		c-0.1,0.1,0,0.1,0.1,0.2c0,0,0,0,0,0c0,0.3,0.1,0.3,0.4,0.3c0.1,0,0.2,0.1,0.3,0.2c0.1,0,0.1,0.1,0.2,0.1c0.2,0.1,0.4,0.1,0.7,0.1
		c0,0,0.1,0.1,0.1,0.2c0,0,0.1,0,0.2,0c0.1,0,0.2,0,0.2,0.1c0.1,0.3-0.1,0.5-0.2,0.6c0,0,0,0.1-0.1,0.1c0,0-0.1,0.1-0.1,0.1
		c0,0-0.1-0.1-0.1-0.1c0-0.2-0.1-0.3-0.3-0.3c0,0-0.1,0-0.1-0.1c0-0.3-0.4-0.3-0.4-0.6c0-0.1-0.2-0.1-0.3-0.2
		c-0.4-0.4-0.9-0.1-1.3-0.1c-0.1,0-0.1,0.1-0.2,0.2c-0.1,0.1-0.1,0.3-0.2,0.3c-0.2,0.1-0.3,0.2-0.4,0.4c0,0-0.1,0-0.2,0.1
		c0,0,0,0.1,0,0.1c0,0.2,0,0.2-0.2,0.2c0,0-0.1,0-0.1,0c0,0.2-0.1,0.1-0.2,0.2C7.2,34,7.2,34,7.1,34c0,0-0.1,0.1-0.1,0.1
		C6.7,34.2,6.6,34.3,6.6,34.6z"/>
	<path d="M9.5,18.5c-0.2,0.4-0.5,0.1-0.7,0.3c-0.1-0.2,0-0.4-0.2-0.4c0,0,0-0.1,0-0.1c0,0,0,0,0,0c0.1,0,0.2-0.1,0.3-0.1
		C8.8,18,9,17.7,8.7,17.7c0,0-0.1,0,0-0.1c0-0.3-0.1-0.3-0.4-0.3c0-0.1,0-0.1,0-0.2C8.3,17,8.2,17,8.1,17c-0.1,0-0.2-0.1-0.2-0.1
		c0,0,0,0,0-0.1c-0.1,0-0.1,0-0.2,0c-0.2,0.1-0.4-0.1-0.5-0.3c0,0-0.1,0-0.1-0.1c0,0-0.1-0.1-0.1-0.1c0,0,0.1-0.1,0.1-0.1
		c0.1,0,0.2,0,0.4,0c0.1-0.2,0.2-0.3,0.3-0.5c0.1,0,0.3,0,0.4,0c0.2,0,0.3-0.2,0.3-0.3c0-0.1,0.1-0.3-0.1-0.4c0,0,0-0.2,0-0.2
		c0,0,0-0.1,0.1-0.1c0.1,0,0.1,0.1,0.2,0.2c0.2-0.3,0.4-0.5,0.8-0.4c0,0.5,0.1,0.9,0.1,1.4c0.1,0,0.1,0,0.2,0c0,0,0.1,0,0.1,0
		c-0.1,0.3,0.3,0.3,0.2,0.6c0.3,0,0.6,0.1,0.8-0.1c0.2-0.1,0.5-0.2,0.6-0.5c0-0.1,0.2-0.1,0.3-0.1c0.1,0.2,0.1,0.4,0.3,0.1
		c0,0,0.1,0,0.1,0c0.1,0,0.1,0.1,0.1,0.1c0,0,0,0.1,0,0.1c-0.3,0.1-0.1,0.3-0.1,0.4c-0.1,0-0.1,0-0.2,0c0,0-0.1,0-0.1,0.1
		c0,0,0,0.1,0,0.1c0.1,0.1,0.1,0.1,0.1,0.3c-0.1,0-0.2,0-0.3,0c0-0.1,0-0.2-0.1-0.3c-0.1,0-0.3,0.1-0.4-0.1c0,0-0.2,0-0.3,0
		c-0.1,0-0.2,0-0.2,0.1c0,0.1-0.2,0.1-0.3,0.1c-0.1,0.1,0.1,0.4-0.2,0.4c0,0.1,0.1,0.3-0.1,0.4c0,0,0,0.1,0,0.2c0,0.2,0,0.3,0,0.5
		c-0.1,0.1-0.3,0-0.4,0.2C9.8,18.5,9.6,18.5,9.5,18.5z"/>
	<path d="M4.4,16.5c-0.2,0-0.4,0-0.5,0c0,0-0.1,0-0.1-0.1c0,0,0.1-0.1,0.1-0.1c0,0,0.1-0.1,0.1-0.1c0-0.3,0.3-0.4,0.4-0.7
		c0.1-0.3,0.4-0.2,0.6-0.2c0.1,0,0.3,0.1,0.4-0.2c0,0,0.1,0,0.1,0c0.3,0,0.6-0.1,0.9-0.1c0.2,0.3,0,0.5-0.1,0.6
		c-0.3,0.2-0.3,0.5-0.2,0.8c0,0,0.1,0.1,0.1,0.1c0,0,0.1,0.1,0.1,0.1c0,0-0.1,0.1-0.1,0.1c-0.1,0.1-0.2,0.2-0.2,0.4
		c0,0.4,0.1,0.8,0.1,1.2c0,0.2-0.2,0.5-0.4,0.4c-0.1,0-0.3-0.1-0.3-0.2c-0.1-0.2-0.2-0.1-0.3-0.1c-0.1,0-0.1,0-0.2,0
		c-0.1,0-0.2,0-0.2-0.1c0-0.1-0.2-0.2-0.3-0.2C4,18.1,3.9,18,4.1,18c0,0,0.1-0.2,0.1-0.2c-0.1-0.2,0.1-0.3,0.2-0.5
		c0-0.1,0.1-0.1,0.1-0.2C4.4,16.9,4.4,16.7,4.4,16.5z"/>
	<path d="M5.4,30.1c0,0.1,0,0.1,0,0.2c-0.1,0-0.2,0-0.4,0.1c0.1,0.2-0.1,0.3-0.1,0.5c0,0-0.1,0.1-0.2,0.1c-0.2,0-0.3,0-0.5,0
		c-0.3,0.1-0.5,0-0.6-0.3c0,0-0.1,0-0.1,0c0-0.1,0-0.1-0.1-0.2c0.2,0,0.1-0.1,0.1-0.2c0,0,0.1-0.1,0.1-0.1c0,0,0.1,0.1,0.1,0.1
		c0,0.1,0,0.2,0.1,0.4c0.3,0,0.5,0,0.8-0.1c0.1-0.2,0.2-0.3,0.2-0.5c0,0,0,0,0,0c0.1,0,0.2,0,0.3,0c0-0.2,0.2-0.2,0.3-0.2
		c0.3,0,0.5,0,0.8,0c0.1,0,0.1,0,0.2,0.1c0,0-0.1,0.1-0.2,0.1c-0.1,0.1-0.3,0-0.4,0.2c0,0-0.1,0-0.2,0C5.6,30,5.5,30.1,5.4,30.1z"/>
	<path d="M11.4,11.8c0,0.1,0,0.2,0,0.3c-0.1,0-0.1,0-0.2,0c-0.2,0-0.4,0.1-0.5,0.3c-0.1,0-0.1,0.1-0.2,0.1c-0.1,0.1-0.3,0.2-0.5,0.3
		c0,0.1,0,0.2,0,0.3c0,0,0,0.1-0.1,0.1c0,0-0.1-0.1-0.1-0.1c0,0,0-0.1,0-0.1c0-0.2,0-0.3-0.3-0.3c0,0-0.1,0-0.1-0.1
		c0,0,0-0.1,0.1-0.1c0.1-0.1,0.3-0.1,0.4-0.2c0.1-0.2,0.4-0.1,0.5-0.2c0.1-0.1,0.3-0.2,0.3-0.4c0-0.1,0-0.2,0.2-0.2
		c0.1,0,0.3-0.1,0.4,0.1C11.2,11.8,11.3,11.8,11.4,11.8z"/>
	<path d="M13.6,54.7c-0.2,0-0.4,0-0.5,0c0,0.2,0,0.4,0,0.6c0,0.1,0,0.2-0.2,0.2c-0.4,0-0.7-0.2-0.8-0.5c0,0,0-0.1,0-0.1
		c-0.2-0.1-0.2-0.2-0.2-0.4c0,0,0,0,0,0c0.3,0,0.5,0,0.8-0.1c0.1,0,0.3-0.1,0.3,0.1c0,0,0.2,0,0.3,0C13.6,54.5,13.6,54.6,13.6,54.7
		L13.6,54.7z"/>
	<path d="M3.4,29.1c-0.1,0-0.3,0.2-0.4-0.1c-0.4,0-0.4,0-0.3-0.4c0.3,0,0.6,0,0.9-0.1C3.6,28.7,3.5,28.9,3.4,29.1z"/>
	<path d="M13.7,55.6C13.7,55.7,13.7,55.7,13.7,55.6c0,0.1,0.1,0.2,0.1,0.3c0.2,0,0.3,0.4,0.2,0.6c0,0-0.1,0.1-0.1,0
		c-0.1-0.2-0.4-0.3-0.4-0.6C13.3,55.6,13.3,55.6,13.7,55.6z"/>
	<path d="M11.6,44.1c-0.1,0-0.1,0-0.2,0c0-0.1,0.1-0.1,0.1-0.2c0,0,0.1-0.1,0.1-0.1c0-0.1,0-0.2,0-0.2c0.2-0.1,0.3-0.2,0.4-0.2
		c0.1,0,0.2,0.1,0.3,0.2c0,0-0.1,0.1-0.1,0.1c-0.1,0-0.2,0-0.3,0C11.8,43.8,11.6,44,11.6,44.1z"/>
	<path d="M13.5,43.5c-0.1,0.1-0.2,0.3-0.3,0.3c-0.1,0-0.2-0.2-0.3-0.3c0.1-0.1,0.2-0.2,0.3-0.2C13.2,43.3,13.3,43.5,13.5,43.5z"/>
	<path d="M17,105.1c0.1-0.1,0.1-0.2,0.2-0.4c0-0.1,0.1-0.1,0.1-0.1c0,0,0.1,0,0.1,0c0,0,0.1,0.1,0.1,0.1c0,0.1-0.1,0.2-0.1,0.3
		C17.3,105.1,17.1,105.1,17,105.1C17,105.1,17,105.1,17,105.1z"/>
	<path d="M10.5,104c0,0.1,0,0.1,0,0.2c-0.2,0-0.1,0.1-0.1,0.2c0,0.1,0,0.1-0.1,0.2c0,0-0.1-0.1-0.1-0.1c0,0-0.1,0-0.1-0.1
		c0,0-0.1-0.1,0-0.1C10.2,104.1,10.2,103.9,10.5,104C10.5,104,10.5,104,10.5,104C10.6,104,10.5,104,10.5,104z"/>
	<path d="M7.9,76.5c-0.4,0.1-0.4,0.1-0.4-0.2c0-0.2,0.1-0.1,0.2-0.2C8,76.1,7.8,76.4,7.9,76.5z"/>
	<path d="M13.6,54.7c0,0,0.1,0,0.1,0c0.1,0,0.2-0.1,0.2,0.1c0,0.1,0,0.3-0.2,0.2c0,0-0.1,0-0.1,0C13.7,54.9,13.6,54.8,13.6,54.7
		C13.6,54.7,13.6,54.7,13.6,54.7z"/>
	<path d="M8.2,28.9c0-0.1,0-0.1,0-0.2c0.1,0,0.2,0,0.3,0C8.5,28.9,8.5,28.9,8.2,28.9z"/>
	<path d="M12.7,98c-0.2,0.1-0.3,0-0.3-0.1c0-0.1,0.1-0.1,0.1-0.2C12.6,97.8,12.7,97.8,12.7,98z"/>
	<path d="M15.1,81.1c0-0.1,0-0.2,0-0.3c0,0,0-0.1,0-0.1c0.1,0,0.2,0,0.2,0c0,0.1,0,0.2,0,0.3C15.3,81.1,15.2,81.1,15.1,81.1z"/>
	<path d="M4.8,27.3c0-0.1,0.1-0.1,0.1-0.2c0,0.1,0.1,0.1,0.1,0.2c0,0,0,0.1-0.1,0.1C4.9,27.5,4.8,27.4,4.8,27.3z"/>
	<path d="M12,83c0.1,0,0.3,0.2,0.2,0.3c0,0,0,0-0.1,0c0,0-0.1,0-0.1-0.1C12,83.1,12,83.1,12,83C12,83,12,83,12,83z"/>
	<path fill="#FFFFFF" d="M10.5,93c0-0.1,0-0.2-0.2-0.4c-0.1,0-0.1-0.3-0.1-0.4c0-0.1,0-0.1,0-0.2c-0.2-0.1-0.2-0.1,0-0.3
		c0,0,0-0.1,0.1-0.2c0.2,0,0.4,0,0.6-0.1c0-0.1,0-0.1,0.1-0.2c0.2,0,0.3-0.1,0.4,0.1c0.2-0.2,0.4-0.1,0.5,0.1
		c0.2,0.1,0.4-0.1,0.6,0.2c0.2,0,0.5-0.1,0.7,0c0.1,0,0.2,0.1,0.3,0.2c0,0.1,0,0.2-0.1,0.3c0,0.1,0,0.1-0.1,0.2c-0.1,0-0.2,0-0.3,0
		c0,0.1,0,0.2,0,0.3c-0.3,0-0.1,0.2-0.2,0.3c-0.2,0.2-0.4,0.3-0.6,0.4c-0.1,0.2-0.2,0.4-0.3,0.6c0,0-0.1,0-0.1,0c0,0-0.1,0-0.1-0.1
		c0,0-0.1-0.1-0.1-0.1c0,0-0.1,0-0.1,0.1c-0.1,0.1-0.1,0.3-0.3,0.3c0,0,0,0.1,0,0.1c0,0-0.1,0.1-0.2,0.1c-0.1,0-0.2-0.1-0.3-0.2
		c-0.2-0.1-0.3-0.4-0.3-0.6c0.1-0.1,0.2-0.2,0.3-0.3c0,0,0-0.1,0-0.2C10.8,93.2,10.6,93.1,10.5,93z"/>
	<path fill="#FFFFFF" d="M9.7,91.8c0-0.1,0-0.3,0-0.4c0,0,0.1,0,0.1,0c0.1,0.1,0.1,0.2,0.2,0.2C9.9,91.8,9.8,91.8,9.7,91.8z"/>
	<path fill="#FFFFFF" d="M15.2,95.4c0,0.1,0,0.1,0,0.2c0,0,0,0.1-0.1,0.1c0,0-0.1,0-0.1-0.1c0-0.1,0-0.3,0-0.4c0,0,0.1-0.1,0.1-0.1
		c0,0,0.1,0,0.1,0.1C15.2,95.2,15.2,95.3,15.2,95.4z"/>
	<path fill="#FFFFFF" d="M12.9,90.2c0.1,0.1,0.1,0.1,0.2,0.2c-0.1,0.1-0.2,0.1-0.3,0.1c0,0-0.1-0.1-0.1-0.1
		C12.7,90.4,12.8,90.3,12.9,90.2z"/>
	<path fill="#FFFFFF" d="M12.6,58.6c-0.1,0-0.3,0.1-0.4-0.1c-0.2-0.1-0.4,0.2-0.6-0.1c-0.1,0-0.3,0-0.4,0c0,0-0.1,0-0.1,0
		c-0.2,0.3-0.6,0.2-0.8,0.3c-0.1,0-0.2,0.1-0.2,0.1C10,58.8,9.8,58.9,9.8,59c-0.1,0.3-0.4,0.1-0.5,0.2C9.2,59,9.1,58.8,9,58.7
		c-0.1,0-0.3,0-0.3,0.2c-0.1,0.2-0.2,0-0.2-0.1C8.2,59,8.1,59,7.8,58.8c-0.1,0-0.2,0-0.3-0.1c0-0.1,0-0.2,0-0.3c0,0,0.1,0,0.1,0
		c0,0,0,0,0,0c0.1-0.1,0.1-0.2,0.2-0.3c0-0.1,0-0.2,0-0.3c0.1-0.1,0.2-0.2,0.3-0.3c0-0.3,0-0.3,0.3-0.3c0.1-0.1,0.2-0.3,0.3-0.3
		c0.2-0.1,0.1-0.2,0.1-0.4c0-0.1,0-0.2,0-0.3c0-0.2,0.1-0.3,0.2-0.3c0.1,0,0.1-0.2,0.2-0.2c0.1,0,0.1,0.1,0.2,0.1c0.1,0,0.1,0,0.2,0
		C9.7,55.8,9.8,56,9.9,56c0.3,0.1,0.1,0.2,0,0.3c0.1,0,0.2,0,0.3,0c0.1,0,0.2,0,0.2,0.1c0,0,0.1,0,0.1,0c0.1,0,0.4-0.1,0.4,0.1
		c0,0,0.1,0,0.1,0c0,0.2,0,0.3,0,0.5c0.4,0,0.8-0.1,1.2-0.1c0.1,0.1,0.2,0.1,0.2,0.2c0,0,0.1,0.1,0.1,0.1c0,0.2,0,0.3,0.2,0.4
		c0,0,0,0.1,0,0.2c0,0.1-0.1,0.1-0.1,0.2c0,0.1,0,0.2-0.1,0.2C12.6,58.4,12.6,58.5,12.6,58.6z"/>
	<path fill="#FFFFFF" d="M15.9,102.9c-0.1,0.1-0.2,0.2-0.3,0.2c-0.1-0.3-0.4-0.1-0.6-0.1c0-0.1-0.1-0.2-0.2-0.2
		c-0.2,0-0.5,0-0.7,0.1c0,0-0.1,0-0.1-0.1c0,0,0.1-0.1,0.1-0.1c0.1-0.1,0.2-0.2,0.3-0.4c-0.2,0-0.3,0-0.4,0c0-0.1,0-0.1-0.1-0.2
		c-0.1,0-0.2,0-0.3,0c0-0.2,0-0.3,0-0.5c0.1,0,0.1-0.1,0.2-0.1c0,0-0.1-0.1-0.1-0.1c0,0-0.1-0.1,0-0.1c0.1-0.1,0.2-0.2,0.3-0.3
		c0-0.1,0-0.3,0-0.4c0.1-0.1,0.2-0.2,0.2-0.3c0.1,0,0.2,0,0.3,0c0,0,0,0,0,0c0.1,0.1,0.2,0.2,0.2,0.4c0,0.1,0,0.2,0.1,0.3
		c0,0.1,0.1,0.1,0.1,0.2c0,0,0,0,0.1,0c0,0.1,0,0.2,0,0.3c0.1,0,0.2,0,0.3,0c0,0.1,0,0.2,0,0.3c0.1,0,0.2,0,0.4,0c0,0.1,0,0.2,0,0.3
		c0,0.2,0.1,0.3,0.2,0.2c0,0,0.1,0,0.1,0C15.9,102.6,15.9,102.8,15.9,102.9z"/>
	<path fill="#FFFFFF" d="M11.4,100.8c0.2,0,0.3-0.1,0.4,0.1c0,0,0.1,0,0.1,0c0.1,0,0.3,0,0.4,0c-0.1,0.1-0.1,0.3-0.2,0.4
		c-0.1,0.1-0.2,0.1-0.1,0.2c0,0-0.1,0-0.1,0c-0.1-0.2-0.3-0.2-0.4-0.4C11.4,101.1,11.4,100.9,11.4,100.8z"/>
	<path fill="#FFFFFF" d="M11.5,102.2c-0.1,0-0.2,0-0.2,0.2c0,0,0,0.1-0.1,0.1c0,0-0.1,0-0.1,0c0-0.1,0-0.3,0-0.4
		c0-0.1,0.2-0.1,0.3-0.1C11.5,102,11.5,102.1,11.5,102.2C11.5,102.2,11.5,102.2,11.5,102.2z"/>
	<path fill="#FFFFFF" d="M12.2,39c0-0.1,0-0.2,0-0.3c-0.1-0.1-0.2-0.2-0.4-0.2c0,0,0-0.1,0-0.1c0.1-0.1,0.2-0.2,0.3-0.2
		c0,0,0-0.1,0.1-0.1c0,0,0.1-0.1,0.1-0.1c0,0,0.1,0.1,0.1,0.1c0,0,0.1,0.1,0.1,0.1c0,0,0.1-0.1,0.1-0.1c0,0,0.1-0.1,0.1-0.1
		c0,0,0.1,0.1,0.1,0.1c0,0.1,0,0.3,0,0.4c0,0,0,0,0.1,0c0,0.1,0.1,0.2,0.1,0.3c0,0.2,0,0.3,0,0.5c0,0,0,0-0.1,0
		c-0.1,0-0.1-0.1-0.2-0.2C12.5,39,12.4,39,12.2,39z"/>
	<path fill="#FFFFFF" d="M8.4,23.4c0-0.1,0-0.2,0-0.3c0-0.1-0.1-0.2,0.1-0.3c0.1,0,0.1-0.2,0.2-0.3c0.1-0.1,0.2-0.2,0.3-0.3
		c0,0,0.1-0.1,0.1-0.1c0,0,0-0.1-0.1-0.1c0,0-0.1-0.1-0.2-0.1c0.3-0.1,0.6,0,0.7-0.3c0,0.1,0,0.1,0,0.2c0,0,0,0.1,0,0.1
		c0.1,0.1,0.2,0.1,0.2,0.2c0,0.1-0.1,0.1-0.2,0.2c0,0,0,0,0,0.1c-0.1,0-0.3,0-0.4,0.2c0,0-0.2,0-0.3,0.1c0,0.2,0,0.4-0.3,0.4
		c0,0.4,0,0.7,0.1,1c0.2,0.1,0.2,0.4,0.3,0.6c0,0,0.1-0.1,0.1-0.1c0,0,0.1-0.1,0.1-0.1c0,0,0.1,0,0.1,0.1c0,0.2-0.1,0.3-0.2,0.5
		c0,0.1-0.1,0.1-0.2,0.1c-0.1-0.1-0.3-0.2-0.5-0.4c0-0.4-0.1-0.8-0.1-1.2C8.2,23.6,8.3,23.5,8.4,23.4C8.3,23.4,8.3,23.4,8.4,23.4z"
		/>
	<path fill="#FFFFFF" d="M10.1,23.4c0-0.1,0-0.2-0.1-0.2c-0.1,0-0.1,0-0.2,0c0-0.1,0-0.2,0-0.3c0.2,0,0.3,0,0.5,0
		c0.1-0.1,0.1-0.1,0.2-0.2c0,0.1,0.1,0.1,0.1,0.2C10.5,23.1,10.4,23.3,10.1,23.4L10.1,23.4z"/>
	<path fill="#FFFFFF" d="M10.1,23.3c-0.1,0.1-0.1,0.2-0.2,0.3c-0.1,0-0.2-0.1-0.3-0.1c0,0,0-0.1,0-0.1c0,0,0.1-0.1,0.1-0.1
		C9.9,23.4,10,23.4,10.1,23.3C10.1,23.4,10.1,23.3,10.1,23.3z"/>
	<path fill="#FFFFFF" d="M9.4,79c0,0.1-0.1,0.3-0.1,0.4c0,0-0.1-0.1-0.1-0.1C9.2,79.1,9.1,79,9.4,79z"/>
</g>
</svg>
