<?xml version="1.0" encoding="utf-8"?>
<!-- Generator: Adobe Illustrator 18.0.0, SVG Export Plug-In . SVG Version: 6.00 Build 0)  -->
<!DOCTYPE svg PUBLIC "-//W3C//DTD SVG 1.1//EN" "http://www.w3.org/Graphics/SVG/1.1/DTD/svg11.dtd">
<svg version="1.1" id="Layer_1" xmlns="http://www.w3.org/2000/svg" xmlns:xlink="http://www.w3.org/1999/xlink" x="0px" y="0px"
	 viewBox="0 0 307.8 142.2" enable-background="new 0 0 307.8 142.2" xml:space="preserve">
<g>
	<g>
		<path d="M22.2,27.2h28.9c5.7,0,10.3,1.6,13.9,4.9c3.5,3.2,5.3,7.8,5.3,13.7c0,5-1.6,9.4-4.7,13.2c-3.1,3.7-7.9,5.6-14.4,5.6H30.9
			v27.3h-8.8V27.2z M56.1,36.1c-1.9-0.9-4.6-1.4-7.9-1.4H30.9v22.4h17.3c3.9,0,7.1-0.8,9.5-2.5s3.6-4.6,3.6-8.8
			C61.4,41,59.6,37.8,56.1,36.1z"/>
		<path d="M143.7,27.2v40c0,4.7,0.9,8.6,2.7,11.7c2.6,4.7,7.1,7,13.3,7c7.5,0,12.6-2.5,15.3-7.6c1.4-2.8,2.2-6.5,2.2-11.1v-40h8.8
			v36.3c0,8-1.1,14.1-3.2,18.3c-3.9,7.8-11.4,11.7-22.3,11.7c-10.9,0-18.4-3.9-22.3-11.7c-2.1-4.3-3.2-10.4-3.2-18.3V27.2H143.7z"/>
		<path d="M197.4,27.2h8.8v56.9h32.4v7.7h-41.2V27.2z"/>
		<path d="M234,27.2h10.2l18.6,31.1l18.6-31.1h10.3l-24.5,38.6v26.1h-8.8V65.8L234,27.2z"/>
	</g>
	<polygon fill="#69CCE2" points="93.5,27.2 103.4,27.2 126.9,91.8 117.3,91.8 97.3,38.1 78.1,91.8 69.2,91.8 	"/>
</g>
<g>
	<path d="M23.8,103h1.9c0.5,0,0.9,0.1,1.3,0.2c0.3,0.2,0.6,0.4,0.8,0.6s0.3,0.6,0.4,0.9c0.1,0.3,0.1,0.7,0.1,1.1
		c0,0.4-0.1,0.8-0.2,1.1s-0.3,0.7-0.5,0.9c-0.2,0.3-0.5,0.5-0.8,0.6c-0.3,0.1-0.7,0.2-1.2,0.2h-1.9V103z M25.6,108.4
		c0.3,0,0.5,0,0.8-0.1c0.3-0.1,0.5-0.2,0.7-0.4c0.2-0.2,0.4-0.5,0.5-0.8c0.1-0.3,0.2-0.7,0.2-1.2c0-0.4,0-0.7-0.1-1
		c-0.1-0.3-0.2-0.5-0.3-0.7c-0.1-0.2-0.3-0.3-0.4-0.4c-0.2-0.1-0.3-0.2-0.5-0.3c-0.2-0.1-0.3-0.1-0.5-0.1s-0.3,0-0.5,0h-1.5v5.1
		H25.6z"/>
	<path d="M35.5,103h3.8v0.3h-3.5v2.3h3.3v0.3h-3.3v2.5h3.5v0.3h-3.9V103z"/>
	<path d="M50.1,104.7c0-0.2-0.1-0.5-0.2-0.6c-0.1-0.2-0.2-0.3-0.4-0.5c-0.2-0.1-0.4-0.2-0.6-0.3c-0.2-0.1-0.5-0.1-0.7-0.1
		c-0.2,0-0.3,0-0.5,0.1c-0.2,0-0.4,0.1-0.5,0.2s-0.3,0.2-0.4,0.4c-0.1,0.2-0.2,0.4-0.2,0.6c0,0.2,0.1,0.4,0.2,0.6s0.3,0.3,0.4,0.3
		s0.4,0.2,0.6,0.2s0.5,0.1,0.7,0.2c0.2,0,0.5,0.1,0.7,0.2c0.2,0.1,0.4,0.2,0.6,0.3c0.2,0.1,0.3,0.3,0.4,0.4s0.2,0.4,0.2,0.7
		c0,0.3-0.1,0.5-0.2,0.8c-0.1,0.2-0.3,0.4-0.5,0.5c-0.2,0.1-0.4,0.2-0.6,0.3c-0.2,0.1-0.5,0.1-0.7,0.1c-0.3,0-0.7,0-0.9-0.1
		c-0.3-0.1-0.5-0.2-0.8-0.4c-0.2-0.2-0.4-0.4-0.5-0.6c-0.1-0.3-0.2-0.6-0.2-0.9h0.4c0,0.3,0,0.6,0.1,0.8c0.1,0.2,0.3,0.4,0.4,0.5
		c0.2,0.1,0.4,0.2,0.7,0.3c0.3,0.1,0.5,0.1,0.8,0.1c0.2,0,0.4,0,0.5-0.1c0.2,0,0.4-0.1,0.5-0.2c0.2-0.1,0.3-0.2,0.4-0.4
		c0.1-0.2,0.2-0.4,0.2-0.6c0-0.2-0.1-0.4-0.2-0.6s-0.3-0.3-0.4-0.4c-0.2-0.1-0.4-0.2-0.6-0.2c-0.2-0.1-0.5-0.1-0.7-0.2
		c-0.2,0-0.5-0.1-0.7-0.2s-0.4-0.2-0.6-0.3s-0.3-0.3-0.4-0.4c-0.1-0.2-0.2-0.4-0.2-0.7s0.1-0.5,0.2-0.7s0.3-0.4,0.4-0.5
		s0.4-0.2,0.6-0.3c0.2-0.1,0.5-0.1,0.7-0.1c0.3,0,0.6,0,0.8,0.1c0.3,0.1,0.5,0.2,0.7,0.3c0.2,0.1,0.4,0.3,0.5,0.5
		c0.1,0.2,0.2,0.5,0.2,0.8H50.1z"/>
	<path d="M57.9,103h0.4v5.7h-0.4V103z"/>
	<path d="M65.5,105.9c0-0.4,0.1-0.8,0.2-1.2s0.3-0.7,0.5-1s0.5-0.5,0.8-0.7c0.3-0.2,0.7-0.2,1.1-0.2c0.3,0,0.6,0,0.8,0.1
		c0.3,0.1,0.5,0.2,0.7,0.4c0.2,0.2,0.4,0.4,0.5,0.6c0.1,0.2,0.2,0.5,0.3,0.8h-0.3c-0.1-0.5-0.4-0.9-0.7-1.2s-0.8-0.4-1.3-0.4
		c-0.4,0-0.7,0.1-1,0.2s-0.5,0.3-0.7,0.6c-0.2,0.3-0.3,0.5-0.4,0.9c-0.1,0.3-0.2,0.7-0.2,1c0,0.4,0,0.7,0.1,1s0.2,0.6,0.4,0.8
		c0.2,0.2,0.4,0.4,0.7,0.6c0.3,0.1,0.6,0.2,1,0.2c0.3,0,0.6-0.1,0.9-0.2c0.3-0.1,0.5-0.3,0.7-0.5c0.2-0.2,0.3-0.4,0.4-0.7
		c0.1-0.3,0.1-0.6,0.1-1h-2.1v-0.3h2.4v2.8h-0.3v-1.2h0c-0.1,0.2-0.2,0.4-0.3,0.6s-0.3,0.3-0.5,0.4s-0.4,0.2-0.6,0.3
		s-0.5,0.1-0.7,0.1c-0.4,0-0.8-0.1-1.1-0.2c-0.3-0.2-0.6-0.4-0.8-0.6c-0.2-0.3-0.4-0.6-0.5-0.9C65.5,106.7,65.5,106.3,65.5,105.9z"
		/>
	<path d="M78,103h0.4l3.6,5.2h0V103h0.4v5.7H82l-3.6-5.3h0v5.3H78V103z"/>
	<path d="M98.5,103h0.4v5.7h-0.4V103z"/>
	<path d="M110,104.7c0-0.2-0.1-0.5-0.2-0.6c-0.1-0.2-0.2-0.3-0.4-0.5c-0.2-0.1-0.4-0.2-0.6-0.3c-0.2-0.1-0.5-0.1-0.7-0.1
		c-0.2,0-0.3,0-0.5,0.1c-0.2,0-0.4,0.1-0.5,0.2s-0.3,0.2-0.4,0.4c-0.1,0.2-0.2,0.4-0.2,0.6c0,0.2,0.1,0.4,0.2,0.6s0.3,0.3,0.4,0.3
		s0.4,0.2,0.6,0.2s0.5,0.1,0.7,0.2c0.2,0,0.5,0.1,0.7,0.2c0.2,0.1,0.4,0.2,0.6,0.3c0.2,0.1,0.3,0.3,0.4,0.4s0.2,0.4,0.2,0.7
		c0,0.3-0.1,0.5-0.2,0.8c-0.1,0.2-0.3,0.4-0.5,0.5c-0.2,0.1-0.4,0.2-0.6,0.3c-0.2,0.1-0.5,0.1-0.7,0.1c-0.3,0-0.7,0-0.9-0.1
		c-0.3-0.1-0.5-0.2-0.8-0.4c-0.2-0.2-0.4-0.4-0.5-0.6c-0.1-0.3-0.2-0.6-0.2-0.9h0.4c0,0.3,0,0.6,0.1,0.8c0.1,0.2,0.3,0.4,0.4,0.5
		c0.2,0.1,0.4,0.2,0.7,0.3c0.3,0.1,0.5,0.1,0.8,0.1c0.2,0,0.4,0,0.5-0.1c0.2,0,0.4-0.1,0.5-0.2c0.2-0.1,0.3-0.2,0.4-0.4
		c0.1-0.2,0.2-0.4,0.2-0.6c0-0.2-0.1-0.4-0.2-0.6s-0.3-0.3-0.4-0.4c-0.2-0.1-0.4-0.2-0.6-0.2c-0.2-0.1-0.5-0.1-0.7-0.2
		c-0.2,0-0.5-0.1-0.7-0.2s-0.4-0.2-0.6-0.3s-0.3-0.3-0.4-0.4c-0.1-0.2-0.2-0.4-0.2-0.7s0.1-0.5,0.2-0.7s0.3-0.4,0.4-0.5
		s0.4-0.2,0.6-0.3c0.2-0.1,0.5-0.1,0.7-0.1c0.3,0,0.6,0,0.8,0.1c0.3,0.1,0.5,0.2,0.7,0.3c0.2,0.1,0.4,0.3,0.5,0.5
		c0.1,0.2,0.2,0.5,0.2,0.8H110z"/>
	<path d="M126.4,103h0.5l2.2,5.3h0l2.2-5.3h0.5v5.7h-0.4v-5.3h0l-2.2,5.3H129l-2.2-5.3h0v5.3h-0.4V103z"/>
	<path d="M143.2,103h0.4l-2.3,3.3v2.4h-0.4v-2.4l-2.3-3.3h0.4l2.1,3L143.2,103z"/>
	<path d="M159,103h2.4c0.2,0,0.3,0,0.5,0.1c0.2,0,0.4,0.1,0.5,0.2c0.2,0.1,0.3,0.3,0.4,0.5c0.1,0.2,0.2,0.5,0.2,0.8
		c0,0.5-0.2,0.9-0.5,1.2c-0.3,0.3-0.8,0.4-1.3,0.4h-2v2.5H159V103z M159.3,105.9h2c0.3,0,0.5,0,0.7-0.1s0.3-0.2,0.4-0.3
		c0.1-0.1,0.2-0.3,0.2-0.4c0-0.1,0.1-0.3,0.1-0.4c0-0.1,0-0.2,0-0.4c0-0.1-0.1-0.3-0.2-0.4c-0.1-0.1-0.2-0.3-0.4-0.3
		s-0.4-0.1-0.7-0.1h-2.1V105.9z"/>
	<path d="M170.1,103h0.4v5.4h3.2v0.3h-3.6V103z"/>
	<path d="M182.2,103h0.4l2.3,5.7h-0.4l-0.7-1.8h-2.7l-0.7,1.8h-0.4L182.2,103z M183.7,106.6l-1.2-3.2h0l-1.3,3.2H183.7z"/>
	<path d="M195,103h0.4l-2.3,3.3v2.4h-0.4v-2.4l-2.3-3.3h0.4l2.1,3L195,103z"/>
	<path d="M201.6,105.9c0-0.4,0.1-0.8,0.2-1.2c0.1-0.4,0.3-0.7,0.5-1s0.5-0.5,0.8-0.7c0.3-0.2,0.7-0.2,1.1-0.2c0.3,0,0.6,0,0.8,0.1
		c0.3,0.1,0.5,0.2,0.7,0.4c0.2,0.2,0.4,0.4,0.5,0.6c0.1,0.2,0.2,0.5,0.3,0.8h-0.3c-0.1-0.5-0.4-0.9-0.7-1.2s-0.8-0.4-1.3-0.4
		c-0.4,0-0.7,0.1-1,0.2c-0.3,0.1-0.5,0.3-0.7,0.6c-0.2,0.3-0.3,0.5-0.4,0.9s-0.2,0.7-0.2,1c0,0.4,0,0.7,0.1,1s0.2,0.6,0.4,0.8
		c0.2,0.2,0.4,0.4,0.7,0.6c0.3,0.1,0.6,0.2,1,0.2c0.3,0,0.6-0.1,0.9-0.2c0.3-0.1,0.5-0.3,0.7-0.5c0.2-0.2,0.3-0.4,0.4-0.7
		c0.1-0.3,0.1-0.6,0.1-1h-2.1v-0.3h2.4v2.8h-0.3v-1.2h0c-0.1,0.2-0.2,0.4-0.3,0.6s-0.3,0.3-0.5,0.4s-0.4,0.2-0.6,0.3
		s-0.5,0.1-0.7,0.1c-0.4,0-0.8-0.1-1.1-0.2c-0.3-0.2-0.6-0.4-0.8-0.6s-0.4-0.6-0.5-0.9S201.6,106.3,201.6,105.9z"/>
	<path d="M214.1,103h2.4c0.3,0,0.5,0,0.7,0.1c0.2,0.1,0.4,0.1,0.6,0.2c0.2,0.1,0.3,0.3,0.4,0.5c0.1,0.2,0.1,0.4,0.1,0.7
		c0,0.4-0.1,0.7-0.3,1s-0.5,0.4-0.9,0.5v0c0.3,0,0.5,0.1,0.6,0.2c0.2,0.1,0.3,0.2,0.3,0.4c0.1,0.2,0.1,0.3,0.1,0.5s0,0.4,0,0.6
		c0,0.1,0,0.2,0,0.3c0,0.1,0,0.2,0,0.3s0,0.2,0.1,0.3c0,0.1,0.1,0.1,0.1,0.2H218c-0.1-0.1-0.1-0.3-0.1-0.5s0-0.4,0-0.6s0-0.4,0-0.6
		c0-0.2-0.1-0.4-0.2-0.5c-0.1-0.1-0.2-0.3-0.4-0.4s-0.4-0.1-0.8-0.1h-2v2.6h-0.4V103z M216.5,105.8c0.2,0,0.4,0,0.6-0.1
		s0.3-0.1,0.5-0.2c0.1-0.1,0.2-0.2,0.3-0.4c0.1-0.2,0.1-0.4,0.1-0.6c0-0.2,0-0.4-0.1-0.5c-0.1-0.2-0.2-0.3-0.3-0.4
		c-0.1-0.1-0.3-0.2-0.5-0.2c-0.2,0-0.4-0.1-0.6-0.1h-2v2.5H216.5z"/>
	<path d="M230.8,105.9c0,0.4-0.1,0.8-0.2,1.2c-0.1,0.4-0.3,0.7-0.5,1c-0.2,0.3-0.5,0.5-0.9,0.6c-0.3,0.2-0.7,0.2-1.1,0.2
		s-0.8-0.1-1.1-0.2c-0.3-0.2-0.6-0.4-0.9-0.6c-0.2-0.3-0.4-0.6-0.5-1c-0.1-0.4-0.2-0.8-0.2-1.2s0.1-0.8,0.2-1.2
		c0.1-0.4,0.3-0.7,0.5-1c0.2-0.3,0.5-0.5,0.9-0.6c0.3-0.2,0.7-0.2,1.1-0.2s0.8,0.1,1.1,0.2c0.3,0.2,0.6,0.4,0.9,0.6
		c0.2,0.3,0.4,0.6,0.5,1C230.7,105.1,230.8,105.5,230.8,105.9z M225.7,105.9c0,0.4,0.1,0.7,0.2,1s0.3,0.6,0.5,0.9
		c0.2,0.2,0.5,0.4,0.7,0.6c0.3,0.1,0.6,0.2,1,0.2s0.7-0.1,1-0.2c0.3-0.1,0.5-0.3,0.7-0.6c0.2-0.2,0.4-0.5,0.5-0.9s0.2-0.7,0.2-1
		s-0.1-0.7-0.2-1s-0.3-0.6-0.5-0.9c-0.2-0.2-0.4-0.4-0.7-0.6s-0.6-0.2-1-0.2s-0.7,0.1-1,0.2c-0.3,0.1-0.5,0.3-0.7,0.6
		c-0.2,0.2-0.4,0.5-0.5,0.9S225.7,105.5,225.7,105.9z"/>
	<path d="M238.3,103v3.4c0,0.1,0,0.2,0,0.4s0,0.3,0.1,0.5c0,0.2,0.1,0.3,0.2,0.5c0.1,0.2,0.2,0.3,0.3,0.4c0.1,0.1,0.3,0.2,0.5,0.3
		c0.2,0.1,0.4,0.1,0.7,0.1c0.4,0,0.6,0,0.9-0.1s0.4-0.2,0.6-0.4c0.1-0.2,0.3-0.4,0.3-0.7c0.1-0.3,0.1-0.6,0.1-0.9V103h0.4v3.4
		c0,0.3,0,0.7-0.1,1c-0.1,0.3-0.2,0.5-0.4,0.8c-0.2,0.2-0.4,0.4-0.7,0.5c-0.3,0.1-0.6,0.2-1.1,0.2c-0.3,0-0.6,0-0.9-0.1
		c-0.2-0.1-0.4-0.2-0.6-0.3c-0.2-0.1-0.3-0.3-0.4-0.5c-0.1-0.2-0.2-0.4-0.2-0.5c0-0.2-0.1-0.4-0.1-0.5c0-0.2,0-0.3,0-0.4V103H238.3z
		"/>
	<path d="M249.7,103h0.4l3.6,5.2h0V103h0.4v5.7h-0.4l-3.6-5.3h0v5.3h-0.4V103z"/>
	<path d="M261.6,103h1.9c0.5,0,0.9,0.1,1.3,0.2c0.3,0.2,0.6,0.4,0.8,0.6c0.2,0.3,0.3,0.6,0.4,0.9c0.1,0.3,0.1,0.7,0.1,1.1
		c0,0.4-0.1,0.8-0.2,1.1c-0.1,0.3-0.3,0.7-0.5,0.9c-0.2,0.3-0.5,0.5-0.8,0.6c-0.3,0.1-0.7,0.2-1.2,0.2h-1.9V103z M263.5,108.4
		c0.3,0,0.5,0,0.8-0.1c0.3-0.1,0.5-0.2,0.7-0.4c0.2-0.2,0.4-0.5,0.5-0.8s0.2-0.7,0.2-1.2c0-0.4,0-0.7-0.1-1s-0.2-0.5-0.3-0.7
		c-0.1-0.2-0.3-0.3-0.4-0.4c-0.2-0.1-0.3-0.2-0.5-0.3c-0.2-0.1-0.3-0.1-0.5-0.1c-0.2,0-0.3,0-0.5,0h-1.5v5.1H263.5z"/>
</g>
</svg>
