<?xml version="1.0" encoding="utf-8"?>
<!-- Generator: Adobe Illustrator 18.0.0, SVG Export Plug-In . SVG Version: 6.00 Build 0)  -->
<!DOCTYPE svg PUBLIC "-//W3C//DTD SVG 1.1//EN" "http://www.w3.org/Graphics/SVG/1.1/DTD/svg11.dtd">
<svg version="1.1" id="Layer_1" xmlns="http://www.w3.org/2000/svg" xmlns:xlink="http://www.w3.org/1999/xlink" x="0px" y="0px"
	 viewBox="0 0 108.1 94" enable-background="new 0 0 108.1 94" xml:space="preserve">
<circle fill="#69CCE2" cx="52.5" cy="45" r="33.7"/>
<g>
	<g>
		<path fill="none" stroke="#FFFFFF" stroke-linecap="round" stroke-linejoin="round" stroke-miterlimit="10" d="M51.5,55.6
			c-1.1,0-12.9,0-13.9,0c-1,0-1-1-1-1V35.4c0,0,0-1,1-1c1.4,0,12.7,0,13.9,0c1,0,1,1,1,1v19.2C52.5,54.6,52.6,55.6,51.5,55.6z"/>
		<line stroke="#FFFFFF" stroke-width="0.5" stroke-miterlimit="10" x1="38.3" y1="37.7" x2="50.9" y2="37.7"/>
		<line stroke="#FFFFFF" stroke-width="0.5" stroke-miterlimit="10" x1="38.3" y1="41.8" x2="50.9" y2="41.8"/>
		<line stroke="#FFFFFF" stroke-width="0.5" stroke-miterlimit="10" x1="38.3" y1="45.7" x2="50.9" y2="45.7"/>
		<line stroke="#FFFFFF" stroke-width="0.5" stroke-miterlimit="10" x1="38.3" y1="49.6" x2="50.9" y2="49.6"/>
		<path fill="none" stroke="#FFFFFF" stroke-linecap="round" stroke-linejoin="round" stroke-miterlimit="10" d="M67.4,55.6
			c-1.1,0-12.9,0-13.9,0s-1-1-1-1V35.4c0,0,0-1,1-1c1.4,0,12.7,0,13.9,0c1,0,1,1,1,1v19.2C68.4,54.6,68.5,55.6,67.4,55.6z"/>
		<line stroke="#FFFFFF" stroke-width="0.5" stroke-miterlimit="10" x1="54.1" y1="37.7" x2="66.7" y2="37.7"/>
		<line stroke="#FFFFFF" stroke-width="0.5" stroke-miterlimit="10" x1="54.1" y1="41.8" x2="66.7" y2="41.8"/>
		<line stroke="#FFFFFF" stroke-width="0.5" stroke-miterlimit="10" x1="54.1" y1="45.7" x2="66.7" y2="45.7"/>
		<line stroke="#FFFFFF" stroke-width="0.5" stroke-miterlimit="10" x1="54.1" y1="49.6" x2="66.7" y2="49.6"/>
	</g>
</g>
</svg>
